{
copyright = "Copyright (c) 2015, Cadson Demak (info@cadsondemak.com)";
customParameters = (
{
name = vendorID;
value = CDK;
},
{
name = description;
value = "Copyright (c) 2015, Cadson Demak (info@cadsondemak.com)";
},
{
name = license;

glyphs = (
{
glyphname = A;
lastChange = "2015-10-27 23:55:44 +0000";
layers = (
{
layerId = "C023BAC7-6FF9-47E4-9D72-1131A8F8A065";
name = "Light Italic";
paths = (
{
closed = 1;
nodes = (
"50 0 LINE",
"181 215 LINE",
"533 215 LINE",
"574 0 LINE",
"600 0 LINE",
"469 699 LINE",
"447 699 LINE",
"20 0 LINE"
);
},
{
closed = 1;
nodes = (
"451 657 LINE",
"528 239 LINE",
"196 239 LINE"
);
}
);
width = 700;
}
);
leftKerningGroup = A;
note = A;
rightKerningGroup = A;
unicode = 0041;
},
{
glyphname = Aacute;
lastChange = "2015-10-27 23:55:45 +0000";
layers = (
{
layerId = "C023BAC7-6FF9-47E4-9D72-1131A8F8A065";
name = "Light Italic";
paths = (
{
closed = 1;
nodes = (
"50 0 LINE",
"181 215 LINE",
"533 215 LINE",
"574 0 LINE",
"600 0 LINE",
"469 699 LINE",
"447 699 LINE",
"20 0 LINE"
);
},
{
closed = 1;
nodes = (
"451 657 LINE",
"528 239 LINE",
"196 239 LINE"
);
},
{
closed = 1;
nodes = (
"490 768 LINE",
"603 935 LINE",
"575 935 LINE",
"468 768 LINE"
);
}
);
width = 700;
}
);
leftKerningGroup = A;
note = Aacute;
rightKerningGroup = A;
unicode = 00C1;
},
{
glyphname = Abreve;
lastChange = "2015-10-27 23:55:45 +0000";
layers = (
{
layerId = "C023BAC7-6FF9-47E4-9D72-1131A8F8A065";
name = "Light Italic";
paths = (
{
closed = 1;
nodes = (
"50 0 LINE",
"181 215 LINE",
"533 215 LINE",
"574 0 LINE",
"600 0 LINE",
"469 699 LINE",
"447 699 LINE",
"20 0 LINE"
);
},
{
closed = 1;
nodes = (
"451 657 LINE",
"528 239 LINE",
"196 239 LINE"
);
},
{
closed = 1;
nodes = (
"543 770 OFFCURVE",
"601 818 OFFCURVE",
"614 878 CURVE",
"588 878 LINE",
"578 830 OFFCURVE",
"535 793 OFFCURVE",
"476 793 CURVE SMOOTH",
"418 793 OFFCURVE",
"390 830 OFFCURVE",
"400 878 CURVE",
"378 878 LINE",
"365 818 OFFCURVE",
"403 770 OFFCURVE",
"473 770 CURVE SMOOTH"
);
}
);
width = 700;
}
);
leftKerningGroup = A;
note = Abreve;
rightKerningGroup = A;
unicode = 0102;
},
{
glyphname = Abreveacute;
lastChange = "2015-10-27 23:55:44 +0000";
layers = (
{
layerId = "C023BAC7-6FF9-47E4-9D72-1131A8F8A065";
name = "Light Italic";
paths = (
{
closed = 1;
nodes = (
"50 0 LINE",
"181 215 LINE",
"533 215 LINE",
"574 0 LINE",
"600 0 LINE",
"469 699 LINE",
"447 699 LINE",
"20 0 LINE"
);
},
{
closed = 1;
nodes = (
"451 657 LINE",
"528 239 LINE",
"196 239 LINE"
);
},
{
closed = 1;
nodes = (
"540 751 OFFCURVE",
"598 799 OFFCURVE",
"611 859 CURVE",
"587 859 LINE",
"577 811 OFFCURVE",
"534 774 OFFCURVE",
"475 774 CURVE SMOOTH",
"417 774 OFFCURVE",
"389 811 OFFCURVE",
"399 859 CURVE",
"375 859 LINE",
"362 799 OFFCURVE",
"400 751 OFFCURVE",
"470 751 CURVE SMOOTH"
);
},
{
closed = 1;
nodes = (
"481 825 LINE",
"566 945 LINE",
"538 945 LINE",
"459 825 LINE"
);
}
);
width = 700;
}
);
leftKerningGroup = A;
note = Abreveacute;
rightKerningGroup = A;
unicode = 1EAE;
},
{
glyphname = Abrevedotbelow;
lastChange = "2015-10-27 23:55:44 +0000";
layers = (
{
layerId = "C023BAC7-6FF9-47E4-9D72-1131A8F8A065";
name = "Light Italic";
paths = (
{
closed = 1;
nodes = (
"50 0 LINE",
"181 215 LINE",
"533 215 LINE",
"574 0 LINE",
"600 0 LINE",
"469 699 LINE",
"447 699 LINE",
"20 0 LINE"
);
},
{
closed = 1;
nodes = (
"300 -121 OFFCURVE",
"315 -108 OFFCURVE",
"318 -93 CURVE SMOOTH",
"321 -78 OFFCURVE",
"311 -65 OFFCURVE",
"297 -65 CURVE SMOOTH",
"282 -65 OFFCURVE",
"266 -78 OFFCURVE",
"263 -93 CURVE SMOOTH",
"260 -108 OFFCURVE",
"270 -121 OFFCURVE",
"285 -121 CURVE SMOOTH"
);
},
{
closed = 1;
nodes = (
"451 657 LINE",
"528 239 LINE",
"196 239 LINE"
);
},
{
closed = 1;
nodes = (
"546 783 OFFCURVE",
"604 831 OFFCURVE",
"617 891 CURVE",
"591 891 LINE",
"581 843 OFFCURVE",
"538 806 OFFCURVE",
"479 806 CURVE SMOOTH",
"421 806 OFFCURVE",
"393 843 OFFCURVE",
"403 891 CURVE",
"381 891 LINE",
"368 831 OFFCURVE",
"406 783 OFFCURVE",
"476 783 CURVE SMOOTH"
);
}
);
width = 700;
}
);
leftKerningGroup = A;
note = Abrevedotbelow;
rightKerningGroup = A;
unicode = 1EB6;
},
{
glyphname = Abrevegrave;
lastChange = "2015-10-27 23:55:45 +0000";
layers = (
{
layerId = "C023BAC7-6FF9-47E4-9D72-1131A8F8A065";
name = "Light Italic";
paths = (
{
closed = 1;
nodes = (
"50 0 LINE",
"181 215 LINE",
"533 215 LINE",
"574 0 LINE",
"600 0 LINE",
"469 699 LINE",
"447 699 LINE",
"20 0 LINE"
);
},
{
closed = 1;
nodes = (
"451 657 LINE",
"528 239 LINE",
"196 239 LINE"
);
},
{
closed = 1;
nodes = (
"540 751 OFFCURVE",
"598 799 OFFCURVE",
"611 859 CURVE",
"587 859 LINE",
"577 811 OFFCURVE",
"533 774 OFFCURVE",
"475 774 CURVE SMOOTH",
"416 774 OFFCURVE",
"389 811 OFFCURVE",
"399 859 CURVE",
"375 859 LINE",
"362 799 OFFCURVE",
"400 751 OFFCURVE",
"470 751 CURVE SMOOTH"
);
},
{
closed = 1;
nodes = (
"513 825 LINE",
"484 945 LINE",
"456 945 LINE",
"491 825 LINE"
);
}
);
width = 700;
}
);
leftKerningGroup = A;
note = Abrevegrave;
rightKerningGroup = A;
unicode = 1EB0;
},
{
glyphname = Abrevehookabove;
lastChange = "2015-10-27 23:55:46 +0000";
layers = (
{
layerId = "C023BAC7-6FF9-47E4-9D72-1131A8F8A065";
name = "Light Italic";
paths = (
{
closed = 1;
nodes = (
"50 0 LINE",
"181 215 LINE",
"533 215 LINE",
"574 0 LINE",
"600 0 LINE",
"469 699 LINE",
"447 699 LINE",
"20 0 LINE"
);
},
{
closed = 1;
nodes = (
"451 657 LINE",
"528 239 LINE",
"196 239 LINE"
);
},
{
closed = 1;
nodes = (
"539 750 OFFCURVE",
"597 798 OFFCURVE",
"610 858 CURVE",
"586 858 LINE",
"576 810 OFFCURVE",
"533 773 OFFCURVE",
"474 773 CURVE SMOOTH",
"416 773 OFFCURVE",
"388 810 OFFCURVE",
"398 858 CURVE",
"374 858 LINE",
"361 798 OFFCURVE",
"399 750 OFFCURVE",
"469 750 CURVE SMOOTH"
);
},
{
closed = 1;
nodes = (
"485 809 LINE",
"491 841 LINE",
"536 843 OFFCURVE",
"567 866 OFFCURVE",
"574 901 CURVE SMOOTH",
"582 938 OFFCURVE",
"566 963 OFFCURVE",
"517 963 CURVE SMOOTH",
"499 963 OFFCURVE",
"479 959 OFFCURVE",
"467 955 CURVE",
"462 932 LINE",
"474 937 OFFCURVE",
"496 941 OFFCURVE",
"513 941 CURVE SMOOTH",
"543 941 OFFCURVE",
"557 931 OFFCURVE",
"550 901 CURVE",
"544 870 OFFCURVE",
"522 859 OFFCURVE",
"474 859 CURVE",
"464 809 LINE"
);
}
);
width = 700;
}
);
leftKerningGroup = A;
note = Abrevehookabove;
rightKerningGroup = A;
unicode = 1EB2;
},
{
glyphname = Abrevetilde;
lastChange = "2015-10-27 23:55:44 +0000";
layers = (
{
layerId = "C023BAC7-6FF9-47E4-9D72-1131A8F8A065";
name = "Light Italic";
paths = (
{
closed = 1;
nodes = (
"50 0 LINE",
"181 215 LINE",
"533 215 LINE",
"574 0 LINE",
"600 0 LINE",
"469 699 LINE",
"447 699 LINE",
"20 0 LINE"
);
},
{
closed = 1;
nodes = (
"451 657 LINE",
"528 239 LINE",
"196 239 LINE"
);
},
{
closed = 1;
nodes = (
"539 750 OFFCURVE",
"597 798 OFFCURVE",
"610 858 CURVE",
"586 858 LINE",
"576 810 OFFCURVE",
"533 773 OFFCURVE",
"474 773 CURVE SMOOTH",
"416 773 OFFCURVE",
"388 810 OFFCURVE",
"398 858 CURVE",
"374 858 LINE",
"361 798 OFFCURVE",
"399 750 OFFCURVE",
"469 750 CURVE SMOOTH"
);
},
{
closed = 1;
nodes = (
"603 886 OFFCURVE",
"625 897 OFFCURVE",
"645 923 CURVE",
"651 953 LINE",
"625 918 OFFCURVE",
"604 908 OFFCURVE",
"574 908 CURVE SMOOTH",
"532 908 OFFCURVE",
"486 954 OFFCURVE",
"441 954 CURVE SMOOTH",
"407 954 OFFCURVE",
"384 943 OFFCURVE",
"365 917 CURVE",
"358 887 LINE",
"387 922 OFFCURVE",
"407 932 OFFCURVE",
"437 932 CURVE SMOOTH",
"478 932 OFFCURVE",
"520 886 OFFCURVE",
"569 886 CURVE SMOOTH"
);
}
);
width = 700;
}
);
leftKerningGroup = A;
note = Abrevetilde;
rightKerningGroup = A;
unicode = 1EB4;
},
{
glyphname = Acaron;
lastChange = "2015-10-27 23:55:46 +0000";
layers = (
{
layerId = "C023BAC7-6FF9-47E4-9D72-1131A8F8A065";
name = "Light Italic";
paths = (
{
closed = 1;
nodes = (
"50 0 LINE",
"181 215 LINE",
"533 215 LINE",
"574 0 LINE",
"600 0 LINE",
"469 699 LINE",
"447 699 LINE",
"20 0 LINE"
);
},
{
closed = 1;
nodes = (
"451 657 LINE",
"528 239 LINE",
"196 239 LINE"
);
},
{
closed = 1;
nodes = (
"487 784 LINE",
"647 935 LINE",
"614 935 LINE",
"478 806 LINE",
"398 935 LINE",
"369 935 LINE",
"465 784 LINE"
);
}
);
width = 700;
}
);
leftKerningGroup = A;
note = Acaron;
rightKerningGroup = A;
unicode = 01CD;
},
{
glyphname = Acircumflex;
lastChange = "2015-10-27 23:55:46 +0000";
layers = (
{
layerId = "C023BAC7-6FF9-47E4-9D72-1131A8F8A065";
name = "Light Italic";
paths = (
{
closed = 1;
nodes = (
"50 0 LINE",
"181 215 LINE",
"533 215 LINE",
"574 0 LINE",
"600 0 LINE",
"469 699 LINE",
"447 699 LINE",
"20 0 LINE"
);
},
{
closed = 1;
nodes = (
"451 657 LINE",
"528 239 LINE",
"196 239 LINE"
);
},
{
closed = 1;
nodes = (
"368 774 LINE",
"503 903 LINE",
"584 774 LINE",
"613 774 LINE",
"517 925 LINE",
"495 925 LINE",
"336 774 LINE"
);
}
);
width = 700;
}
);
leftKerningGroup = A;
note = Acircumflex;
rightKerningGroup = A;
unicode = 00C2;
},
{
glyphname = Acircumflexacute;
lastChange = "2015-10-27 23:55:46 +0000";
layers = (
{
layerId = "C023BAC7-6FF9-47E4-9D72-1131A8F8A065";
name = "Light Italic";
paths = (
{
closed = 1;
nodes = (
"50 0 LINE",
"181 215 LINE",
"533 215 LINE",
"574 0 LINE",
"600 0 LINE",
"469 699 LINE",
"447 699 LINE",
"20 0 LINE"
);
},
{
closed = 1;
nodes = (
"451 657 LINE",
"528 239 LINE",
"196 239 LINE"
);
},
{
closed = 1;
nodes = (
"361 747 LINE",
"490 849 LINE",
"577 747 LINE",
"608 747 LINE",
"505 868 LINE",
"483 868 LINE",
"330 747 LINE"
);
},
{
closed = 1;
nodes = (
"590 830 LINE",
"683 938 LINE",
"655 938 LINE",
"568 830 LINE"
);
}
);
width = 700;
}
);
leftKerningGroup = A;
note = Acircumflexacute;
rightKerningGroup = A;
unicode = 1EA4;
},
{
glyphname = Acircumflexdotbelow;
lastChange = "2015-10-27 23:55:45 +0000";
layers = (
{
layerId = "C023BAC7-6FF9-47E4-9D72-1131A8F8A065";
name = "Light Italic";
paths = (
{
closed = 1;
nodes = (
"50 0 LINE",
"181 215 LINE",
"533 215 LINE",
"574 0 LINE",
"600 0 LINE",
"469 699 LINE",
"447 699 LINE",
"20 0 LINE"
);
},
{
closed = 1;
nodes = (
"300 -121 OFFCURVE",
"315 -108 OFFCURVE",
"318 -93 CURVE SMOOTH",
"321 -78 OFFCURVE",
"311 -65 OFFCURVE",
"297 -65 CURVE SMOOTH",
"282 -65 OFFCURVE",
"266 -78 OFFCURVE",
"263 -93 CURVE SMOOTH",
"260 -108 OFFCURVE",
"270 -121 OFFCURVE",
"285 -121 CURVE SMOOTH"
);
},
{
closed = 1;
nodes = (
"451 657 LINE",
"528 239 LINE",
"196 239 LINE"
);
},
{
closed = 1;
nodes = (
"370 784 LINE",
"505 913 LINE",
"586 784 LINE",
"615 784 LINE",
"519 935 LINE",
"497 935 LINE",
"338 784 LINE"
);
}
);
width = 700;
}
);
leftKerningGroup = A;
note = Acircumflexdotbelow;
rightKerningGroup = A;
unicode = 1EAC;
},
{
glyphname = Acircumflexgrave;
lastChange = "2015-10-27 23:55:44 +0000";
layers = (
{
layerId = "C023BAC7-6FF9-47E4-9D72-1131A8F8A065";
name = "Light Italic";
paths = (
{
closed = 1;
nodes = (
"50 0 LINE",
"181 215 LINE",
"533 215 LINE",
"574 0 LINE",
"600 0 LINE",
"469 699 LINE",
"447 699 LINE",
"20 0 LINE"
);
},
{
closed = 1;
nodes = (
"451 657 LINE",
"528 239 LINE",
"196 239 LINE"
);
},
{
closed = 1;
nodes = (
"405 830 LINE",
"363 938 LINE",
"335 938 LINE",
"383 830 LINE"
);
},
{
closed = 1;
nodes = (
"362 747 LINE",
"491 849 LINE",
"578 747 LINE",
"608 747 LINE",
"506 868 LINE",
"484 868 LINE",
"331 747 LINE"
);
}
);
width = 700;
}
);
leftKerningGroup = A;
note = Acircumflexgrave;
rightKerningGroup = A;
unicode = 1EA6;
},
{
glyphname = Acircumflexhookabove;
lastChange = "2015-10-27 23:55:44 +0000";
layers = (
{
layerId = "C023BAC7-6FF9-47E4-9D72-1131A8F8A065";
name = "Light Italic";
paths = (
{
closed = 1;
nodes = (
"50 0 LINE",
"181 215 LINE",
"533 215 LINE",
"574 0 LINE",
"600 0 LINE",
"469 699 LINE",
"447 699 LINE",
"20 0 LINE"
);
},
{
closed = 1;
nodes = (
"451 657 LINE",
"528 239 LINE",
"196 239 LINE"
);
},
{
closed = 1;
nodes = (
"363 747 LINE",
"492 849 LINE",
"579 747 LINE",
"609 747 LINE",
"507 868 LINE",
"485 868 LINE",
"332 747 LINE"
);
},
{
closed = 1;
nodes = (
"591 820 LINE",
"597 847 LINE",
"640 849 OFFCURVE",
"671 872 OFFCURVE",
"679 907 CURVE",
"686 944 OFFCURVE",
"671 969 OFFCURVE",
"622 969 CURVE SMOOTH",
"604 969 OFFCURVE",
"584 965 OFFCURVE",
"572 961 CURVE",
"567 938 LINE",
"579 943 OFFCURVE",
"600 947 OFFCURVE",
"617 947 CURVE SMOOTH",
"647 947 OFFCURVE",
"661 937 OFFCURVE",
"655 907 CURVE SMOOTH",
"648 876 OFFCURVE",
"627 865 OFFCURVE",
"580 865 CURVE",
"570 820 LINE"
);
}
);
width = 700;
}
);
leftKerningGroup = A;
note = Acircumflexhookabove;
rightKerningGroup = A;
unicode = 1EA8;
},
{
glyphname = Acircumflextilde;
lastChange = "2015-10-27 23:55:46 +0000";
layers = (
{
layerId = "C023BAC7-6FF9-47E4-9D72-1131A8F8A065";
name = "Light Italic";
paths = (
{
closed = 1;
nodes = (
"50 0 LINE",
"181 215 LINE",
"533 215 LINE",
"574 0 LINE",
"600 0 LINE",
"469 699 LINE",
"447 699 LINE",
"20 0 LINE"
);
},
{
closed = 1;
nodes = (
"451 657 LINE",
"528 239 LINE",
"196 239 LINE"
);
},
{
closed = 1;
nodes = (
"361 747 LINE",
"490 849 LINE",
"577 747 LINE",
"607 747 LINE",
"505 868 LINE",
"483 868 LINE",
"330 747 LINE"
);
},
{
closed = 1;
nodes = (
"601 881 OFFCURVE",
"624 892 OFFCURVE",
"644 918 CURVE",
"650 948 LINE",
"624 913 OFFCURVE",
"602 903 OFFCURVE",
"573 903 CURVE SMOOTH",
"531 903 OFFCURVE",
"486 949 OFFCURVE",
"441 949 CURVE SMOOTH",
"407 949 OFFCURVE",
"383 938 OFFCURVE",
"364 912 CURVE",
"357 882 LINE",
"386 917 OFFCURVE",
"406 927 OFFCURVE",
"436 927 CURVE SMOOTH",
"477 927 OFFCURVE",
"519 881 OFFCURVE",
"568 881 CURVE SMOOTH"
);
}
);
width = 700;
}
);
leftKerningGroup = A;
note = Acircumflextilde;
rightKerningGroup = A;
unicode = 1EAA;
},
{
glyphname = Adieresis;
lastChange = "2015-10-27 23:55:46 +0000";
layers = (
{
layerId = "C023BAC7-6FF9-47E4-9D72-1131A8F8A065";
name = "Light Italic";
paths = (
{
closed = 1;
nodes = (
"50 0 LINE",
"181 215 LINE",
"533 215 LINE",
"574 0 LINE",
"600 0 LINE",
"469 699 LINE",
"447 699 LINE",
"20 0 LINE"
);
},
{
closed = 1;
nodes = (
"451 657 LINE",
"528 239 LINE",
"196 239 LINE"
);
},
{
closed = 1;
nodes = (
"391 778 OFFCURVE",
"406 791 OFFCURVE",
"410 806 CURVE",
"413 821 OFFCURVE",
"402 834 OFFCURVE",
"387 834 CURVE SMOOTH",
"372 834 OFFCURVE",
"357 821 OFFCURVE",
"354 806 CURVE",
"350 791 OFFCURVE",
"361 778 OFFCURVE",
"376 778 CURVE SMOOTH"
);
},
{
closed = 1;
nodes = (
"589 778 OFFCURVE",
"604 791 OFFCURVE",
"608 806 CURVE",
"611 821 OFFCURVE",
"600 834 OFFCURVE",
"585 834 CURVE SMOOTH",
"570 834 OFFCURVE",
"555 821 OFFCURVE",
"552 806 CURVE",
"548 791 OFFCURVE",
"559 778 OFFCURVE",
"574 778 CURVE SMOOTH"
);
}
);
width = 700;
}
);
leftKerningGroup = A;
note = Adieresis;
rightKerningGroup = A;
unicode = 00C4;
},
{
glyphname = Adotbelow;
lastChange = "2015-10-27 23:55:45 +0000";
layers = (
{
layerId = "C023BAC7-6FF9-47E4-9D72-1131A8F8A065";
name = "Light Italic";
paths = (
{
closed = 1;
nodes = (
"50 0 LINE",
"181 215 LINE",
"533 215 LINE",
"574 0 LINE",
"600 0 LINE",
"469 699 LINE",
"447 699 LINE",
"20 0 LINE"
);
},
{
closed = 1;
nodes = (
"300 -121 OFFCURVE",
"315 -108 OFFCURVE",
"318 -93 CURVE SMOOTH",
"321 -78 OFFCURVE",
"311 -65 OFFCURVE",
"297 -65 CURVE SMOOTH",
"282 -65 OFFCURVE",
"266 -78 OFFCURVE",
"263 -93 CURVE SMOOTH",
"260 -108 OFFCURVE",
"270 -121 OFFCURVE",
"285 -121 CURVE SMOOTH"
);
},
{
closed = 1;
nodes = (
"451 657 LINE",
"528 239 LINE",
"196 239 LINE"
);
}
);
width = 700;
}
);
leftKerningGroup = A;
note = Adotbelow;
rightKerningGroup = A;
unicode = 1EA0;
},
{
glyphname = Agrave;
lastChange = "2015-10-27 23:55:45 +0000";
layers = (
{
layerId = "C023BAC7-6FF9-47E4-9D72-1131A8F8A065";
name = "Light Italic";
paths = (
{
closed = 1;
nodes = (
"50 0 LINE",
"181 215 LINE",
"533 215 LINE",
"574 0 LINE",
"600 0 LINE",
"469 699 LINE",
"447 699 LINE",
"20 0 LINE"
);
},
{
closed = 1;
nodes = (
"451 657 LINE",
"528 239 LINE",
"196 239 LINE"
);
},
{
closed = 1;
nodes = (
"467 768 LINE",
"432 935 LINE",
"404 935 LINE",
"445 768 LINE"
);
}
);
width = 700;
}
);
leftKerningGroup = A;
note = Agrave;
rightKerningGroup = A;
unicode = 00C0;
},
{
glyphname = Ahookabove;
lastChange = "2015-10-27 23:55:46 +0000";
layers = (
{
layerId = "C023BAC7-6FF9-47E4-9D72-1131A8F8A065";
name = "Light Italic";
paths = (
{
closed = 1;
nodes = (
"50 0 LINE",
"181 215 LINE",
"533 215 LINE",
"574 0 LINE",
"600 0 LINE",
"469 699 LINE",
"447 699 LINE",
"20 0 LINE"
);
},
{
closed = 1;
nodes = (
"451 657 LINE",
"528 239 LINE",
"196 239 LINE"
);
},
{
closed = 1;
nodes = (
"480 744 LINE",
"489 788 LINE",
"555 791 OFFCURVE",
"594 826 OFFCURVE",
"605 875 CURVE SMOOTH",
"615 925 OFFCURVE",
"589 961 OFFCURVE",
"520 961 CURVE SMOOTH",
"500 961 OFFCURVE",
"475 957 OFFCURVE",
"463 953 CURVE",
"458 929 LINE",
"471 934 OFFCURVE",
"497 937 OFFCURVE",
"515 937 CURVE SMOOTH",
"563 937 OFFCURVE",
"588 918 OFFCURVE",
"578 874 CURVE SMOOTH",
"569 830 OFFCURVE",
"542 807 OFFCURVE",
"470 807 CURVE",
"457 744 LINE"
);
}
);
width = 700;
}
);
leftKerningGroup = A;
note = Ahookabove;
rightKerningGroup = A;
unicode = 1EA2;
},
{
glyphname = Amacron;
lastChange = "2015-10-27 23:55:46 +0000";
layers = (
{
layerId = "C023BAC7-6FF9-47E4-9D72-1131A8F8A065";
name = "Light Italic";
paths = (
{
closed = 1;
nodes = (
"50 0 LINE",
"181 215 LINE",
"533 215 LINE",
"574 0 LINE",
"600 0 LINE",
"469 699 LINE",
"447 699 LINE",
"20 0 LINE"
);
},
{
closed = 1;
nodes = (
"451 657 LINE",
"528 239 LINE",
"196 239 LINE"
);
},
{
closed = 1;
nodes = (
"623 825 LINE",
"629 849 LINE",
"351 849 LINE",
"345 825 LINE"
);
}
);
width = 700;
}
);
leftKerningGroup = A;
note = Amacron;
rightKerningGroup = A;
unicode = 0100;
},
{
glyphname = Aogonek;
lastChange = "2015-10-27 23:55:45 +0000";
layers = (
{
layerId = "C023BAC7-6FF9-47E4-9D72-1131A8F8A065";
name = "Light Italic";
paths = (
{
closed = 1;
nodes = (
"554 -206 OFFCURVE",
"568 -203 OFFCURVE",
"580 -198 CURVE",
"586 -174 LINE",
"572 -179 OFFCURVE",
"556 -182 OFFCURVE",
"539 -182 CURVE SMOOTH",
"508 -182 OFFCURVE",
"487 -164 OFFCURVE",
"495 -125 CURVE SMOOTH",
"505 -76 OFFCURVE",
"546 -36 OFFCURVE",
"600 0 CURVE",
"469 699 LINE",
"447 699 LINE",
"20 0 LINE",
"50 0 LINE",
"181 215 LINE",
"533 215 LINE",
"574 0 LINE",
"525 -27 OFFCURVE",
"480 -73 OFFCURVE",
"469 -125 CURVE SMOOTH",
"457 -179 OFFCURVE",
"491 -206 OFFCURVE",
"534 -206 CURVE SMOOTH"
);
},
{
closed = 1;
nodes = (
"451 657 LINE",
"528 239 LINE",
"196 239 LINE"
);
}
);
width = 706;
}
);
leftKerningGroup = A;
note = Aogonek;
rightKerningGroup = A;
unicode = 0104;
},
{
glyphname = Aring;
lastChange = "2015-10-27 23:55:44 +0000";
layers = (
{
layerId = "C023BAC7-6FF9-47E4-9D72-1131A8F8A065";
name = "Light Italic";
paths = (
{
closed = 1;
nodes = (
"48 0 LINE",
"179 215 LINE",
"531 215 LINE",
"572 0 LINE",
"600 0 LINE",
"472 680 LINE",
"515 688 OFFCURVE",
"555 725 OFFCURVE",
"564 769 CURVE SMOOTH",
"575 819 OFFCURVE",
"542 860 OFFCURVE",
"492 860 CURVE SMOOTH",
"442 860 OFFCURVE",
"393 819 OFFCURVE",
"382 769 CURVE SMOOTH",
"373 725 OFFCURVE",
"396 688 OFFCURVE",
"435 680 CURVE",
"20 0 LINE"
);
},
{
closed = 1;
nodes = (
"449 657 LINE",
"526 239 LINE",
"194 239 LINE"
);
},
{
closed = 1;
nodes = (
"418 702 OFFCURVE",
"396 733 OFFCURVE",
"404 769 CURVE SMOOTH",
"412 807 OFFCURVE",
"449 839 OFFCURVE",
"488 839 CURVE SMOOTH",
"527 839 OFFCURVE",
"550 807 OFFCURVE",
"542 769 CURVE SMOOTH",
"534 733 OFFCURVE",
"501 702 OFFCURVE",
"464 699 CURVE",
"452 699 LINE"
);
}
);
width = 700;
}
);
leftKerningGroup = A;
note = Aring;
rightKerningGroup = A;
unicode = 00C5;
},
{
glyphname = Aringacute;
lastChange = "2015-10-27 23:55:44 +0000";
layers = (
{
layerId = "C023BAC7-6FF9-47E4-9D72-1131A8F8A065";
name = "Light Italic";
paths = (
{
closed = 1;
nodes = (
"48 0 LINE",
"179 215 LINE",
"531 215 LINE",
"572 0 LINE",
"600 0 LINE",
"472 680 LINE",
"515 688 OFFCURVE",
"555 725 OFFCURVE",
"564 769 CURVE SMOOTH",
"575 819 OFFCURVE",
"542 860 OFFCURVE",
"492 860 CURVE SMOOTH",
"442 860 OFFCURVE",
"393 819 OFFCURVE",
"382 769 CURVE SMOOTH",
"373 725 OFFCURVE",
"396 688 OFFCURVE",
"435 680 CURVE",
"20 0 LINE"
);
},
{
closed = 1;
nodes = (
"449 657 LINE",
"526 239 LINE",
"194 239 LINE"
);
},
{
closed = 1;
nodes = (
"418 702 OFFCURVE",
"396 733 OFFCURVE",
"404 769 CURVE SMOOTH",
"412 807 OFFCURVE",
"449 839 OFFCURVE",
"488 839 CURVE SMOOTH",
"527 839 OFFCURVE",
"550 807 OFFCURVE",
"542 769 CURVE SMOOTH",
"534 733 OFFCURVE",
"501 702 OFFCURVE",
"464 699 CURVE",
"452 699 LINE"
);
},
{
closed = 1;
nodes = (
"533 894 LINE",
"646 1027 LINE",
"618 1027 LINE",
"511 894 LINE"
);
}
);
width = 700;
}
);
leftKerningGroup = A;
note = Aringacute;
rightKerningGroup = A;
unicode = 01FA;
},
{
glyphname = Atilde;
lastChange = "2015-10-27 23:55:46 +0000";
layers = (
{
layerId = "C023BAC7-6FF9-47E4-9D72-1131A8F8A065";
name = "Light Italic";
paths = (
{
closed = 1;
nodes = (
"50 0 LINE",
"181 215 LINE",
"533 215 LINE",
"574 0 LINE",
"600 0 LINE",
"469 699 LINE",
"447 699 LINE",
"20 0 LINE"
);
},
{
closed = 1;
nodes = (
"451 657 LINE",
"528 239 LINE",
"196 239 LINE"
);
},
{
closed = 1;
nodes = (
"337 829 OFFCURVE",
"369 840 OFFCURVE",
"402 840 CURVE SMOOTH",
"466 840 OFFCURVE",
"492 790 OFFCURVE",
"565 790 CURVE SMOOTH",
"602 790 OFFCURVE",
"638 802 OFFCURVE",
"664 835 CURVE",
"671 868 LINE",
"637 825 OFFCURVE",
"603 814 OFFCURVE",
"570 814 CURVE SMOOTH",
"505 814 OFFCURVE",
"475 864 OFFCURVE",
"407 864 CURVE SMOOTH",
"370 864 OFFCURVE",
"334 852 OFFCURVE",
"307 819 CURVE",
"300 786 LINE"
);
}
);
width = 700;
}
);
leftKerningGroup = A;
note = Atilde;
rightKerningGroup = A;
unicode = 00C3;
},
{
glyphname = AE;
lastChange = "2015-10-27 23:55:45 +0000";
layers = (
{
layerId = "C023BAC7-6FF9-47E4-9D72-1131A8F8A065";
name = "Light Italic";
paths = (
{
closed = 1;
nodes = (
"48 0 LINE",
"210 215 LINE",
"485 215 LINE",
"440 0 LINE",
"817 0 LINE",
"822 24 LINE",
"473 24 LINE",
"539 338 LINE",
"792 338 LINE",
"797 362 LINE",
"544 362 LINE",
"611 675 LINE",
"960 675 LINE",
"965 699 LINE",
"549 699 LINE",
"20 0 LINE"
);
},
{
closed = 1;
nodes = (
"559 675 LINE",
"583 675 LINE",
"490 239 LINE",
"228 239 LINE"
);
}
);
width = 917;
}
);
leftKerningGroup = A;
note = AE;
rightKerningGroup = E;
unicode = 00C6;
},
{
glyphname = AEacute;
lastChange = "2015-10-27 23:55:45 +0000";
layers = (
{
layerId = "C023BAC7-6FF9-47E4-9D72-1131A8F8A065";
name = "Light Italic";
paths = (
{
closed = 1;
nodes = (
"48 0 LINE",
"210 215 LINE",
"485 215 LINE",
"440 0 LINE",
"817 0 LINE",
"822 24 LINE",
"473 24 LINE",
"539 338 LINE",
"792 338 LINE",
"797 362 LINE",
"544 362 LINE",
"611 675 LINE",
"960 675 LINE",
"965 699 LINE",
"549 699 LINE",
"20 0 LINE"
);
},
{
closed = 1;
nodes = (
"559 675 LINE",
"583 675 LINE",
"490 239 LINE",
"228 239 LINE"
);
},
{
closed = 1;
nodes = (
"640 784 LINE",
"753 951 LINE",
"725 951 LINE",
"618 784 LINE"
);
}
);
width = 917;
}
);
leftKerningGroup = A;
note = AEacute;
rightKerningGroup = E;
unicode = 01FC;
},
{
glyphname = B;
lastChange = "2015-10-27 23:55:44 +0000";
layers = (
{
layerId = "C023BAC7-6FF9-47E4-9D72-1131A8F8A065";
name = "Light Italic";
paths = (
{
closed = 1;
nodes = (
"346 0 LINE SMOOTH",
"453 0 OFFCURVE",
"538 67 OFFCURVE",
"564 184 CURVE SMOOTH",
"585 278 OFFCURVE",
"544 343 OFFCURVE",
"473 358 CURVE",
"532 380 OFFCURVE",
"593 438 OFFCURVE",
"610 521 CURVE SMOOTH",
"636 642 OFFCURVE",
"585 699 OFFCURVE",
"476 699 CURVE SMOOTH",
"188 699 LINE",
"40 0 LINE"
);
},
{
closed = 1;
nodes = (
"141 346 LINE",
"405 346 LINE SMOOTH",
"510 346 OFFCURVE",
"562 298 OFFCURVE",
"538 184 CURVE SMOOTH",
"513 67 OFFCURVE",
"419 24 OFFCURVE",
"344 24 CURVE SMOOTH",
"73 24 LINE"
);
},
{
closed = 1;
nodes = (
"211 675 LINE",
"475 675 LINE SMOOTH",
"557 675 OFFCURVE",
"610 641 OFFCURVE",
"584 521 CURVE SMOOTH",
"564 424 OFFCURVE",
"488 370 OFFCURVE",
"421 370 CURVE SMOOTH",
"146 370 LINE"
);
}
);
width = 625;
}
);
note = B;
unicode = 0042;
},
{
glyphname = C;
lastChange = "2015-10-27 23:55:45 +0000";
layers = (
{
layerId = "C023BAC7-6FF9-47E4-9D72-1131A8F8A065";
name = "Light Italic";
paths = (
{
closed = 1;
nodes = (
"476 -15 OFFCURVE",
"566 9 OFFCURVE",
"643 72 CURVE",
"649 103 LINE",
"567 34 OFFCURVE",
"480 9 OFFCURVE",
"382 9 CURVE SMOOTH",
"192 9 OFFCURVE",
"75 139 OFFCURVE",
"120 349 CURVE SMOOTH",
"164 558 OFFCURVE",
"340 690 OFFCURVE",
"527 690 CURVE SMOOTH",
"618 690 OFFCURVE",
"696 664 OFFCURVE",
"746 603 CURVE",
"753 632 LINE",
"702 687 OFFCURVE",
"626 714 OFFCURVE",
"532 714 CURVE SMOOTH",
"322 714 OFFCURVE",
"143 567 OFFCURVE",
"94 349 CURVE SMOOTH",
"46 137 OFFCURVE",
"172 -15 OFFCURVE",
"377 -15 CURVE SMOOTH"
);
}
);
width = 728;
}
);
leftKerningGroup = C;
note = C;
rightKerningGroup = C;
unicode = 0043;
},
{
glyphname = Cacute;
lastChange = "2015-10-27 23:55:46 +0000";
layers = (
{
layerId = "C023BAC7-6FF9-47E4-9D72-1131A8F8A065";
name = "Light Italic";
paths = (
{
closed = 1;
nodes = (
"476 -15 OFFCURVE",
"566 9 OFFCURVE",
"643 72 CURVE",
"649 103 LINE",
"567 34 OFFCURVE",
"480 9 OFFCURVE",
"382 9 CURVE SMOOTH",
"192 9 OFFCURVE",
"75 139 OFFCURVE",
"120 349 CURVE SMOOTH",
"164 558 OFFCURVE",
"340 690 OFFCURVE",
"527 690 CURVE SMOOTH",
"618 690 OFFCURVE",
"696 664 OFFCURVE",
"746 603 CURVE",
"753 632 LINE",
"702 687 OFFCURVE",
"626 714 OFFCURVE",
"532 714 CURVE SMOOTH",
"322 714 OFFCURVE",
"143 567 OFFCURVE",
"94 349 CURVE SMOOTH",
"46 137 OFFCURVE",
"172 -15 OFFCURVE",
"377 -15 CURVE SMOOTH"
);
},
{
closed = 1;
nodes = (
"529 792 LINE",
"642 959 LINE",
"614 959 LINE",
"507 792 LINE"
);
}
);
width = 728;
}
);
leftKerningGroup = C;
note = Cacute;
rightKerningGroup = C;
unicode = 0106;
},
{
glyphname = Ccaron;
lastChange = "2015-10-27 23:55:46 +0000";
layers = (
{
layerId = "C023BAC7-6FF9-47E4-9D72-1131A8F8A065";
name = "Light Italic";
paths = (
{
closed = 1;
nodes = (
"476 -15 OFFCURVE",
"566 9 OFFCURVE",
"643 72 CURVE",
"649 103 LINE",
"567 34 OFFCURVE",
"480 9 OFFCURVE",
"382 9 CURVE SMOOTH",
"192 9 OFFCURVE",
"75 139 OFFCURVE",
"120 349 CURVE SMOOTH",
"164 558 OFFCURVE",
"340 690 OFFCURVE",
"527 690 CURVE SMOOTH",
"618 690 OFFCURVE",
"696 664 OFFCURVE",
"746 603 CURVE",
"753 632 LINE",
"702 687 OFFCURVE",
"626 714 OFFCURVE",
"532 714 CURVE SMOOTH",
"322 714 OFFCURVE",
"143 567 OFFCURVE",
"94 349 CURVE SMOOTH",
"46 137 OFFCURVE",
"172 -15 OFFCURVE",
"377 -15 CURVE SMOOTH"
);
},
{
closed = 1;
nodes = (
"557 798 LINE",
"717 949 LINE",
"684 949 LINE",
"548 820 LINE",
"468 949 LINE",
"439 949 LINE",
"535 798 LINE"
);
}
);
width = 728;
}
);
leftKerningGroup = C;
note = Ccaron;
rightKerningGroup = C;
unicode = 010C;
},
{
glyphname = Ccedilla;
lastChange = "2015-10-27 23:55:46 +0000";
layers = (
{
layerId = "C023BAC7-6FF9-47E4-9D72-1131A8F8A065";
name = "Light Italic";
paths = (
{
closed = 1;
nodes = (
"388 -248 OFFCURVE",
"428 -212 OFFCURVE",
"439 -162 CURVE SMOOTH",
"449 -113 OFFCURVE",
"427 -77 OFFCURVE",
"362 -74 CURVE",
"397 -15 LINE",
"488 -12 OFFCURVE",
"571 13 OFFCURVE",
"643 72 CURVE",
"649 103 LINE",
"567 34 OFFCURVE",
"480 9 OFFCURVE",
"382 9 CURVE SMOOTH",
"192 9 OFFCURVE",
"75 139 OFFCURVE",
"120 349 CURVE SMOOTH",
"164 558 OFFCURVE",
"340 690 OFFCURVE",
"527 690 CURVE SMOOTH",
"618 690 OFFCURVE",
"696 664 OFFCURVE",
"746 603 CURVE",
"753 632 LINE",
"702 687 OFFCURVE",
"626 714 OFFCURVE",
"532 714 CURVE SMOOTH",
"322 714 OFFCURVE",
"143 567 OFFCURVE",
"94 349 CURVE SMOOTH",
"46 139 OFFCURVE",
"169 -11 OFFCURVE",
"369 -14 CURVE",
"323 -93 LINE",
"404 -93 OFFCURVE",
"423 -117 OFFCURVE",
"413 -161 CURVE SMOOTH",
"404 -205 OFFCURVE",
"372 -224 OFFCURVE",
"324 -224 CURVE SMOOTH",
"306 -224 OFFCURVE",
"282 -221 OFFCURVE",
"271 -216 CURVE",
"265 -240 LINE",
"276 -244 OFFCURVE",
"299 -248 OFFCURVE",
"319 -248 CURVE SMOOTH"
);
}
);
width = 728;
}
);
leftKerningGroup = C;
note = Ccedilla;
rightKerningGroup = C;
unicode = 00C7;
},
{
glyphname = Ccircumflex;
lastChange = "2015-10-27 23:55:45 +0000";
layers = (
{
layerId = "C023BAC7-6FF9-47E4-9D72-1131A8F8A065";
name = "Light Italic";
paths = (
{
closed = 1;
nodes = (
"476 -15 OFFCURVE",
"566 9 OFFCURVE",
"643 72 CURVE",
"649 103 LINE",
"567 34 OFFCURVE",
"480 9 OFFCURVE",
"382 9 CURVE SMOOTH",
"192 9 OFFCURVE",
"75 139 OFFCURVE",
"120 349 CURVE SMOOTH",
"164 558 OFFCURVE",
"340 690 OFFCURVE",
"527 690 CURVE SMOOTH",
"618 690 OFFCURVE",
"696 664 OFFCURVE",
"746 603 CURVE",
"753 632 LINE",
"702 687 OFFCURVE",
"626 714 OFFCURVE",
"532 714 CURVE SMOOTH",
"322 714 OFFCURVE",
"143 567 OFFCURVE",
"94 349 CURVE SMOOTH",
"46 137 OFFCURVE",
"172 -15 OFFCURVE",
"377 -15 CURVE SMOOTH"
);
},
{
closed = 1;
nodes = (
"433 786 LINE",
"568 915 LINE",
"649 786 LINE",
"678 786 LINE",
"582 937 LINE",
"560 937 LINE",
"401 786 LINE"
);
}
);
width = 728;
}
);
leftKerningGroup = C;
note = Ccircumflex;
rightKerningGroup = C;
unicode = 0108;
},
{
glyphname = Cdotaccent;
lastChange = "2015-10-27 23:55:45 +0000";
layers = (
{
layerId = "C023BAC7-6FF9-47E4-9D72-1131A8F8A065";
name = "Light Italic";
paths = (
{
closed = 1;
nodes = (
"476 -15 OFFCURVE",
"566 9 OFFCURVE",
"643 72 CURVE",
"649 103 LINE",
"567 34 OFFCURVE",
"480 9 OFFCURVE",
"382 9 CURVE SMOOTH",
"192 9 OFFCURVE",
"75 139 OFFCURVE",
"120 349 CURVE SMOOTH",
"164 558 OFFCURVE",
"340 690 OFFCURVE",
"527 690 CURVE SMOOTH",
"618 690 OFFCURVE",
"696 664 OFFCURVE",
"746 603 CURVE",
"753 632 LINE",
"702 687 OFFCURVE",
"626 714 OFFCURVE",
"532 714 CURVE SMOOTH",
"322 714 OFFCURVE",
"143 567 OFFCURVE",
"94 349 CURVE SMOOTH",
"46 137 OFFCURVE",
"172 -15 OFFCURVE",
"377 -15 CURVE SMOOTH"
);
},
{
closed = 1;
nodes = (
"569 802 OFFCURVE",
"584 815 OFFCURVE",
"588 830 CURVE",
"591 845 OFFCURVE",
"580 858 OFFCURVE",
"565 858 CURVE SMOOTH",
"550 858 OFFCURVE",
"535 845 OFFCURVE",
"532 830 CURVE",
"528 815 OFFCURVE",
"539 802 OFFCURVE",
"554 802 CURVE SMOOTH"
);
}
);
width = 728;
}
);
leftKerningGroup = C;
note = Cdotaccent;
rightKerningGroup = C;
unicode = 010A;
},
{
glyphname = D;
lastChange = "2015-10-27 23:55:45 +0000";
layers = (
{
layerId = "C023BAC7-6FF9-47E4-9D72-1131A8F8A065";
name = "Light Italic";
paths = (
{
closed = 1;
nodes = (
"218 0 LINE SMOOTH",
"467 0 OFFCURVE",
"619 114 OFFCURVE",
"671 353 CURVE SMOOTH",
"717 566 OFFCURVE",
"611 699 OFFCURVE",
"387 699 CURVE SMOOTH",
"188 699 LINE",
"40 0 LINE"
);
},
{
closed = 1;
nodes = (
"211 675 LINE",
"377 675 LINE SMOOTH",
"599 675 OFFCURVE",
"688 556 OFFCURVE",
"645 353 CURVE SMOOTH",
"599 137 OFFCURVE",
"456 24 OFFCURVE",
"211 24 CURVE SMOOTH",
"73 24 LINE"
);
}
);
width = 696;
}
);
note = D;
rightKerningGroup = D;
unicode = 0044;
},
{
glyphname = Eth;
lastChange = "2015-10-27 23:55:45 +0000";
layers = (
{
layerId = "C023BAC7-6FF9-47E4-9D72-1131A8F8A065";
name = "Light Italic";
paths = (
{
closed = 1;
nodes = (
"256 0 LINE SMOOTH",
"505 0 OFFCURVE",
"659 117 OFFCURVE",
"710 353 CURVE SMOOTH",
"755 566 OFFCURVE",
"650 699 OFFCURVE",
"426 699 CURVE SMOOTH",
"227 699 LINE",
"155 361 LINE",
"76 361 LINE",
"71 337 LINE",
"150 337 LINE",
"79 0 LINE"
);
},
{
closed = 1;
nodes = (
"178 337 LINE",
"404 337 LINE",
"409 361 LINE",
"183 361 LINE",
"250 675 LINE",
"416 675 LINE SMOOTH",
"638 675 OFFCURVE",
"727 556 OFFCURVE",
"684 353 CURVE SMOOTH",
"638 137 OFFCURVE",
"495 24 OFFCURVE",
"250 24 CURVE SMOOTH",
"112 24 LINE"
);
}
);
width = 715;
}
);
note = Eth;
rightKerningGroup = D;
unicode = 00D0;
},
{
glyphname = Dcaron;
lastChange = "2015-10-27 23:55:46 +0000";
layers = (
{
layerId = "C023BAC7-6FF9-47E4-9D72-1131A8F8A065";
name = "Light Italic";
paths = (
{
closed = 1;
nodes = (
"218 0 LINE SMOOTH",
"467 0 OFFCURVE",
"619 114 OFFCURVE",
"671 353 CURVE SMOOTH",
"717 566 OFFCURVE",
"611 699 OFFCURVE",
"387 699 CURVE SMOOTH",
"188 699 LINE",
"40 0 LINE"
);
},
{
closed = 1;
nodes = (
"211 675 LINE",
"377 675 LINE SMOOTH",
"599 675 OFFCURVE",
"688 556 OFFCURVE",
"645 353 CURVE SMOOTH",
"599 137 OFFCURVE",
"456 24 OFFCURVE",
"211 24 CURVE SMOOTH",
"73 24 LINE"
);
},
{
closed = 1;
nodes = (
"423 798 LINE",
"583 949 LINE",
"550 949 LINE",
"414 820 LINE",
"334 949 LINE",
"305 949 LINE",
"401 798 LINE"
);
}
);
width = 696;
}
);
note = Dcaron;
rightKerningGroup = D;
unicode = 010E;
},
{
glyphname = Dcroat;
lastChange = "2015-10-27 23:55:45 +0000";
layers = (
{
layerId = "C023BAC7-6FF9-47E4-9D72-1131A8F8A065";
name = "Light Italic";
paths = (
{
closed = 1;
nodes = (
"246 0 LINE SMOOTH",
"491 0 OFFCURVE",
"649 117 OFFCURVE",
"700 353 CURVE SMOOTH",
"745 566 OFFCURVE",
"640 699 OFFCURVE",
"416 699 CURVE SMOOTH",
"217 699 LINE",
"145 361 LINE",
"66 361 LINE",
"61 337 LINE",
"140 337 LINE",
"69 0 LINE"
);
},
{
closed = 1;
nodes = (
"168 337 LINE",
"394 337 LINE",
"399 361 LINE",
"173 361 LINE",
"240 675 LINE",
"404 675 LINE SMOOTH",
"626 675 OFFCURVE",
"717 556 OFFCURVE",
"674 353 CURVE SMOOTH",
"628 137 OFFCURVE",
"485 24 OFFCURVE",
"240 24 CURVE SMOOTH",
"102 24 LINE"
);
}
);
width = 725;
}
);
note = Dcroat;
rightKerningGroup = D;
unicode = 0110;
},
{
glyphname = Ddotbelow;
lastChange = "2015-10-27 23:55:45 +0000";
layers = (
{
layerId = "C023BAC7-6FF9-47E4-9D72-1131A8F8A065";
name = "Light Italic";
paths = (
{
closed = 1;
nodes = (
"218 0 LINE SMOOTH",
"467 0 OFFCURVE",
"619 114 OFFCURVE",
"671 353 CURVE SMOOTH",
"717 566 OFFCURVE",
"611 699 OFFCURVE",
"387 699 CURVE SMOOTH",
"188 699 LINE",
"40 0 LINE"
);
},
{
closed = 1;
nodes = (
"224 -121 OFFCURVE",
"239 -108 OFFCURVE",
"242 -93 CURVE SMOOTH",
"245 -78 OFFCURVE",
"235 -65 OFFCURVE",
"221 -65 CURVE SMOOTH",
"206 -65 OFFCURVE",
"190 -78 OFFCURVE",
"187 -93 CURVE SMOOTH",
"184 -108 OFFCURVE",
"194 -121 OFFCURVE",
"209 -121 CURVE SMOOTH"
);
},
{
closed = 1;
nodes = (
"211 675 LINE",
"377 675 LINE SMOOTH",
"599 675 OFFCURVE",
"688 556 OFFCURVE",
"645 353 CURVE SMOOTH",
"599 137 OFFCURVE",
"456 24 OFFCURVE",
"211 24 CURVE SMOOTH",
"73 24 LINE"
);
}
);
width = 696;
}
);
note = Ddotbelow;
rightKerningGroup = D;
unicode = 1E0C;
},
{
glyphname = Dlinebelow;
lastChange = "2015-10-27 23:55:45 +0000";
layers = (
{
layerId = "C023BAC7-6FF9-47E4-9D72-1131A8F8A065";
name = "Light Italic";
paths = (
{
closed = 1;
nodes = (
"218 0 LINE SMOOTH",
"467 0 OFFCURVE",
"619 114 OFFCURVE",
"671 353 CURVE SMOOTH",
"717 566 OFFCURVE",
"611 699 OFFCURVE",
"387 699 CURVE SMOOTH",
"188 699 LINE",
"40 0 LINE"
);
},
{
closed = 1;
nodes = (
"329 -110 LINE",
"334 -86 LINE",
"57 -86 LINE",
"52 -110 LINE"
);
},
{
closed = 1;
nodes = (
"211 675 LINE",
"377 675 LINE SMOOTH",
"599 675 OFFCURVE",
"688 556 OFFCURVE",
"645 353 CURVE SMOOTH",
"599 137 OFFCURVE",
"456 24 OFFCURVE",
"211 24 CURVE SMOOTH",
"73 24 LINE"
);
}
);
width = 696;
}
);
note = Dlinebelow;
rightKerningGroup = D;
unicode = 1E0E;
},
{
glyphname = E;
lastChange = "2015-10-27 23:55:45 +0000";
layers = (
{
layerId = "C023BAC7-6FF9-47E4-9D72-1131A8F8A065";
name = "Light Italic";
paths = (
{
closed = 1;
nodes = (
"467 0 LINE",
"472 24 LINE",
"73 24 LINE",
"139 338 LINE",
"442 338 LINE",
"447 362 LINE",
"144 362 LINE",
"211 675 LINE",
"610 675 LINE",
"615 699 LINE",
"188 699 LINE",
"40 0 LINE"
);
}
);
width = 557;
}
);
leftKerningGroup = E;
note = E;
rightKerningGroup = E;
unicode = 0045;
},
{
glyphname = Eacute;
lastChange = "2015-10-27 23:55:45 +0000";
layers = (
{
layerId = "C023BAC7-6FF9-47E4-9D72-1131A8F8A065";
name = "Light Italic";
paths = (
{
closed = 1;
nodes = (
"467 0 LINE",
"472 24 LINE",
"73 24 LINE",
"139 338 LINE",
"442 338 LINE",
"447 362 LINE",
"144 362 LINE",
"211 675 LINE",
"610 675 LINE",
"615 699 LINE",
"188 699 LINE",
"40 0 LINE"
);
},
{
closed = 1;
nodes = (
"391 792 LINE",
"504 959 LINE",
"476 959 LINE",
"369 792 LINE"
);
}
);
width = 557;
}
);
leftKerningGroup = E;
note = Eacute;
rightKerningGroup = E;
unicode = 00C9;
},
{
glyphname = Ebreve;
lastChange = "2015-10-27 23:55:44 +0000";
layers = (
{
layerId = "C023BAC7-6FF9-47E4-9D72-1131A8F8A065";
name = "Light Italic";
paths = (
{
closed = 1;
nodes = (
"467 0 LINE",
"472 24 LINE",
"73 24 LINE",
"139 338 LINE",
"442 338 LINE",
"447 362 LINE",
"144 362 LINE",
"211 675 LINE",
"610 675 LINE",
"615 699 LINE",
"188 699 LINE",
"40 0 LINE"
);
},
{
closed = 1;
nodes = (
"476 770 OFFCURVE",
"534 818 OFFCURVE",
"547 878 CURVE",
"521 878 LINE",
"511 830 OFFCURVE",
"468 793 OFFCURVE",
"409 793 CURVE SMOOTH",
"351 793 OFFCURVE",
"323 830 OFFCURVE",
"333 878 CURVE",
"311 878 LINE",
"298 818 OFFCURVE",
"336 770 OFFCURVE",
"406 770 CURVE SMOOTH"
);
}
);
width = 567;
}
);
leftKerningGroup = E;
note = Ebreve;
rightKerningGroup = E;
unicode = 0114;
},
{
glyphname = Ecaron;
lastChange = "2015-10-27 23:55:45 +0000";
layers = (
{
layerId = "C023BAC7-6FF9-47E4-9D72-1131A8F8A065";
name = "Light Italic";
paths = (
{
closed = 1;
nodes = (
"467 0 LINE",
"472 24 LINE",
"73 24 LINE",
"139 338 LINE",
"442 338 LINE",
"447 362 LINE",
"144 362 LINE",
"211 675 LINE",
"610 675 LINE",
"615 699 LINE",
"188 699 LINE",
"40 0 LINE"
);
},
{
closed = 1;
nodes = (
"413 798 LINE",
"573 949 LINE",
"540 949 LINE",
"404 820 LINE",
"324 949 LINE",
"295 949 LINE",
"391 798 LINE"
);
}
);
width = 567;
}
);
leftKerningGroup = E;
note = Ecaron;
rightKerningGroup = E;
unicode = 011A;
},
{
glyphname = Ecircumflex;
lastChange = "2015-10-27 23:55:44 +0000";
layers = (
{
layerId = "C023BAC7-6FF9-47E4-9D72-1131A8F8A065";
name = "Light Italic";
paths = (
{
closed = 1;
nodes = (
"467 0 LINE",
"472 24 LINE",
"73 24 LINE",
"139 338 LINE",
"442 338 LINE",
"447 362 LINE",
"144 362 LINE",
"211 675 LINE",
"610 675 LINE",
"615 699 LINE",
"188 699 LINE",
"40 0 LINE"
);
},
{
closed = 1;
nodes = (
"309 774 LINE",
"444 903 LINE",
"525 774 LINE",
"554 774 LINE",
"458 925 LINE",
"436 925 LINE",
"277 774 LINE"
);
}
);
width = 567;
}
);
leftKerningGroup = E;
note = Ecircumflex;
rightKerningGroup = E;
unicode = 00CA;
},
{
glyphname = Ecircumflexacute;
lastChange = "2015-10-27 23:55:46 +0000";
layers = (
{
layerId = "C023BAC7-6FF9-47E4-9D72-1131A8F8A065";
name = "Light Italic";
paths = (
{
closed = 1;
nodes = (
"467 0 LINE",
"472 24 LINE",
"73 24 LINE",
"139 338 LINE",
"442 338 LINE",
"447 362 LINE",
"144 362 LINE",
"211 675 LINE",
"610 675 LINE",
"615 699 LINE",
"188 699 LINE",
"40 0 LINE"
);
},
{
closed = 1;
nodes = (
"288 757 LINE",
"417 859 LINE",
"504 757 LINE",
"535 757 LINE",
"432 878 LINE",
"410 878 LINE",
"257 757 LINE"
);
},
{
closed = 1;
nodes = (
"517 840 LINE",
"610 948 LINE",
"582 948 LINE",
"495 840 LINE"
);
}
);
width = 567;
}
);
leftKerningGroup = E;
note = Ecircumflexacute;
rightKerningGroup = E;
unicode = 1EBE;
},
{
glyphname = Ecircumflexdotbelow;
lastChange = "2015-10-27 23:55:45 +0000";
layers = (
{
layerId = "C023BAC7-6FF9-47E4-9D72-1131A8F8A065";
name = "Light Italic";
paths = (
{
closed = 1;
nodes = (
"467 0 LINE",
"472 24 LINE",
"73 24 LINE",
"139 338 LINE",
"442 338 LINE",
"447 362 LINE",
"144 362 LINE",
"211 675 LINE",
"610 675 LINE",
"615 699 LINE",
"188 699 LINE",
"40 0 LINE"
);
},
{
closed = 1;
nodes = (
"233 -121 OFFCURVE",
"248 -108 OFFCURVE",
"251 -93 CURVE SMOOTH",
"254 -78 OFFCURVE",
"244 -65 OFFCURVE",
"230 -65 CURVE SMOOTH",
"215 -65 OFFCURVE",
"199 -78 OFFCURVE",
"196 -93 CURVE SMOOTH",
"193 -108 OFFCURVE",
"203 -121 OFFCURVE",
"218 -121 CURVE SMOOTH"
);
},
{
closed = 1;
nodes = (
"303 784 LINE",
"438 913 LINE",
"519 784 LINE",
"548 784 LINE",
"452 935 LINE",
"430 935 LINE",
"271 784 LINE"
);
}
);
width = 567;
}
);
leftKerningGroup = E;
note = Ecircumflexdotbelow;
rightKerningGroup = E;
unicode = 1EC6;
},
{
glyphname = Ecircumflexgrave;
lastChange = "2015-10-27 23:55:45 +0000";
layers = (
{
layerId = "C023BAC7-6FF9-47E4-9D72-1131A8F8A065";
name = "Light Italic";
paths = (
{
closed = 1;
nodes = (
"467 0 LINE",
"472 24 LINE",
"73 24 LINE",
"139 338 LINE",
"442 338 LINE",
"447 362 LINE",
"144 362 LINE",
"211 675 LINE",
"610 675 LINE",
"615 699 LINE",
"188 699 LINE",
"40 0 LINE"
);
},
{
closed = 1;
nodes = (
"350 840 LINE",
"308 948 LINE",
"280 948 LINE",
"328 840 LINE"
);
},
{
closed = 1;
nodes = (
"307 757 LINE",
"436 859 LINE",
"523 757 LINE",
"553 757 LINE",
"451 878 LINE",
"429 878 LINE",
"276 757 LINE"
);
}
);
width = 567;
}
);
leftKerningGroup = E;
note = Ecircumflexgrave;
rightKerningGroup = E;
unicode = 1EC0;
},
{
glyphname = Ecircumflexhookabove;
lastChange = "2015-10-27 23:55:45 +0000";
layers = (
{
layerId = "C023BAC7-6FF9-47E4-9D72-1131A8F8A065";
name = "Light Italic";
paths = (
{
closed = 1;
nodes = (
"467 0 LINE",
"472 24 LINE",
"73 24 LINE",
"139 338 LINE",
"442 338 LINE",
"447 362 LINE",
"144 362 LINE",
"211 675 LINE",
"610 675 LINE",
"615 699 LINE",
"188 699 LINE",
"40 0 LINE"
);
},
{
closed = 1;
nodes = (
"299 757 LINE",
"428 859 LINE",
"515 757 LINE",
"545 757 LINE",
"443 878 LINE",
"421 878 LINE",
"268 757 LINE"
);
},
{
closed = 1;
nodes = (
"527 830 LINE",
"533 857 LINE",
"576 859 OFFCURVE",
"607 882 OFFCURVE",
"615 917 CURVE",
"622 954 OFFCURVE",
"607 979 OFFCURVE",
"558 979 CURVE SMOOTH",
"540 979 OFFCURVE",
"520 975 OFFCURVE",
"508 971 CURVE",
"503 948 LINE",
"515 953 OFFCURVE",
"536 957 OFFCURVE",
"553 957 CURVE SMOOTH",
"583 957 OFFCURVE",
"597 947 OFFCURVE",
"591 917 CURVE SMOOTH",
"584 886 OFFCURVE",
"563 875 OFFCURVE",
"516 875 CURVE",
"506 830 LINE"
);
}
);
width = 567;
}
);
leftKerningGroup = E;
note = Ecircumflexhookabove;
rightKerningGroup = E;
unicode = 1EC2;
},
{
glyphname = Ecircumflextilde;
lastChange = "2015-10-27 23:55:44 +0000";
layers = (
{
layerId = "C023BAC7-6FF9-47E4-9D72-1131A8F8A065";
name = "Light Italic";
paths = (
{
closed = 1;
nodes = (
"467 0 LINE",
"472 24 LINE",
"73 24 LINE",
"139 338 LINE",
"442 338 LINE",
"447 362 LINE",
"144 362 LINE",
"211 675 LINE",
"610 675 LINE",
"615 699 LINE",
"188 699 LINE",
"40 0 LINE"
);
},
{
closed = 1;
nodes = (
"300 757 LINE",
"429 859 LINE",
"516 757 LINE",
"546 757 LINE",
"444 878 LINE",
"422 878 LINE",
"269 757 LINE"
);
},
{
closed = 1;
nodes = (
"540 891 OFFCURVE",
"563 902 OFFCURVE",
"583 928 CURVE",
"589 958 LINE",
"563 923 OFFCURVE",
"541 913 OFFCURVE",
"512 913 CURVE SMOOTH",
"470 913 OFFCURVE",
"425 959 OFFCURVE",
"380 959 CURVE SMOOTH",
"346 959 OFFCURVE",
"322 948 OFFCURVE",
"303 922 CURVE",
"296 892 LINE",
"325 927 OFFCURVE",
"345 937 OFFCURVE",
"375 937 CURVE SMOOTH",
"416 937 OFFCURVE",
"458 891 OFFCURVE",
"507 891 CURVE SMOOTH"
);
}
);
width = 567;
}
);
leftKerningGroup = E;
note = Ecircumflextilde;
rightKerningGroup = E;
unicode = 1EC4;
},
{
glyphname = Edieresis;
lastChange = "2015-10-27 23:55:45 +0000";
layers = (
{
layerId = "C023BAC7-6FF9-47E4-9D72-1131A8F8A065";
name = "Light Italic";
paths = (
{
closed = 1;
nodes = (
"467 0 LINE",
"472 24 LINE",
"73 24 LINE",
"139 338 LINE",
"442 338 LINE",
"447 362 LINE",
"144 362 LINE",
"211 675 LINE",
"610 675 LINE",
"615 699 LINE",
"188 699 LINE",
"40 0 LINE"
);
},
{
closed = 1;
nodes = (
"320 802 OFFCURVE",
"335 815 OFFCURVE",
"339 830 CURVE",
"342 845 OFFCURVE",
"331 858 OFFCURVE",
"316 858 CURVE SMOOTH",
"301 858 OFFCURVE",
"286 845 OFFCURVE",
"283 830 CURVE",
"279 815 OFFCURVE",
"290 802 OFFCURVE",
"305 802 CURVE SMOOTH"
);
},
{
closed = 1;
nodes = (
"518 802 OFFCURVE",
"533 815 OFFCURVE",
"537 830 CURVE",
"540 845 OFFCURVE",
"529 858 OFFCURVE",
"514 858 CURVE SMOOTH",
"499 858 OFFCURVE",
"484 845 OFFCURVE",
"481 830 CURVE",
"477 815 OFFCURVE",
"488 802 OFFCURVE",
"503 802 CURVE SMOOTH"
);
}
);
width = 567;
}
);
leftKerningGroup = E;
note = Edieresis;
rightKerningGroup = E;
unicode = 00CB;
},
{
glyphname = Edotaccent;
lastChange = "2015-10-27 23:55:44 +0000";
layers = (
{
layerId = "C023BAC7-6FF9-47E4-9D72-1131A8F8A065";
name = "Light Italic";
paths = (
{
closed = 1;
nodes = (
"467 0 LINE",
"472 24 LINE",
"73 24 LINE",
"139 338 LINE",
"442 338 LINE",
"447 362 LINE",
"144 362 LINE",
"211 675 LINE",
"610 675 LINE",
"615 699 LINE",
"188 699 LINE",
"40 0 LINE"
);
},
{
closed = 1;
nodes = (
"418 802 OFFCURVE",
"433 815 OFFCURVE",
"437 830 CURVE",
"440 845 OFFCURVE",
"429 858 OFFCURVE",
"414 858 CURVE SMOOTH",
"399 858 OFFCURVE",
"384 845 OFFCURVE",
"381 830 CURVE",
"377 815 OFFCURVE",
"388 802 OFFCURVE",
"403 802 CURVE SMOOTH"
);
}
);
width = 567;
}
);
leftKerningGroup = E;
note = Edotaccent;
rightKerningGroup = E;
unicode = 0116;
},
{
glyphname = Edotbelow;
lastChange = "2015-10-27 23:55:45 +0000";
layers = (
{
layerId = "C023BAC7-6FF9-47E4-9D72-1131A8F8A065";
name = "Light Italic";
paths = (
{
closed = 1;
nodes = (
"467 0 LINE",
"472 24 LINE",
"73 24 LINE",
"139 338 LINE",
"442 338 LINE",
"447 362 LINE",
"144 362 LINE",
"211 675 LINE",
"610 675 LINE",
"615 699 LINE",
"188 699 LINE",
"40 0 LINE"
);
},
{
closed = 1;
nodes = (
"216 -121 OFFCURVE",
"231 -108 OFFCURVE",
"234 -93 CURVE SMOOTH",
"237 -78 OFFCURVE",
"227 -65 OFFCURVE",
"213 -65 CURVE SMOOTH",
"198 -65 OFFCURVE",
"182 -78 OFFCURVE",
"179 -93 CURVE SMOOTH",
"176 -108 OFFCURVE",
"186 -121 OFFCURVE",
"201 -121 CURVE SMOOTH"
);
}
);
width = 567;
}
);
leftKerningGroup = E;
note = Edotbelow;
rightKerningGroup = E;
unicode = 1EB8;
},
{
glyphname = Egrave;
lastChange = "2015-10-27 23:55:44 +0000";
layers = (
{
layerId = "C023BAC7-6FF9-47E4-9D72-1131A8F8A065";
name = "Light Italic";
paths = (
{
closed = 1;
nodes = (
"467 0 LINE",
"472 24 LINE",
"73 24 LINE",
"139 338 LINE",
"442 338 LINE",
"447 362 LINE",
"144 362 LINE",
"211 675 LINE",
"610 675 LINE",
"615 699 LINE",
"188 699 LINE",
"40 0 LINE"
);
},
{
closed = 1;
nodes = (
"429 792 LINE",
"394 959 LINE",
"366 959 LINE",
"407 792 LINE"
);
}
);
width = 567;
}
);
leftKerningGroup = E;
note = Egrave;
rightKerningGroup = E;
unicode = 00C8;
},
{
glyphname = Ehookabove;
lastChange = "2015-10-27 23:55:45 +0000";
layers = (
{
layerId = "C023BAC7-6FF9-47E4-9D72-1131A8F8A065";
name = "Light Italic";
paths = (
{
closed = 1;
nodes = (
"467 0 LINE",
"472 24 LINE",
"73 24 LINE",
"139 338 LINE",
"442 338 LINE",
"447 362 LINE",
"144 362 LINE",
"211 675 LINE",
"610 675 LINE",
"615 699 LINE",
"188 699 LINE",
"40 0 LINE"
);
},
{
closed = 1;
nodes = (
"404 784 LINE",
"413 828 LINE",
"479 831 OFFCURVE",
"518 866 OFFCURVE",
"529 915 CURVE SMOOTH",
"539 965 OFFCURVE",
"513 1001 OFFCURVE",
"444 1001 CURVE SMOOTH",
"424 1001 OFFCURVE",
"399 997 OFFCURVE",
"387 993 CURVE",
"382 969 LINE",
"395 974 OFFCURVE",
"421 977 OFFCURVE",
"439 977 CURVE SMOOTH",
"487 977 OFFCURVE",
"512 958 OFFCURVE",
"502 914 CURVE SMOOTH",
"493 870 OFFCURVE",
"466 847 OFFCURVE",
"394 847 CURVE",
"381 784 LINE"
);
}
);
width = 567;
}
);
leftKerningGroup = E;
note = Ehookabove;
rightKerningGroup = E;
unicode = 1EBA;
},
{
glyphname = Emacron;
lastChange = "2015-10-27 23:55:44 +0000";
layers = (
{
layerId = "C023BAC7-6FF9-47E4-9D72-1131A8F8A065";
name = "Light Italic";
paths = (
{
closed = 1;
nodes = (
"467 0 LINE",
"472 24 LINE",
"73 24 LINE",
"139 338 LINE",
"442 338 LINE",
"447 362 LINE",
"144 362 LINE",
"211 675 LINE",
"610 675 LINE",
"615 699 LINE",
"188 699 LINE",
"40 0 LINE"
);
},
{
closed = 1;
nodes = (
"562 825 LINE",
"568 849 LINE",
"290 849 LINE",
"284 825 LINE"
);
}
);
width = 567;
}
);
leftKerningGroup = E;
note = Emacron;
rightKerningGroup = E;
unicode = 0112;
},
{
glyphname = Eogonek;
lastChange = "2015-10-27 23:55:46 +0000";
layers = (
{
layerId = "C023BAC7-6FF9-47E4-9D72-1131A8F8A065";
name = "Light Italic";
paths = (
{
closed = 1;
nodes = (
"416 -206 OFFCURVE",
"430 -203 OFFCURVE",
"442 -198 CURVE",
"448 -174 LINE",
"434 -179 OFFCURVE",
"418 -182 OFFCURVE",
"401 -182 CURVE SMOOTH",
"370 -182 OFFCURVE",
"349 -164 OFFCURVE",
"357 -125 CURVE SMOOTH",
"367 -76 OFFCURVE",
"408 -36 OFFCURVE",
"462 0 CURVE",
"467 0 LINE",
"472 24 LINE",
"73 24 LINE",
"139 338 LINE",
"442 338 LINE",
"447 362 LINE",
"144 362 LINE",
"211 675 LINE",
"610 675 LINE",
"615 699 LINE",
"188 699 LINE",
"40 0 LINE",
"434 0 LINE",
"387 -27 OFFCURVE",
"342 -73 OFFCURVE",
"331 -125 CURVE SMOOTH",
"319 -179 OFFCURVE",
"353 -206 OFFCURVE",
"396 -206 CURVE SMOOTH"
);
}
);
width = 567;
}
);
leftKerningGroup = E;
note = Eogonek;
rightKerningGroup = E;
unicode = 0118;
},
{
glyphname = Etilde;
lastChange = "2015-10-27 23:55:44 +0000";
layers = (
{
layerId = "C023BAC7-6FF9-47E4-9D72-1131A8F8A065";
name = "Light Italic";
paths = (
{
closed = 1;
nodes = (
"467 0 LINE",
"472 24 LINE",
"73 24 LINE",
"139 338 LINE",
"442 338 LINE",
"447 362 LINE",
"144 362 LINE",
"211 675 LINE",
"610 675 LINE",
"615 699 LINE",
"188 699 LINE",
"40 0 LINE"
);
},
{
closed = 1;
nodes = (
"259 827 OFFCURVE",
"291 838 OFFCURVE",
"324 838 CURVE SMOOTH",
"388 838 OFFCURVE",
"414 788 OFFCURVE",
"487 788 CURVE SMOOTH",
"524 788 OFFCURVE",
"560 800 OFFCURVE",
"586 833 CURVE",
"593 866 LINE",
"559 823 OFFCURVE",
"525 812 OFFCURVE",
"492 812 CURVE SMOOTH",
"427 812 OFFCURVE",
"397 862 OFFCURVE",
"329 862 CURVE SMOOTH",
"292 862 OFFCURVE",
"256 850 OFFCURVE",
"229 817 CURVE",
"222 784 LINE"
);
}
);
width = 567;
}
);
leftKerningGroup = E;
note = Etilde;
rightKerningGroup = E;
unicode = 1EBC;
},
{
glyphname = F;
lastChange = "2015-10-27 23:55:45 +0000";
layers = (
{
layerId = "C023BAC7-6FF9-47E4-9D72-1131A8F8A065";
name = "Light Italic";
paths = (
{
closed = 1;
nodes = (
"68 0 LINE",
"139 338 LINE",
"442 338 LINE",
"447 362 LINE",
"144 362 LINE",
"211 675 LINE",
"610 675 LINE",
"615 699 LINE",
"188 699 LINE",
"40 0 LINE"
);
}
);
width = 547;
}
);
note = F;
unicode = 0046;
},
{
glyphname = G;
lastChange = "2015-10-27 23:55:46 +0000";
layers = (
{
layerId = "C023BAC7-6FF9-47E4-9D72-1131A8F8A065";
name = "Light Italic";
paths = (
{
closed = 1;
nodes = (
"476 -15 OFFCURVE",
"570 8 OFFCURVE",
"643 72 CURVE",
"705 363 LINE",
"500 363 LINE",
"495 339 LINE",
"672 339 LINE",
"616 77 LINE",
"543 28 OFFCURVE",
"471 9 OFFCURVE",
"382 9 CURVE SMOOTH",
"188 9 OFFCURVE",
"75 139 OFFCURVE",
"120 349 CURVE SMOOTH",
"164 558 OFFCURVE",
"340 690 OFFCURVE",
"527 690 CURVE SMOOTH",
"625 690 OFFCURVE",
"696 666 OFFCURVE",
"746 605 CURVE",
"752 635 LINE",
"701 690 OFFCURVE",
"626 714 OFFCURVE",
"532 714 CURVE SMOOTH",
"327 714 OFFCURVE",
"140 568 OFFCURVE",
"94 349 CURVE SMOOTH",
"47 131 OFFCURVE",
"172 -15 OFFCURVE",
"377 -15 CURVE SMOOTH"
);
}
);
width = 728;
}
);
leftKerningGroup = C;
note = G;
unicode = 0047;
},
{
glyphname = Gbreve;
lastChange = "2015-10-27 23:55:44 +0000";
layers = (
{
layerId = "C023BAC7-6FF9-47E4-9D72-1131A8F8A065";
name = "Light Italic";
paths = (
{
closed = 1;
nodes = (
"476 -15 OFFCURVE",
"570 8 OFFCURVE",
"643 72 CURVE",
"705 363 LINE",
"500 363 LINE",
"495 339 LINE",
"672 339 LINE",
"616 77 LINE",
"543 28 OFFCURVE",
"471 9 OFFCURVE",
"382 9 CURVE SMOOTH",
"188 9 OFFCURVE",
"75 139 OFFCURVE",
"120 349 CURVE SMOOTH",
"164 558 OFFCURVE",
"340 690 OFFCURVE",
"527 690 CURVE SMOOTH",
"625 690 OFFCURVE",
"696 666 OFFCURVE",
"746 605 CURVE",
"752 635 LINE",
"701 690 OFFCURVE",
"626 714 OFFCURVE",
"532 714 CURVE SMOOTH",
"327 714 OFFCURVE",
"140 568 OFFCURVE",
"94 349 CURVE SMOOTH",
"47 131 OFFCURVE",
"172 -15 OFFCURVE",
"377 -15 CURVE SMOOTH"
);
},
{
closed = 1;
nodes = (
"593 746 OFFCURVE",
"651 794 OFFCURVE",
"664 854 CURVE",
"638 854 LINE",
"628 806 OFFCURVE",
"585 769 OFFCURVE",
"526 769 CURVE SMOOTH",
"468 769 OFFCURVE",
"440 806 OFFCURVE",
"450 854 CURVE",
"428 854 LINE",
"415 794 OFFCURVE",
"453 746 OFFCURVE",
"523 746 CURVE SMOOTH"
);
}
);
width = 728;
}
);
leftKerningGroup = C;
note = Gbreve;
unicode = 011E;
},
{
glyphname = Gcaron;
lastChange = "2015-10-27 23:55:45 +0000";
layers = (
{
layerId = "C023BAC7-6FF9-47E4-9D72-1131A8F8A065";
name = "Light Italic";
paths = (
{
closed = 1;
nodes = (
"476 -15 OFFCURVE",
"570 8 OFFCURVE",
"643 72 CURVE",
"705 363 LINE",
"500 363 LINE",
"495 339 LINE",
"672 339 LINE",
"616 77 LINE",
"543 28 OFFCURVE",
"471 9 OFFCURVE",
"382 9 CURVE SMOOTH",
"188 9 OFFCURVE",
"75 139 OFFCURVE",
"120 349 CURVE SMOOTH",
"164 558 OFFCURVE",
"340 690 OFFCURVE",
"527 690 CURVE SMOOTH",
"625 690 OFFCURVE",
"696 666 OFFCURVE",
"746 605 CURVE",
"752 635 LINE",
"701 690 OFFCURVE",
"626 714 OFFCURVE",
"532 714 CURVE SMOOTH",
"327 714 OFFCURVE",
"140 568 OFFCURVE",
"94 349 CURVE SMOOTH",
"47 131 OFFCURVE",
"172 -15 OFFCURVE",
"377 -15 CURVE SMOOTH"
);
},
{
closed = 1;
nodes = (
"555 784 LINE",
"715 935 LINE",
"682 935 LINE",
"546 806 LINE",
"466 935 LINE",
"437 935 LINE",
"533 784 LINE"
);
}
);
width = 728;
}
);
leftKerningGroup = C;
note = Gcaron;
unicode = 01E6;
},
{
glyphname = Gcircumflex;
lastChange = "2015-10-27 23:55:45 +0000";
layers = (
{
layerId = "C023BAC7-6FF9-47E4-9D72-1131A8F8A065";
name = "Light Italic";
paths = (
{
closed = 1;
nodes = (
"476 -15 OFFCURVE",
"570 8 OFFCURVE",
"643 72 CURVE",
"705 363 LINE",
"500 363 LINE",
"495 339 LINE",
"672 339 LINE",
"616 77 LINE",
"543 28 OFFCURVE",
"471 9 OFFCURVE",
"382 9 CURVE SMOOTH",
"188 9 OFFCURVE",
"75 139 OFFCURVE",
"120 349 CURVE SMOOTH",
"164 558 OFFCURVE",
"340 690 OFFCURVE",
"527 690 CURVE SMOOTH",
"625 690 OFFCURVE",
"696 666 OFFCURVE",
"746 605 CURVE",
"752 635 LINE",
"701 690 OFFCURVE",
"626 714 OFFCURVE",
"532 714 CURVE SMOOTH",
"327 714 OFFCURVE",
"140 568 OFFCURVE",
"94 349 CURVE SMOOTH",
"47 131 OFFCURVE",
"172 -15 OFFCURVE",
"377 -15 CURVE SMOOTH"
);
},
{
closed = 1;
nodes = (
"433 774 LINE",
"568 903 LINE",
"649 774 LINE",
"678 774 LINE",
"582 925 LINE",
"560 925 LINE",
"401 774 LINE"
);
}
);
width = 728;
}
);
leftKerningGroup = C;
note = Gcircumflex;
unicode = 011C;
},
{
glyphname = Gcommaaccent;
lastChange = "2015-10-27 23:55:45 +0000";
layers = (
{
layerId = "C023BAC7-6FF9-47E4-9D72-1131A8F8A065";
name = "Light Italic";
paths = (
{
closed = 1;
nodes = (
"476 -15 OFFCURVE",
"570 8 OFFCURVE",
"643 72 CURVE",
"705 363 LINE",
"500 363 LINE",
"495 339 LINE",
"672 339 LINE",
"616 77 LINE",
"543 28 OFFCURVE",
"471 9 OFFCURVE",
"382 9 CURVE SMOOTH",
"188 9 OFFCURVE",
"75 139 OFFCURVE",
"120 349 CURVE SMOOTH",
"164 558 OFFCURVE",
"340 690 OFFCURVE",
"527 690 CURVE SMOOTH",
"625 690 OFFCURVE",
"696 666 OFFCURVE",
"746 605 CURVE",
"752 635 LINE",
"701 690 OFFCURVE",
"626 714 OFFCURVE",
"532 714 CURVE SMOOTH",
"327 714 OFFCURVE",
"140 568 OFFCURVE",
"94 349 CURVE SMOOTH",
"47 131 OFFCURVE",
"172 -15 OFFCURVE",
"377 -15 CURVE SMOOTH"
);
},
{
closed = 1;
nodes = (
"256 -259 LINE",
"382 -70 LINE",
"351 -70 LINE",
"231 -259 LINE"
);
}
);
width = 728;
}
);
leftKerningGroup = C;
note = Gcommaaccent;
unicode = 0122;
},
{
glyphname = Gdotaccent;
lastChange = "2015-10-27 23:55:45 +0000";
layers = (
{
layerId = "C023BAC7-6FF9-47E4-9D72-1131A8F8A065";
name = "Light Italic";
paths = (
{
closed = 1;
nodes = (
"476 -15 OFFCURVE",
"570 8 OFFCURVE",
"643 72 CURVE",
"705 363 LINE",
"500 363 LINE",
"495 339 LINE",
"672 339 LINE",
"616 77 LINE",
"543 28 OFFCURVE",
"471 9 OFFCURVE",
"382 9 CURVE SMOOTH",
"188 9 OFFCURVE",
"75 139 OFFCURVE",
"120 349 CURVE SMOOTH",
"164 558 OFFCURVE",
"340 690 OFFCURVE",
"527 690 CURVE SMOOTH",
"625 690 OFFCURVE",
"696 666 OFFCURVE",
"746 605 CURVE",
"752 635 LINE",
"701 690 OFFCURVE",
"626 714 OFFCURVE",
"532 714 CURVE SMOOTH",
"327 714 OFFCURVE",
"140 568 OFFCURVE",
"94 349 CURVE SMOOTH",
"47 131 OFFCURVE",
"172 -15 OFFCURVE",
"377 -15 CURVE SMOOTH"
);
},
{
closed = 1;
nodes = (
"552 763 OFFCURVE",
"567 776 OFFCURVE",
"571 791 CURVE",
"574 806 OFFCURVE",
"563 819 OFFCURVE",
"548 819 CURVE SMOOTH",
"533 819 OFFCURVE",
"518 806 OFFCURVE",
"515 791 CURVE",
"511 776 OFFCURVE",
"522 763 OFFCURVE",
"537 763 CURVE SMOOTH"
);
}
);
width = 728;
}
);
leftKerningGroup = C;
note = Gdotaccent;
unicode = 0120;
},
{
glyphname = Gmacron;
lastChange = "2015-10-27 23:55:45 +0000";
layers = (
{
layerId = "C023BAC7-6FF9-47E4-9D72-1131A8F8A065";
name = "Light Italic";
paths = (
{
closed = 1;
nodes = (
"476 -15 OFFCURVE",
"570 8 OFFCURVE",
"643 72 CURVE",
"705 363 LINE",
"500 363 LINE",
"495 339 LINE",
"672 339 LINE",
"616 77 LINE",
"543 28 OFFCURVE",
"471 9 OFFCURVE",
"382 9 CURVE SMOOTH",
"188 9 OFFCURVE",
"75 139 OFFCURVE",
"120 349 CURVE SMOOTH",
"164 558 OFFCURVE",
"340 690 OFFCURVE",
"527 690 CURVE SMOOTH",
"625 690 OFFCURVE",
"696 666 OFFCURVE",
"746 605 CURVE",
"752 635 LINE",
"701 690 OFFCURVE",
"626 714 OFFCURVE",
"532 714 CURVE SMOOTH",
"327 714 OFFCURVE",
"140 568 OFFCURVE",
"94 349 CURVE SMOOTH",
"47 131 OFFCURVE",
"172 -15 OFFCURVE",
"377 -15 CURVE SMOOTH"
);
},
{
closed = 1;
nodes = (
"702 813 LINE",
"708 837 LINE",
"430 837 LINE",
"424 813 LINE"
);
}
);
width = 728;
}
);
leftKerningGroup = C;
note = Gmacron;
unicode = 1E20;
},
{
glyphname = H;
lastChange = "2015-10-27 23:55:46 +0000";
layers = (
{
layerId = "C023BAC7-6FF9-47E4-9D72-1131A8F8A065";
name = "Light Italic";
paths = (
{
closed = 1;
nodes = (
"68 0 LINE",
"141 345 LINE",
"597 345 LINE",
"524 0 LINE",
"552 0 LINE",
"700 699 LINE",
"672 699 LINE",
"602 369 LINE",
"146 369 LINE",
"216 699 LINE",
"188 699 LINE",
"40 0 LINE"
);
}
);
width = 672;
}
);
note = H;
unicode = 0048;
},
{
glyphname = Hbar;
lastChange = "2015-10-27 23:55:44 +0000";
layers = (
{
layerId = "C023BAC7-6FF9-47E4-9D72-1131A8F8A065";
name = "Light Italic";
paths = (
{
closed = 1;
nodes = (
"77 0 LINE",
"150 345 LINE",
"606 345 LINE",
"533 0 LINE",
"561 0 LINE",
"671 519 LINE",
"734 519 LINE",
"739 543 LINE",
"676 543 LINE",
"709 699 LINE",
"681 699 LINE",
"648 543 LINE",
"192 543 LINE",
"225 699 LINE",
"197 699 LINE",
"164 543 LINE",
"115 543 LINE",
"110 519 LINE",
"159 519 LINE",
"49 0 LINE"
);
},
{
closed = 1;
nodes = (
"187 519 LINE",
"643 519 LINE",
"611 369 LINE",
"155 369 LINE"
);
}
);
width = 704;
}
);
note = Hbar;
unicode = 0126;
},
{
glyphname = Hbrevebelow;
lastChange = "2015-10-27 23:55:45 +0000";
layers = (
{
layerId = "C023BAC7-6FF9-47E4-9D72-1131A8F8A065";
name = "Light Italic";
paths = (
{
closed = 1;
nodes = (
"68 0 LINE",
"141 345 LINE",
"597 345 LINE",
"524 0 LINE",
"552 0 LINE",
"700 699 LINE",
"672 699 LINE",
"602 369 LINE",
"146 369 LINE",
"216 699 LINE",
"188 699 LINE",
"40 0 LINE"
);
},
{
closed = 1;
nodes = (
"335 -175 OFFCURVE",
"394 -127 OFFCURVE",
"406 -67 CURVE",
"382 -67 LINE",
"372 -115 OFFCURVE",
"329 -152 OFFCURVE",
"271 -152 CURVE SMOOTH",
"213 -152 OFFCURVE",
"185 -115 OFFCURVE",
"195 -67 CURVE",
"171 -67 LINE",
"159 -127 OFFCURVE",
"196 -175 OFFCURVE",
"266 -175 CURVE SMOOTH"
);
}
);
width = 672;
}
);
note = Hbrevebelow;
unicode = 1E2A;
},
{
glyphname = Hcircumflex;
lastChange = "2015-10-27 23:55:45 +0000";
layers = (
{
layerId = "C023BAC7-6FF9-47E4-9D72-1131A8F8A065";
name = "Light Italic";
paths = (
{
closed = 1;
nodes = (
"68 0 LINE",
"141 345 LINE",
"597 345 LINE",
"524 0 LINE",
"552 0 LINE",
"700 699 LINE",
"672 699 LINE",
"602 369 LINE",
"146 369 LINE",
"216 699 LINE",
"188 699 LINE",
"40 0 LINE"
);
},
{
closed = 1;
nodes = (
"359 798 LINE",
"494 927 LINE",
"575 798 LINE",
"604 798 LINE",
"508 949 LINE",
"486 949 LINE",
"327 798 LINE"
);
}
);
width = 672;
}
);
note = Hcircumflex;
unicode = 0124;
},
{
glyphname = Hdotbelow;
lastChange = "2015-10-27 23:55:45 +0000";
layers = (
{
layerId = "C023BAC7-6FF9-47E4-9D72-1131A8F8A065";
name = "Light Italic";
paths = (
{
closed = 1;
nodes = (
"68 0 LINE",
"141 345 LINE",
"597 345 LINE",
"524 0 LINE",
"552 0 LINE",
"700 699 LINE",
"672 699 LINE",
"602 369 LINE",
"146 369 LINE",
"216 699 LINE",
"188 699 LINE",
"40 0 LINE"
);
},
{
closed = 1;
nodes = (
"286 -121 OFFCURVE",
"301 -108 OFFCURVE",
"304 -93 CURVE SMOOTH",
"307 -78 OFFCURVE",
"297 -65 OFFCURVE",
"283 -65 CURVE SMOOTH",
"268 -65 OFFCURVE",
"252 -78 OFFCURVE",
"249 -93 CURVE SMOOTH",
"246 -108 OFFCURVE",
"256 -121 OFFCURVE",
"271 -121 CURVE SMOOTH"
);
}
);
width = 672;
}
);
note = Hdotbelow;
unicode = 1E24;
},
{
glyphname = I;
lastChange = "2015-10-27 23:55:46 +0000";
layers = (
{
layerId = "C023BAC7-6FF9-47E4-9D72-1131A8F8A065";
name = "Light Italic";
paths = (
{
closed = 1;
nodes = (
"68 0 LINE",
"216 699 LINE",
"188 699 LINE",
"40 0 LINE"
);
}
);
width = 188;
}
);
note = I;
unicode = 0049;
},
{
glyphname = IJ;
lastChange = "2015-10-27 23:55:45 +0000";
layers = (
{
layerId = "C023BAC7-6FF9-47E4-9D72-1131A8F8A065";
name = "Light Italic";
paths = (
{
closed = 1;
nodes = (
"375 -15 OFFCURVE",
"444 28 OFFCURVE",
"466 128 CURVE SMOOTH",
"587 699 LINE",
"559 699 LINE",
"438 128 LINE SMOOTH",
"420 46 OFFCURVE",
"367 8 OFFCURVE",
"289 8 CURVE SMOOTH",
"266 8 OFFCURVE",
"229 13 OFFCURVE",
"210 20 CURVE",
"205 -4 LINE",
"224 -10 OFFCURVE",
"259 -15 OFFCURVE",
"291 -15 CURVE SMOOTH"
);
},
{
closed = 1;
nodes = (
"68 0 LINE",
"216 699 LINE",
"188 699 LINE",
"40 0 LINE"
);
}
);
width = 554;
}
);
note = IJ;
rightKerningGroup = J;
unicode = 0132;
},
{
glyphname = Iacute;
lastChange = "2015-10-27 23:55:46 +0000";
layers = (
{
layerId = "C023BAC7-6FF9-47E4-9D72-1131A8F8A065";
name = "Light Italic";
paths = (
{
closed = 1;
nodes = (
"68 0 LINE",
"216 699 LINE",
"188 699 LINE",
"40 0 LINE"
);
},
{
closed = 1;
nodes = (
"229 768 LINE",
"342 935 LINE",
"314 935 LINE",
"207 768 LINE"
);
}
);
width = 188;
}
);
note = Iacute;
unicode = 00CD;
},
{
glyphname = Ibreve;
lastChange = "2015-10-27 23:55:44 +0000";
layers = (
{
layerId = "C023BAC7-6FF9-47E4-9D72-1131A8F8A065";
name = "Light Italic";
paths = (
{
closed = 1;
nodes = (
"68 0 LINE",
"216 699 LINE",
"188 699 LINE",
"40 0 LINE"
);
},
{
closed = 1;
nodes = (
"288 777 OFFCURVE",
"346 825 OFFCURVE",
"359 885 CURVE",
"333 885 LINE",
"323 837 OFFCURVE",
"280 800 OFFCURVE",
"221 800 CURVE SMOOTH",
"163 800 OFFCURVE",
"135 837 OFFCURVE",
"145 885 CURVE",
"123 885 LINE",
"110 825 OFFCURVE",
"148 777 OFFCURVE",
"218 777 CURVE SMOOTH"
);
}
);
width = 188;
}
);
note = Ibreve;
unicode = 012C;
},
{
glyphname = Icaron;
lastChange = "2015-10-27 23:55:45 +0000";
layers = (
{
layerId = "C023BAC7-6FF9-47E4-9D72-1131A8F8A065";
name = "Light Italic";
paths = (
{
closed = 1;
nodes = (
"68 0 LINE",
"216 699 LINE",
"188 699 LINE",
"40 0 LINE"
);
},
{
closed = 1;
nodes = (
"231 784 LINE",
"391 935 LINE",
"358 935 LINE",
"222 806 LINE",
"142 935 LINE",
"113 935 LINE",
"209 784 LINE"
);
}
);
width = 188;
}
);
note = Icaron;
unicode = 01CF;
},
{
glyphname = Icircumflex;
lastChange = "2015-10-27 23:55:46 +0000";
layers = (
{
layerId = "C023BAC7-6FF9-47E4-9D72-1131A8F8A065";
name = "Light Italic";
paths = (
{
closed = 1;
nodes = (
"68 0 LINE",
"216 699 LINE",
"188 699 LINE",
"40 0 LINE"
);
},
{
closed = 1;
nodes = (
"112 774 LINE",
"247 903 LINE",
"328 774 LINE",
"357 774 LINE",
"261 925 LINE",
"239 925 LINE",
"80 774 LINE"
);
}
);
width = 188;
}
);
note = Icircumflex;
unicode = 00CE;
},
{
glyphname = Idieresis;
lastChange = "2015-10-27 23:55:46 +0000";
layers = (
{
layerId = "C023BAC7-6FF9-47E4-9D72-1131A8F8A065";
name = "Light Italic";
paths = (
{
closed = 1;
nodes = (
"68 0 LINE",
"216 699 LINE",
"188 699 LINE",
"40 0 LINE"
);
},
{
closed = 1;
nodes = (
"140 802 OFFCURVE",
"155 815 OFFCURVE",
"159 830 CURVE",
"162 845 OFFCURVE",
"151 858 OFFCURVE",
"136 858 CURVE SMOOTH",
"121 858 OFFCURVE",
"106 845 OFFCURVE",
"103 830 CURVE",
"99 815 OFFCURVE",
"110 802 OFFCURVE",
"125 802 CURVE SMOOTH"
);
},
{
closed = 1;
nodes = (
"338 802 OFFCURVE",
"353 815 OFFCURVE",
"357 830 CURVE",
"360 845 OFFCURVE",
"349 858 OFFCURVE",
"334 858 CURVE SMOOTH",
"319 858 OFFCURVE",
"304 845 OFFCURVE",
"301 830 CURVE",
"297 815 OFFCURVE",
"308 802 OFFCURVE",
"323 802 CURVE SMOOTH"
);
}
);
width = 188;
}
);
note = Idieresis;
unicode = 00CF;
},
{
glyphname = Idotaccent;
lastChange = "2015-10-27 23:55:45 +0000";
layers = (
{
layerId = "C023BAC7-6FF9-47E4-9D72-1131A8F8A065";
name = "Light Italic";
paths = (
{
closed = 1;
nodes = (
"68 0 LINE",
"216 699 LINE",
"188 699 LINE",
"40 0 LINE"
);
},
{
closed = 1;
nodes = (
"231 763 OFFCURVE",
"246 776 OFFCURVE",
"250 791 CURVE",
"253 806 OFFCURVE",
"242 819 OFFCURVE",
"227 819 CURVE SMOOTH",
"212 819 OFFCURVE",
"197 806 OFFCURVE",
"194 791 CURVE",
"190 776 OFFCURVE",
"201 763 OFFCURVE",
"216 763 CURVE SMOOTH"
);
}
);
width = 188;
}
);
note = Idotaccent;
unicode = 0130;
},
{
glyphname = Idotbelow;
lastChange = "2015-10-27 23:55:46 +0000";
layers = (
{
layerId = "C023BAC7-6FF9-47E4-9D72-1131A8F8A065";
name = "Light Italic";
paths = (
{
closed = 1;
nodes = (
"68 0 LINE",
"216 699 LINE",
"188 699 LINE",
"40 0 LINE"
);
},
{
closed = 1;
nodes = (
"44 -121 OFFCURVE",
"59 -108 OFFCURVE",
"62 -93 CURVE SMOOTH",
"65 -78 OFFCURVE",
"55 -65 OFFCURVE",
"41 -65 CURVE SMOOTH",
"26 -65 OFFCURVE",
"10 -78 OFFCURVE",
"7 -93 CURVE SMOOTH",
"4 -108 OFFCURVE",
"14 -121 OFFCURVE",
"29 -121 CURVE SMOOTH"
);
}
);
width = 188;
}
);
note = Idotbelow;
unicode = 1ECA;
},
{
glyphname = Igrave;
lastChange = "2015-10-27 23:55:46 +0000";
layers = (
{
layerId = "C023BAC7-6FF9-47E4-9D72-1131A8F8A065";
name = "Light Italic";
paths = (
{
closed = 1;
nodes = (
"68 0 LINE",
"216 699 LINE",
"188 699 LINE",
"40 0 LINE"
);
},
{
closed = 1;
nodes = (
"236 792 LINE",
"201 959 LINE",
"173 959 LINE",
"214 792 LINE"
);
}
);
width = 188;
}
);
note = Igrave;
unicode = 00CC;
},
{
glyphname = Ihookabove;
lastChange = "2015-10-27 23:55:45 +0000";
layers = (
{
layerId = "C023BAC7-6FF9-47E4-9D72-1131A8F8A065";
name = "Light Italic";
paths = (
{
closed = 1;
nodes = (
"68 0 LINE",
"216 699 LINE",
"188 699 LINE",
"40 0 LINE"
);
},
{
closed = 1;
nodes = (
"233 784 LINE",
"242 828 LINE",
"308 831 OFFCURVE",
"347 866 OFFCURVE",
"358 915 CURVE SMOOTH",
"368 965 OFFCURVE",
"342 1001 OFFCURVE",
"273 1001 CURVE SMOOTH",
"253 1001 OFFCURVE",
"228 997 OFFCURVE",
"216 993 CURVE",
"211 969 LINE",
"224 974 OFFCURVE",
"250 977 OFFCURVE",
"268 977 CURVE SMOOTH",
"316 977 OFFCURVE",
"341 958 OFFCURVE",
"331 914 CURVE SMOOTH",
"322 870 OFFCURVE",
"295 847 OFFCURVE",
"223 847 CURVE",
"210 784 LINE"
);
}
);
width = 188;
}
);
note = Ihookabove;
unicode = 1EC8;
},
{
glyphname = Imacron;
lastChange = "2015-10-27 23:55:46 +0000";
layers = (
{
layerId = "C023BAC7-6FF9-47E4-9D72-1131A8F8A065";
name = "Light Italic";
paths = (
{
closed = 1;
nodes = (
"68 0 LINE",
"216 699 LINE",
"188 699 LINE",
"40 0 LINE"
);
},
{
closed = 1;
nodes = (
"355 765 LINE",
"361 789 LINE",
"83 789 LINE",
"77 765 LINE"
);
}
);
width = 188;
}
);
note = Imacron;
unicode = 012A;
},
{
glyphname = Iogonek;
lastChange = "2015-10-27 23:55:45 +0000";
layers = (
{
layerId = "C023BAC7-6FF9-47E4-9D72-1131A8F8A065";
name = "Light Italic";
paths = (
{
closed = 1;
nodes = (
"68 0 LINE",
"216 699 LINE",
"188 699 LINE",
"40 0 LINE"
);
},
{
closed = 1;
nodes = (
"22 -206 OFFCURVE",
"36 -203 OFFCURVE",
"48 -198 CURVE",
"54 -174 LINE",
"40 -179 OFFCURVE",
"24 -182 OFFCURVE",
"7 -182 CURVE SMOOTH",
"-24 -182 OFFCURVE",
"-45 -164 OFFCURVE",
"-37 -125 CURVE SMOOTH",
"-27 -76 OFFCURVE",
"14 -36 OFFCURVE",
"68 0 CURVE",
"40 0 LINE",
"-7 -27 OFFCURVE",
"-52 -73 OFFCURVE",
"-63 -125 CURVE SMOOTH",
"-75 -179 OFFCURVE",
"-41 -206 OFFCURVE",
"2 -206 CURVE SMOOTH"
);
}
);
width = 188;
}
);
note = Iogonek;
unicode = 012E;
},
{
glyphname = Itilde;
lastChange = "2015-10-27 23:55:44 +0000";
layers = (
{
layerId = "C023BAC7-6FF9-47E4-9D72-1131A8F8A065";
name = "Light Italic";
paths = (
{
closed = 1;
nodes = (
"68 0 LINE",
"216 699 LINE",
"188 699 LINE",
"40 0 LINE"
);
},
{
closed = 1;
nodes = (
"81 829 OFFCURVE",
"113 840 OFFCURVE",
"146 840 CURVE SMOOTH",
"210 840 OFFCURVE",
"236 790 OFFCURVE",
"309 790 CURVE SMOOTH",
"346 790 OFFCURVE",
"382 802 OFFCURVE",
"408 835 CURVE",
"415 868 LINE",
"381 825 OFFCURVE",
"347 814 OFFCURVE",
"314 814 CURVE SMOOTH",
"249 814 OFFCURVE",
"219 864 OFFCURVE",
"151 864 CURVE SMOOTH",
"114 864 OFFCURVE",
"78 852 OFFCURVE",
"51 819 CURVE",
"44 786 LINE"
);
}
);
width = 188;
}
);
note = Itilde;
unicode = 0128;
},
{
glyphname = J;
lastChange = "2015-10-27 23:55:46 +0000";
layers = (
{
layerId = "C023BAC7-6FF9-47E4-9D72-1131A8F8A065";
name = "Light Italic";
paths = (
{
closed = 1;
nodes = (
"169 -15 OFFCURVE",
"238 28 OFFCURVE",
"260 128 CURVE SMOOTH",
"381 699 LINE",
"353 699 LINE",
"232 128 LINE SMOOTH",
"214 46 OFFCURVE",
"161 8 OFFCURVE",
"83 8 CURVE SMOOTH",
"60 8 OFFCURVE",
"23 13 OFFCURVE",
"4 20 CURVE",
"-1 -4 LINE",
"18 -10 OFFCURVE",
"53 -15 OFFCURVE",
"85 -15 CURVE SMOOTH"
);
}
);
width = 348;
}
);
note = J;
rightKerningGroup = J;
unicode = 004A;
},
{
glyphname = Jcircumflex;
lastChange = "2015-10-27 23:55:46 +0000";
layers = (
{
layerId = "C023BAC7-6FF9-47E4-9D72-1131A8F8A065";
name = "Light Italic";
paths = (
{
closed = 1;
nodes = (
"169 -15 OFFCURVE",
"238 28 OFFCURVE",
"260 128 CURVE SMOOTH",
"381 699 LINE",
"353 699 LINE",
"232 128 LINE SMOOTH",
"214 46 OFFCURVE",
"161 8 OFFCURVE",
"83 8 CURVE SMOOTH",
"60 8 OFFCURVE",
"23 13 OFFCURVE",
"4 20 CURVE",
"-1 -4 LINE",
"18 -10 OFFCURVE",
"53 -15 OFFCURVE",
"85 -15 CURVE SMOOTH"
);
},
{
closed = 1;
nodes = (
"277 774 LINE",
"412 903 LINE",
"493 774 LINE",
"522 774 LINE",
"426 925 LINE",
"404 925 LINE",
"245 774 LINE"
);
}
);
width = 348;
}
);
note = Jcircumflex;
rightKerningGroup = J;
unicode = 0134;
},
{
glyphname = K;
lastChange = "2015-10-27 23:55:46 +0000";
layers = (
{
layerId = "C023BAC7-6FF9-47E4-9D72-1131A8F8A065";
name = "Light Italic";
paths = (
{
closed = 1;
nodes = (
"68 0 LINE",
"142 350 LINE",
"450 0 LINE",
"485 0 LINE",
"176 350 LINE",
"615 699 LINE",
"576 699 LINE",
"143 356 LINE",
"216 699 LINE",
"188 699 LINE",
"40 0 LINE"
);
}
);
width = 589;
}
);
leftKerningGroup = K;
note = K;
rightKerningGroup = K;
unicode = 004B;
},
{
glyphname = Kcommaaccent;
lastChange = "2015-10-27 23:55:45 +0000";
layers = (
{
layerId = "C023BAC7-6FF9-47E4-9D72-1131A8F8A065";
name = "Light Italic";
paths = (
{
closed = 1;
nodes = (
"68 0 LINE",
"142 350 LINE",
"450 0 LINE",
"485 0 LINE",
"176 350 LINE",
"615 699 LINE",
"576 699 LINE",
"143 356 LINE",
"216 699 LINE",
"188 699 LINE",
"40 0 LINE"
);
},
{
closed = 1;
nodes = (
"109 -259 LINE",
"235 -70 LINE",
"204 -70 LINE",
"84 -259 LINE"
);
}
);
width = 589;
}
);
leftKerningGroup = K;
note = Kcommaaccent;
rightKerningGroup = K;
unicode = 0136;
},
{
glyphname = L;
lastChange = "2015-10-27 23:55:46 +0000";
layers = (
{
layerId = "C023BAC7-6FF9-47E4-9D72-1131A8F8A065";
name = "Light Italic";
paths = (
{
closed = 1;
nodes = (
"467 0 LINE",
"472 24 LINE",
"73 24 LINE",
"216 699 LINE",
"188 699 LINE",
"40 0 LINE"
);
}
);
width = 547;
}
);
note = L;
rightKerningGroup = L;
unicode = 004C;
},
{
glyphname = Lacute;
lastChange = "2015-10-27 23:55:45 +0000";
layers = (
{
layerId = "C023BAC7-6FF9-47E4-9D72-1131A8F8A065";
name = "Light Italic";
paths = (
{
closed = 1;
nodes = (
"467 0 LINE",
"472 24 LINE",
"73 24 LINE",
"216 699 LINE",
"188 699 LINE",
"40 0 LINE"
);
},
{
closed = 1;
nodes = (
"229 768 LINE",
"342 935 LINE",
"314 935 LINE",
"207 768 LINE"
);
}
);
width = 547;
}
);
note = Lacute;
rightKerningGroup = L;
unicode = 0139;
},
{
glyphname = Lcaron;
lastChange = "2015-10-27 23:55:45 +0000";
layers = (
{
layerId = "C023BAC7-6FF9-47E4-9D72-1131A8F8A065";
name = "Light Italic";
paths = (
{
closed = 1;
nodes = (
"467 0 LINE",
"472 24 LINE",
"73 24 LINE",
"216 699 LINE",
"188 699 LINE",
"40 0 LINE"
);
},
{
closed = 1;
nodes = (
"329 504 LINE",
"455 693 LINE",
"424 693 LINE",
"304 504 LINE"
);
}
);
width = 547;
}
);
note = Lcaron;
rightKerningGroup = L;
unicode = 013D;
},
{
glyphname = Lcommaaccent;
lastChange = "2015-10-27 23:55:46 +0000";
layers = (
{
layerId = "C023BAC7-6FF9-47E4-9D72-1131A8F8A065";
name = "Light Italic";
paths = (
{
closed = 1;
nodes = (
"467 0 LINE",
"472 24 LINE",
"73 24 LINE",
"216 699 LINE",
"188 699 LINE",
"40 0 LINE"
);
},
{
closed = 1;
nodes = (
"131 -259 LINE",
"257 -70 LINE",
"226 -70 LINE",
"106 -259 LINE"
);
}
);
width = 547;
}
);
note = Lcommaaccent;
rightKerningGroup = L;
unicode = 013B;
},
{
glyphname = Ldot;
lastChange = "2015-10-27 23:55:44 +0000";
layers = (
{
layerId = "C023BAC7-6FF9-47E4-9D72-1131A8F8A065";
name = "Light Italic";
paths = (
{
closed = 1;
nodes = (
"467 0 LINE",
"472 24 LINE",
"73 24 LINE",
"216 699 LINE",
"188 699 LINE",
"40 0 LINE"
);
},
{
closed = 1;
nodes = (
"366 344 OFFCURVE",
"381 357 OFFCURVE",
"385 372 CURVE",
"388 387 OFFCURVE",
"377 400 OFFCURVE",
"362 400 CURVE SMOOTH",
"347 400 OFFCURVE",
"332 387 OFFCURVE",
"329 372 CURVE",
"325 357 OFFCURVE",
"336 344 OFFCURVE",
"351 344 CURVE SMOOTH"
);
}
);
width = 547;
}
);
note = Ldot;
rightKerningGroup = L;
unicode = 013F;
},
{
glyphname = Ldotbelow;
lastChange = "2015-10-27 23:55:45 +0000";
layers = (
{
layerId = "C023BAC7-6FF9-47E4-9D72-1131A8F8A065";
name = "Light Italic";
paths = (
{
closed = 1;
nodes = (
"467 0 LINE",
"472 24 LINE",
"73 24 LINE",
"216 699 LINE",
"188 699 LINE",
"40 0 LINE"
);
},
{
closed = 1;
nodes = (
"239 -121 OFFCURVE",
"254 -108 OFFCURVE",
"257 -93 CURVE SMOOTH",
"260 -78 OFFCURVE",
"250 -65 OFFCURVE",
"236 -65 CURVE SMOOTH",
"221 -65 OFFCURVE",
"205 -78 OFFCURVE",
"202 -93 CURVE SMOOTH",
"199 -108 OFFCURVE",
"209 -121 OFFCURVE",
"224 -121 CURVE SMOOTH"
);
}
);
width = 547;
}
);
note = Ldotbelow;
rightKerningGroup = L;
unicode = 1E36;
},
{
glyphname = Ldotbelowmacron;
lastChange = "2015-10-27 23:55:46 +0000";
layers = (
{
layerId = "C023BAC7-6FF9-47E4-9D72-1131A8F8A065";
name = "Light Italic";
paths = (
{
closed = 1;
nodes = (
"467 0 LINE",
"472 24 LINE",
"73 24 LINE",
"216 699 LINE",
"188 699 LINE",
"40 0 LINE"
);
},
{
closed = 1;
nodes = (
"242 -121 OFFCURVE",
"257 -108 OFFCURVE",
"260 -93 CURVE SMOOTH",
"263 -78 OFFCURVE",
"253 -65 OFFCURVE",
"239 -65 CURVE SMOOTH",
"224 -65 OFFCURVE",
"208 -78 OFFCURVE",
"205 -93 CURVE SMOOTH",
"202 -108 OFFCURVE",
"212 -121 OFFCURVE",
"227 -121 CURVE SMOOTH"
);
},
{
closed = 1;
nodes = (
"363 803 LINE",
"369 827 LINE",
"91 827 LINE",
"85 803 LINE"
);
}
);
width = 547;
}
);
note = Ldotbelowmacron;
rightKerningGroup = L;
unicode = 1E38;
},
{
glyphname = Llinebelow;
lastChange = "2015-10-27 23:55:46 +0000";
layers = (
{
layerId = "C023BAC7-6FF9-47E4-9D72-1131A8F8A065";
name = "Light Italic";
paths = (
{
closed = 1;
nodes = (
"467 0 LINE",
"472 24 LINE",
"73 24 LINE",
"216 699 LINE",
"188 699 LINE",
"40 0 LINE"
);
},
{
closed = 1;
nodes = (
"377 -110 LINE",
"382 -86 LINE",
"105 -86 LINE",
"100 -110 LINE"
);
}
);
width = 547;
}
);
note = Llinebelow;
rightKerningGroup = L;
unicode = 1E3A;
},
{
glyphname = Lslash;
lastChange = "2015-10-27 23:55:44 +0000";
layers = (
{
layerId = "C023BAC7-6FF9-47E4-9D72-1131A8F8A065";
name = "Light Italic";
paths = (
{
closed = 1;
nodes = (
"544 0 LINE",
"549 24 LINE",
"150 24 LINE",
"218 347 LINE",
"416 428 LINE",
"422 454 LINE",
"224 373 LINE",
"293 699 LINE",
"265 699 LINE",
"193 360 LINE",
"54 304 LINE",
"49 278 LINE",
"187 334 LINE",
"117 0 LINE"
);
}
);
width = 624;
}
);
note = Lslash;
rightKerningGroup = L;
unicode = 0141;
},
{
glyphname = M;
lastChange = "2015-10-27 23:55:44 +0000";
layers = (
{
layerId = "C023BAC7-6FF9-47E4-9D72-1131A8F8A065";
name = "Light Italic";
paths = (
{
closed = 1;
nodes = (
"70 0 LINE",
"206 642 LINE",
"362 0 LINE",
"381 0 LINE",
"809 642 LINE",
"673 0 LINE",
"699 0 LINE",
"847 699 LINE",
"815 699 LINE",
"379 46 LINE",
"220 699 LINE",
"188 699 LINE",
"40 0 LINE"
);
}
);
width = 819;
}
);
note = M;
unicode = 004D;
},
{
glyphname = Mdotbelow;
lastChange = "2015-10-27 23:55:46 +0000";
layers = (
{
layerId = "C023BAC7-6FF9-47E4-9D72-1131A8F8A065";
name = "Light Italic";
paths = (
{
closed = 1;
nodes = (
"70 0 LINE",
"206 642 LINE",
"362 0 LINE",
"381 0 LINE",
"809 642 LINE",
"673 0 LINE",
"699 0 LINE",
"847 699 LINE",
"815 699 LINE",
"379 46 LINE",
"220 699 LINE",
"188 699 LINE",
"40 0 LINE"
);
},
{
closed = 1;
nodes = (
"360 -121 OFFCURVE",
"375 -108 OFFCURVE",
"378 -93 CURVE SMOOTH",
"381 -78 OFFCURVE",
"371 -65 OFFCURVE",
"357 -65 CURVE SMOOTH",
"342 -65 OFFCURVE",
"326 -78 OFFCURVE",
"323 -93 CURVE SMOOTH",
"320 -108 OFFCURVE",
"330 -121 OFFCURVE",
"345 -121 CURVE SMOOTH"
);
}
);
width = 819;
}
);
note = Mdotbelow;
unicode = 1E42;
},
{
glyphname = N;
lastChange = "2015-10-27 23:55:45 +0000";
layers = (
{
layerId = "C023BAC7-6FF9-47E4-9D72-1131A8F8A065";
name = "Light Italic";
paths = (
{
closed = 1;
nodes = (
"70 0 LINE",
"207 649 LINE",
"521 0 LINE",
"543 0 LINE",
"691 699 LINE",
"663 699 LINE",
"526 52 LINE",
"213 699 LINE",
"188 699 LINE",
"40 0 LINE"
);
}
);
width = 663;
}
);
note = N;
unicode = 004E;
},
{
glyphname = Nacute;
lastChange = "2015-10-27 23:55:44 +0000";
layers = (
{
layerId = "C023BAC7-6FF9-47E4-9D72-1131A8F8A065";
name = "Light Italic";
paths = (
{
closed = 1;
nodes = (
"70 0 LINE",
"207 649 LINE",
"521 0 LINE",
"543 0 LINE",
"691 699 LINE",
"663 699 LINE",
"526 52 LINE",
"213 699 LINE",
"188 699 LINE",
"40 0 LINE"
);
},
{
closed = 1;
nodes = (
"477 780 LINE",
"590 947 LINE",
"562 947 LINE",
"455 780 LINE"
);
}
);
width = 663;
}
);
note = Nacute;
unicode = 0143;
},
{
glyphname = Ncaron;
lastChange = "2015-10-27 23:55:46 +0000";
layers = (
{
layerId = "C023BAC7-6FF9-47E4-9D72-1131A8F8A065";
name = "Light Italic";
paths = (
{
closed = 1;
nodes = (
"70 0 LINE",
"207 649 LINE",
"521 0 LINE",
"543 0 LINE",
"691 699 LINE",
"663 699 LINE",
"526 52 LINE",
"213 699 LINE",
"188 699 LINE",
"40 0 LINE"
);
},
{
closed = 1;
nodes = (
"469 786 LINE",
"629 937 LINE",
"596 937 LINE",
"460 808 LINE",
"380 937 LINE",
"351 937 LINE",
"447 786 LINE"
);
}
);
width = 663;
}
);
note = Ncaron;
unicode = 0147;
},
{
glyphname = Ncommaaccent;
lastChange = "2015-10-27 23:55:44 +0000";
layers = (
{
layerId = "C023BAC7-6FF9-47E4-9D72-1131A8F8A065";
name = "Light Italic";
paths = (
{
closed = 1;
nodes = (
"70 0 LINE",
"207 649 LINE",
"521 0 LINE",
"543 0 LINE",
"691 699 LINE",
"663 699 LINE",
"526 52 LINE",
"213 699 LINE",
"188 699 LINE",
"40 0 LINE"
);
},
{
closed = 1;
nodes = (
"197 -259 LINE",
"323 -70 LINE",
"292 -70 LINE",
"172 -259 LINE"
);
}
);
width = 663;
}
);
note = Ncommaaccent;
unicode = 0145;
},
{
glyphname = Ndotaccent;
lastChange = "2015-10-27 23:55:45 +0000";
layers = (
{
layerId = "C023BAC7-6FF9-47E4-9D72-1131A8F8A065";
name = "Light Italic";
paths = (
{
closed = 1;
nodes = (
"70 0 LINE",
"207 649 LINE",
"521 0 LINE",
"543 0 LINE",
"691 699 LINE",
"663 699 LINE",
"526 52 LINE",
"213 699 LINE",
"188 699 LINE",
"40 0 LINE"
);
},
{
closed = 1;
nodes = (
"493 790 OFFCURVE",
"508 803 OFFCURVE",
"512 818 CURVE",
"515 833 OFFCURVE",
"504 846 OFFCURVE",
"489 846 CURVE SMOOTH",
"474 846 OFFCURVE",
"459 833 OFFCURVE",
"456 818 CURVE",
"452 803 OFFCURVE",
"463 790 OFFCURVE",
"478 790 CURVE SMOOTH"
);
}
);
width = 663;
}
);
note = Ndotaccent;
unicode = 1E44;
},
{
glyphname = Ndotbelow;
lastChange = "2015-10-27 23:55:45 +0000";
layers = (
{
layerId = "C023BAC7-6FF9-47E4-9D72-1131A8F8A065";
name = "Light Italic";
paths = (
{
closed = 1;
nodes = (
"70 0 LINE",
"207 649 LINE",
"521 0 LINE",
"543 0 LINE",
"691 699 LINE",
"663 699 LINE",
"526 52 LINE",
"213 699 LINE",
"188 699 LINE",
"40 0 LINE"
);
},
{
closed = 1;
nodes = (
"291 -121 OFFCURVE",
"306 -108 OFFCURVE",
"309 -93 CURVE SMOOTH",
"312 -78 OFFCURVE",
"302 -65 OFFCURVE",
"288 -65 CURVE SMOOTH",
"273 -65 OFFCURVE",
"257 -78 OFFCURVE",
"254 -93 CURVE SMOOTH",
"251 -108 OFFCURVE",
"261 -121 OFFCURVE",
"276 -121 CURVE SMOOTH"
);
}
);
width = 663;
}
);
note = Ndotbelow;
unicode = 1E46;
},
{
glyphname = Eng;
lastChange = "2015-10-27 23:55:46 +0000";
layers = (
{
layerId = "C023BAC7-6FF9-47E4-9D72-1131A8F8A065";
name = "Light Italic";
paths = (
{
closed = 1;
nodes = (
"450 -231 OFFCURVE",
"502 -191 OFFCURVE",
"522 -96 CURVE SMOOTH",
"691 699 LINE",
"663 699 LINE",
"526 52 LINE",
"213 699 LINE",
"188 699 LINE",
"40 0 LINE",
"68 0 LINE",
"205 649 LINE",
"516 6 LINE",
"494 -98 LINE SMOOTH",
"480 -166 OFFCURVE",
"447 -207 OFFCURVE",
"372 -207 CURVE SMOOTH",
"355 -207 OFFCURVE",
"338 -205 OFFCURVE",
"323 -200 CURVE",
"318 -225 LINE",
"335 -229 OFFCURVE",
"354 -231 OFFCURVE",
"375 -231 CURVE SMOOTH"
);
}
);
width = 663;
}
);
note = Eng;
unicode = 014A;
},
{
glyphname = Nlinebelow;
lastChange = "2015-10-27 23:55:45 +0000";
layers = (
{
layerId = "C023BAC7-6FF9-47E4-9D72-1131A8F8A065";
name = "Light Italic";
paths = (
{
closed = 1;
nodes = (
"70 0 LINE",
"207 649 LINE",
"521 0 LINE",
"543 0 LINE",
"691 699 LINE",
"663 699 LINE",
"526 52 LINE",
"213 699 LINE",
"188 699 LINE",
"40 0 LINE"
);
},
{
closed = 1;
nodes = (
"425 -110 LINE",
"430 -86 LINE",
"153 -86 LINE",
"148 -110 LINE"
);
}
);
width = 663;
}
);
note = Nlinebelow;
unicode = 1E48;
},
{
glyphname = Ntilde;
lastChange = "2015-10-27 23:55:45 +0000";
layers = (
{
layerId = "C023BAC7-6FF9-47E4-9D72-1131A8F8A065";
name = "Light Italic";
paths = (
{
closed = 1;
nodes = (
"70 0 LINE",
"207 649 LINE",
"521 0 LINE",
"543 0 LINE",
"691 699 LINE",
"663 699 LINE",
"526 52 LINE",
"213 699 LINE",
"188 699 LINE",
"40 0 LINE"
);
},
{
closed = 1;
nodes = (
"328 853 OFFCURVE",
"360 864 OFFCURVE",
"393 864 CURVE SMOOTH",
"457 864 OFFCURVE",
"483 814 OFFCURVE",
"556 814 CURVE SMOOTH",
"593 814 OFFCURVE",
"629 826 OFFCURVE",
"655 859 CURVE",
"662 892 LINE",
"628 849 OFFCURVE",
"594 838 OFFCURVE",
"561 838 CURVE SMOOTH",
"496 838 OFFCURVE",
"466 888 OFFCURVE",
"398 888 CURVE SMOOTH",
"361 888 OFFCURVE",
"325 876 OFFCURVE",
"298 843 CURVE",
"291 810 LINE"
);
}
);
width = 663;
}
);
note = Ntilde;
unicode = 00D1;
},
{
glyphname = O;
lastChange = "2015-10-27 23:55:45 +0000";
layers = (
{
layerId = "C023BAC7-6FF9-47E4-9D72-1131A8F8A065";
name = "Light Italic";
paths = (
{
closed = 1;
nodes = (
"590 -15 OFFCURVE",
"769 131 OFFCURVE",
"816 349 CURVE SMOOTH",
"862 568 OFFCURVE",
"737 714 OFFCURVE",
"532 714 CURVE SMOOTH",
"321 714 OFFCURVE",
"140 568 OFFCURVE",
"94 349 CURVE SMOOTH",
"47 131 OFFCURVE",
"172 -15 OFFCURVE",
"377 -15 CURVE SMOOTH"
);
},
{
closed = 1;
nodes = (
"190 9 OFFCURVE",
"75 139 OFFCURVE",
"120 349 CURVE SMOOTH",
"164 558 OFFCURVE",
"340 690 OFFCURVE",
"527 690 CURVE SMOOTH",
"723 690 OFFCURVE",
"834 558 OFFCURVE",
"790 349 CURVE SMOOTH",
"745 139 OFFCURVE",
"566 9 OFFCURVE",
"382 9 CURVE SMOOTH"
);
}
);
width = 842;
}
);
leftKerningGroup = O;
note = O;
rightKerningGroup = O;
unicode = 004F;
},
{
glyphname = Oacute;
lastChange = "2015-10-27 23:55:45 +0000";
layers = (
{
layerId = "C023BAC7-6FF9-47E4-9D72-1131A8F8A065";
name = "Light Italic";
paths = (
{
closed = 1;
nodes = (
"590 -15 OFFCURVE",
"769 131 OFFCURVE",
"816 349 CURVE SMOOTH",
"862 568 OFFCURVE",
"737 714 OFFCURVE",
"532 714 CURVE SMOOTH",
"321 714 OFFCURVE",
"140 568 OFFCURVE",
"94 349 CURVE SMOOTH",
"47 131 OFFCURVE",
"172 -15 OFFCURVE",
"377 -15 CURVE SMOOTH"
);
},
{
closed = 1;
nodes = (
"190 9 OFFCURVE",
"75 139 OFFCURVE",
"120 349 CURVE SMOOTH",
"164 558 OFFCURVE",
"340 690 OFFCURVE",
"527 690 CURVE SMOOTH",
"723 690 OFFCURVE",
"834 558 OFFCURVE",
"790 349 CURVE SMOOTH",
"745 139 OFFCURVE",
"566 9 OFFCURVE",
"382 9 CURVE SMOOTH"
);
},
{
closed = 1;
nodes = (
"542 792 LINE",
"655 959 LINE",
"627 959 LINE",
"520 792 LINE"
);
}
);
width = 842;
}
);
leftKerningGroup = O;
note = Oacute;
rightKerningGroup = O;
unicode = 00D3;
},
{
glyphname = Obreve;
lastChange = "2015-10-27 23:55:45 +0000";
layers = (
{
layerId = "C023BAC7-6FF9-47E4-9D72-1131A8F8A065";
name = "Light Italic";
paths = (
{
closed = 1;
nodes = (
"590 -15 OFFCURVE",
"769 131 OFFCURVE",
"816 349 CURVE SMOOTH",
"862 568 OFFCURVE",
"737 714 OFFCURVE",
"532 714 CURVE SMOOTH",
"321 714 OFFCURVE",
"140 568 OFFCURVE",
"94 349 CURVE SMOOTH",
"47 131 OFFCURVE",
"172 -15 OFFCURVE",
"377 -15 CURVE SMOOTH"
);
},
{
closed = 1;
nodes = (
"190 9 OFFCURVE",
"75 139 OFFCURVE",
"120 349 CURVE SMOOTH",
"164 558 OFFCURVE",
"340 690 OFFCURVE",
"527 690 CURVE SMOOTH",
"723 690 OFFCURVE",
"834 558 OFFCURVE",
"790 349 CURVE SMOOTH",
"745 139 OFFCURVE",
"566 9 OFFCURVE",
"382 9 CURVE SMOOTH"
);
},
{
closed = 1;
nodes = (
"611 758 OFFCURVE",
"669 806 OFFCURVE",
"682 866 CURVE",
"656 866 LINE",
"646 818 OFFCURVE",
"603 781 OFFCURVE",
"544 781 CURVE SMOOTH",
"486 781 OFFCURVE",
"458 818 OFFCURVE",
"468 866 CURVE",
"446 866 LINE",
"433 806 OFFCURVE",
"471 758 OFFCURVE",
"541 758 CURVE SMOOTH"
);
}
);
width = 842;
}
);
leftKerningGroup = O;
note = Obreve;
rightKerningGroup = O;
unicode = 014E;
},
{
glyphname = Ocaron;
lastChange = "2015-10-27 23:55:45 +0000";
layers = (
{
layerId = "C023BAC7-6FF9-47E4-9D72-1131A8F8A065";
name = "Light Italic";
paths = (
{
closed = 1;
nodes = (
"590 -15 OFFCURVE",
"769 131 OFFCURVE",
"816 349 CURVE SMOOTH",
"862 568 OFFCURVE",
"737 714 OFFCURVE",
"532 714 CURVE SMOOTH",
"321 714 OFFCURVE",
"140 568 OFFCURVE",
"94 349 CURVE SMOOTH",
"47 131 OFFCURVE",
"172 -15 OFFCURVE",
"377 -15 CURVE SMOOTH"
);
},
{
closed = 1;
nodes = (
"190 9 OFFCURVE",
"75 139 OFFCURVE",
"120 349 CURVE SMOOTH",
"164 558 OFFCURVE",
"340 690 OFFCURVE",
"527 690 CURVE SMOOTH",
"723 690 OFFCURVE",
"834 558 OFFCURVE",
"790 349 CURVE SMOOTH",
"745 139 OFFCURVE",
"566 9 OFFCURVE",
"382 9 CURVE SMOOTH"
);
},
{
closed = 1;
nodes = (
"558 784 LINE",
"718 935 LINE",
"685 935 LINE",
"549 806 LINE",
"469 935 LINE",
"440 935 LINE",
"536 784 LINE"
);
}
);
width = 842;
}
);
leftKerningGroup = O;
note = Ocaron;
rightKerningGroup = O;
unicode = 01D1;
},
{
glyphname = Ocircumflex;
lastChange = "2015-10-27 23:55:44 +0000";
layers = (
{
layerId = "C023BAC7-6FF9-47E4-9D72-1131A8F8A065";
name = "Light Italic";
paths = (
{
closed = 1;
nodes = (
"590 -15 OFFCURVE",
"769 131 OFFCURVE",
"816 349 CURVE SMOOTH",
"862 568 OFFCURVE",
"737 714 OFFCURVE",
"532 714 CURVE SMOOTH",
"321 714 OFFCURVE",
"140 568 OFFCURVE",
"94 349 CURVE SMOOTH",
"47 131 OFFCURVE",
"172 -15 OFFCURVE",
"377 -15 CURVE SMOOTH"
);
},
{
closed = 1;
nodes = (
"190 9 OFFCURVE",
"75 139 OFFCURVE",
"120 349 CURVE SMOOTH",
"164 558 OFFCURVE",
"340 690 OFFCURVE",
"527 690 CURVE SMOOTH",
"723 690 OFFCURVE",
"834 558 OFFCURVE",
"790 349 CURVE SMOOTH",
"745 139 OFFCURVE",
"566 9 OFFCURVE",
"382 9 CURVE SMOOTH"
);
},
{
closed = 1;
nodes = (
"439 798 LINE",
"574 927 LINE",
"655 798 LINE",
"684 798 LINE",
"588 949 LINE",
"566 949 LINE",
"407 798 LINE"
);
}
);
width = 842;
}
);
leftKerningGroup = O;
note = Ocircumflex;
rightKerningGroup = O;
unicode = 00D4;
},
{
glyphname = Ocircumflexacute;
lastChange = "2015-10-27 23:55:45 +0000";
layers = (
{
layerId = "C023BAC7-6FF9-47E4-9D72-1131A8F8A065";
name = "Light Italic";
paths = (
{
closed = 1;
nodes = (
"590 -15 OFFCURVE",
"769 131 OFFCURVE",
"816 349 CURVE SMOOTH",
"862 568 OFFCURVE",
"737 714 OFFCURVE",
"532 714 CURVE SMOOTH",
"321 714 OFFCURVE",
"140 568 OFFCURVE",
"94 349 CURVE SMOOTH",
"47 131 OFFCURVE",
"172 -15 OFFCURVE",
"377 -15 CURVE SMOOTH"
);
},
{
closed = 1;
nodes = (
"190 9 OFFCURVE",
"75 139 OFFCURVE",
"120 349 CURVE SMOOTH",
"164 558 OFFCURVE",
"340 690 OFFCURVE",
"527 690 CURVE SMOOTH",
"723 690 OFFCURVE",
"834 558 OFFCURVE",
"790 349 CURVE SMOOTH",
"745 139 OFFCURVE",
"566 9 OFFCURVE",
"382 9 CURVE SMOOTH"
);
},
{
closed = 1;
nodes = (
"434 757 LINE",
"563 859 LINE",
"650 757 LINE",
"681 757 LINE",
"578 878 LINE",
"556 878 LINE",
"403 757 LINE"
);
},
{
closed = 1;
nodes = (
"663 840 LINE",
"756 948 LINE",
"728 948 LINE",
"641 840 LINE"
);
}
);
width = 842;
}
);
leftKerningGroup = O;
note = Ocircumflexacute;
rightKerningGroup = O;
unicode = 1ED0;
},
{
glyphname = Ocircumflexdotbelow;
lastChange = "2015-10-27 23:55:46 +0000";
layers = (
{
layerId = "C023BAC7-6FF9-47E4-9D72-1131A8F8A065";
name = "Light Italic";
paths = (
{
closed = 1;
nodes = (
"590 -15 OFFCURVE",
"769 131 OFFCURVE",
"816 349 CURVE SMOOTH",
"862 568 OFFCURVE",
"737 714 OFFCURVE",
"532 714 CURVE SMOOTH",
"321 714 OFFCURVE",
"140 568 OFFCURVE",
"94 349 CURVE SMOOTH",
"47 131 OFFCURVE",
"172 -15 OFFCURVE",
"377 -15 CURVE SMOOTH"
);
},
{
closed = 1;
nodes = (
"371 -121 OFFCURVE",
"386 -108 OFFCURVE",
"389 -93 CURVE SMOOTH",
"392 -78 OFFCURVE",
"382 -65 OFFCURVE",
"368 -65 CURVE SMOOTH",
"353 -65 OFFCURVE",
"337 -78 OFFCURVE",
"334 -93 CURVE SMOOTH",
"331 -108 OFFCURVE",
"341 -121 OFFCURVE",
"356 -121 CURVE SMOOTH"
);
},
{
closed = 1;
nodes = (
"190 9 OFFCURVE",
"75 139 OFFCURVE",
"120 349 CURVE SMOOTH",
"164 558 OFFCURVE",
"340 690 OFFCURVE",
"527 690 CURVE SMOOTH",
"723 690 OFFCURVE",
"834 558 OFFCURVE",
"790 349 CURVE SMOOTH",
"745 139 OFFCURVE",
"566 9 OFFCURVE",
"382 9 CURVE SMOOTH"
);
},
{
closed = 1;
nodes = (
"441 784 LINE",
"576 913 LINE",
"657 784 LINE",
"686 784 LINE",
"590 935 LINE",
"568 935 LINE",
"409 784 LINE"
);
}
);
width = 842;
}
);
leftKerningGroup = O;
note = Ocircumflexdotbelow;
rightKerningGroup = O;
unicode = 1ED8;
},
{
glyphname = Ocircumflexgrave;
lastChange = "2015-10-27 23:55:44 +0000";
layers = (
{
layerId = "C023BAC7-6FF9-47E4-9D72-1131A8F8A065";
name = "Light Italic";
paths = (
{
closed = 1;
nodes = (
"590 -15 OFFCURVE",
"769 131 OFFCURVE",
"816 349 CURVE SMOOTH",
"862 568 OFFCURVE",
"737 714 OFFCURVE",
"532 714 CURVE SMOOTH",
"321 714 OFFCURVE",
"140 568 OFFCURVE",
"94 349 CURVE SMOOTH",
"47 131 OFFCURVE",
"172 -15 OFFCURVE",
"377 -15 CURVE SMOOTH"
);
},
{
closed = 1;
nodes = (
"190 9 OFFCURVE",
"75 139 OFFCURVE",
"120 349 CURVE SMOOTH",
"164 558 OFFCURVE",
"340 690 OFFCURVE",
"527 690 CURVE SMOOTH",
"723 690 OFFCURVE",
"834 558 OFFCURVE",
"790 349 CURVE SMOOTH",
"745 139 OFFCURVE",
"566 9 OFFCURVE",
"382 9 CURVE SMOOTH"
);
},
{
closed = 1;
nodes = (
"463 840 LINE",
"421 948 LINE",
"393 948 LINE",
"441 840 LINE"
);
},
{
closed = 1;
nodes = (
"420 757 LINE",
"549 859 LINE",
"636 757 LINE",
"666 757 LINE",
"564 878 LINE",
"542 878 LINE",
"389 757 LINE"
);
}
);
width = 842;
}
);
leftKerningGroup = O;
note = Ocircumflexgrave;
rightKerningGroup = O;
unicode = 1ED2;
},
{
glyphname = Ocircumflexhookabove;
lastChange = "2015-10-27 23:55:45 +0000";
layers = (
{
layerId = "C023BAC7-6FF9-47E4-9D72-1131A8F8A065";
name = "Light Italic";
paths = (
{
closed = 1;
nodes = (
"590 -15 OFFCURVE",
"769 131 OFFCURVE",
"816 349 CURVE SMOOTH",
"862 568 OFFCURVE",
"737 714 OFFCURVE",
"532 714 CURVE SMOOTH",
"321 714 OFFCURVE",
"140 568 OFFCURVE",
"94 349 CURVE SMOOTH",
"47 131 OFFCURVE",
"172 -15 OFFCURVE",
"377 -15 CURVE SMOOTH"
);
},
{
closed = 1;
nodes = (
"190 9 OFFCURVE",
"75 139 OFFCURVE",
"120 349 CURVE SMOOTH",
"164 558 OFFCURVE",
"340 690 OFFCURVE",
"527 690 CURVE SMOOTH",
"723 690 OFFCURVE",
"834 558 OFFCURVE",
"790 349 CURVE SMOOTH",
"745 139 OFFCURVE",
"566 9 OFFCURVE",
"382 9 CURVE SMOOTH"
);
},
{
closed = 1;
nodes = (
"430 757 LINE",
"559 859 LINE",
"646 757 LINE",
"676 757 LINE",
"574 878 LINE",
"552 878 LINE",
"399 757 LINE"
);
},
{
closed = 1;
nodes = (
"658 830 LINE",
"664 857 LINE",
"707 859 OFFCURVE",
"738 882 OFFCURVE",
"746 917 CURVE",
"753 954 OFFCURVE",
"738 979 OFFCURVE",
"689 979 CURVE SMOOTH",
"671 979 OFFCURVE",
"651 975 OFFCURVE",
"639 971 CURVE",
"634 948 LINE",
"646 953 OFFCURVE",
"667 957 OFFCURVE",
"684 957 CURVE SMOOTH",
"714 957 OFFCURVE",
"728 947 OFFCURVE",
"722 917 CURVE SMOOTH",
"715 886 OFFCURVE",
"694 875 OFFCURVE",
"647 875 CURVE",
"637 830 LINE"
);
}
);
width = 842;
}
);
leftKerningGroup = O;
note = Ocircumflexhookabove;
rightKerningGroup = O;
unicode = 1ED4;
},
{
glyphname = Ocircumflextilde;
lastChange = "2015-10-27 23:55:45 +0000";
layers = (
{
layerId = "C023BAC7-6FF9-47E4-9D72-1131A8F8A065";
name = "Light Italic";
paths = (
{
closed = 1;
nodes = (
"590 -15 OFFCURVE",
"769 131 OFFCURVE",
"816 349 CURVE SMOOTH",
"862 568 OFFCURVE",
"737 714 OFFCURVE",
"532 714 CURVE SMOOTH",
"321 714 OFFCURVE",
"140 568 OFFCURVE",
"94 349 CURVE SMOOTH",
"47 131 OFFCURVE",
"172 -15 OFFCURVE",
"377 -15 CURVE SMOOTH"
);
},
{
closed = 1;
nodes = (
"190 9 OFFCURVE",
"75 139 OFFCURVE",
"120 349 CURVE SMOOTH",
"164 558 OFFCURVE",
"340 690 OFFCURVE",
"527 690 CURVE SMOOTH",
"723 690 OFFCURVE",
"834 558 OFFCURVE",
"790 349 CURVE SMOOTH",
"745 139 OFFCURVE",
"566 9 OFFCURVE",
"382 9 CURVE SMOOTH"
);
},
{
closed = 1;
nodes = (
"612 760 OFFCURVE",
"670 808 OFFCURVE",
"683 868 CURVE",
"659 868 LINE",
"649 820 OFFCURVE",
"606 783 OFFCURVE",
"547 783 CURVE SMOOTH",
"489 783 OFFCURVE",
"461 820 OFFCURVE",
"471 868 CURVE",
"447 868 LINE",
"434 808 OFFCURVE",
"472 760 OFFCURVE",
"542 760 CURVE SMOOTH"
);
},
{
closed = 1;
nodes = (
"676 896 OFFCURVE",
"698 907 OFFCURVE",
"718 933 CURVE",
"724 963 LINE",
"698 928 OFFCURVE",
"677 918 OFFCURVE",
"647 918 CURVE SMOOTH",
"605 918 OFFCURVE",
"559 964 OFFCURVE",
"514 964 CURVE SMOOTH",
"480 964 OFFCURVE",
"457 953 OFFCURVE",
"438 927 CURVE",
"431 897 LINE",
"460 932 OFFCURVE",
"480 942 OFFCURVE",
"510 942 CURVE SMOOTH",
"551 942 OFFCURVE",
"593 896 OFFCURVE",
"642 896 CURVE SMOOTH"
);
}
);
width = 842;
}
);
leftKerningGroup = O;
note = Ocircumflextilde;
rightKerningGroup = O;
unicode = 1ED6;
},
{
glyphname = Odieresis;
lastChange = "2015-10-27 23:55:44 +0000";
layers = (
{
layerId = "C023BAC7-6FF9-47E4-9D72-1131A8F8A065";
name = "Light Italic";
paths = (
{
closed = 1;
nodes = (
"590 -15 OFFCURVE",
"769 131 OFFCURVE",
"816 349 CURVE SMOOTH",
"862 568 OFFCURVE",
"737 714 OFFCURVE",
"532 714 CURVE SMOOTH",
"321 714 OFFCURVE",
"140 568 OFFCURVE",
"94 349 CURVE SMOOTH",
"47 131 OFFCURVE",
"172 -15 OFFCURVE",
"377 -15 CURVE SMOOTH"
);
},
{
closed = 1;
nodes = (
"190 9 OFFCURVE",
"75 139 OFFCURVE",
"120 349 CURVE SMOOTH",
"164 558 OFFCURVE",
"340 690 OFFCURVE",
"527 690 CURVE SMOOTH",
"723 690 OFFCURVE",
"834 558 OFFCURVE",
"790 349 CURVE SMOOTH",
"745 139 OFFCURVE",
"566 9 OFFCURVE",
"382 9 CURVE SMOOTH"
);
},
{
closed = 1;
nodes = (
"467 802 OFFCURVE",
"482 815 OFFCURVE",
"486 830 CURVE",
"489 845 OFFCURVE",
"478 858 OFFCURVE",
"463 858 CURVE SMOOTH",
"448 858 OFFCURVE",
"433 845 OFFCURVE",
"430 830 CURVE",
"426 815 OFFCURVE",
"437 802 OFFCURVE",
"452 802 CURVE SMOOTH"
);
},
{
closed = 1;
nodes = (
"665 802 OFFCURVE",
"680 815 OFFCURVE",
"684 830 CURVE",
"687 845 OFFCURVE",
"676 858 OFFCURVE",
"661 858 CURVE SMOOTH",
"646 858 OFFCURVE",
"631 845 OFFCURVE",
"628 830 CURVE",
"624 815 OFFCURVE",
"635 802 OFFCURVE",
"650 802 CURVE SMOOTH"
);
}
);
width = 842;
}
);
leftKerningGroup = O;
note = Odieresis;
rightKerningGroup = O;
unicode = 00D6;
},
{
glyphname = Odotbelow;
lastChange = "2015-10-27 23:55:45 +0000";
layers = (
{
layerId = "C023BAC7-6FF9-47E4-9D72-1131A8F8A065";
name = "Light Italic";
paths = (
{
closed = 1;
nodes = (
"590 -15 OFFCURVE",
"769 131 OFFCURVE",
"816 349 CURVE SMOOTH",
"862 568 OFFCURVE",
"737 714 OFFCURVE",
"532 714 CURVE SMOOTH",
"321 714 OFFCURVE",
"140 568 OFFCURVE",
"94 349 CURVE SMOOTH",
"47 131 OFFCURVE",
"172 -15 OFFCURVE",
"377 -15 CURVE SMOOTH"
);
},
{
closed = 1;
nodes = (
"371 -121 OFFCURVE",
"386 -108 OFFCURVE",
"389 -93 CURVE SMOOTH",
"392 -78 OFFCURVE",
"382 -65 OFFCURVE",
"368 -65 CURVE SMOOTH",
"353 -65 OFFCURVE",
"337 -78 OFFCURVE",
"334 -93 CURVE SMOOTH",
"331 -108 OFFCURVE",
"341 -121 OFFCURVE",
"356 -121 CURVE SMOOTH"
);
},
{
closed = 1;
nodes = (
"190 9 OFFCURVE",
"75 139 OFFCURVE",
"120 349 CURVE SMOOTH",
"164 558 OFFCURVE",
"340 690 OFFCURVE",
"527 690 CURVE SMOOTH",
"723 690 OFFCURVE",
"834 558 OFFCURVE",
"790 349 CURVE SMOOTH",
"745 139 OFFCURVE",
"566 9 OFFCURVE",
"382 9 CURVE SMOOTH"
);
}
);
width = 842;
}
);
leftKerningGroup = O;
note = Odotbelow;
rightKerningGroup = O;
unicode = 1ECC;
},
{
glyphname = Ograve;
lastChange = "2015-10-27 23:55:44 +0000";
layers = (
{
layerId = "C023BAC7-6FF9-47E4-9D72-1131A8F8A065";
name = "Light Italic";
paths = (
{
closed = 1;
nodes = (
"590 -15 OFFCURVE",
"769 131 OFFCURVE",
"816 349 CURVE SMOOTH",
"862 568 OFFCURVE",
"737 714 OFFCURVE",
"532 714 CURVE SMOOTH",
"321 714 OFFCURVE",
"140 568 OFFCURVE",
"94 349 CURVE SMOOTH",
"47 131 OFFCURVE",
"172 -15 OFFCURVE",
"377 -15 CURVE SMOOTH"
);
},
{
closed = 1;
nodes = (
"190 9 OFFCURVE",
"75 139 OFFCURVE",
"120 349 CURVE SMOOTH",
"164 558 OFFCURVE",
"340 690 OFFCURVE",
"527 690 CURVE SMOOTH",
"723 690 OFFCURVE",
"834 558 OFFCURVE",
"790 349 CURVE SMOOTH",
"745 139 OFFCURVE",
"566 9 OFFCURVE",
"382 9 CURVE SMOOTH"
);
},
{
closed = 1;
nodes = (
"581 792 LINE",
"546 959 LINE",
"518 959 LINE",
"559 792 LINE"
);
}
);
width = 842;
}
);
leftKerningGroup = O;
note = Ograve;
rightKerningGroup = O;
unicode = 00D2;
},
{
glyphname = Ohookabove;
lastChange = "2015-10-27 23:55:46 +0000";
layers = (
{
layerId = "C023BAC7-6FF9-47E4-9D72-1131A8F8A065";
name = "Light Italic";
paths = (
{
closed = 1;
nodes = (
"590 -15 OFFCURVE",
"769 131 OFFCURVE",
"816 349 CURVE SMOOTH",
"862 568 OFFCURVE",
"737 714 OFFCURVE",
"532 714 CURVE SMOOTH",
"321 714 OFFCURVE",
"140 568 OFFCURVE",
"94 349 CURVE SMOOTH",
"47 131 OFFCURVE",
"172 -15 OFFCURVE",
"377 -15 CURVE SMOOTH"
);
},
{
closed = 1;
nodes = (
"190 9 OFFCURVE",
"75 139 OFFCURVE",
"120 349 CURVE SMOOTH",
"164 558 OFFCURVE",
"340 690 OFFCURVE",
"527 690 CURVE SMOOTH",
"723 690 OFFCURVE",
"834 558 OFFCURVE",
"790 349 CURVE SMOOTH",
"745 139 OFFCURVE",
"566 9 OFFCURVE",
"382 9 CURVE SMOOTH"
);
},
{
closed = 1;
nodes = (
"549 784 LINE",
"558 828 LINE",
"624 831 OFFCURVE",
"663 866 OFFCURVE",
"674 915 CURVE SMOOTH",
"684 965 OFFCURVE",
"658 1001 OFFCURVE",
"589 1001 CURVE SMOOTH",
"569 1001 OFFCURVE",
"544 997 OFFCURVE",
"532 993 CURVE",
"527 969 LINE",
"540 974 OFFCURVE",
"566 977 OFFCURVE",
"584 977 CURVE SMOOTH",
"632 977 OFFCURVE",
"657 958 OFFCURVE",
"647 914 CURVE SMOOTH",
"638 870 OFFCURVE",
"611 847 OFFCURVE",
"539 847 CURVE",
"526 784 LINE"
);
}
);
width = 842;
}
);
leftKerningGroup = O;
note = Ohookabove;
rightKerningGroup = O;
unicode = 1ECE;
},
{
glyphname = Ohorn;
lastChange = "2015-10-27 23:55:45 +0000";
layers = (
{
layerId = "C023BAC7-6FF9-47E4-9D72-1131A8F8A065";
name = "Light Italic";
paths = (
{
closed = 1;
nodes = (
"591 -15 OFFCURVE",
"769 131 OFFCURVE",
"816 349 CURVE SMOOTH",
"837 450 OFFCURVE",
"821 536 OFFCURVE",
"779 599 CURVE",
"839 610 OFFCURVE",
"893 657 OFFCURVE",
"904 710 CURVE SMOOTH",
"912 747 LINE",
"888 747 LINE",
"880 710 LINE SMOOTH",
"870 663 OFFCURVE",
"820 622 OFFCURVE",
"762 620 CURVE",
"711 680 OFFCURVE",
"631 714 OFFCURVE",
"532 714 CURVE SMOOTH",
"318 714 OFFCURVE",
"140 568 OFFCURVE",
"94 349 CURVE SMOOTH",
"47 131 OFFCURVE",
"175 -15 OFFCURVE",
"377 -15 CURVE SMOOTH"
);
},
{
closed = 1;
nodes = (
"198 9 OFFCURVE",
"75 139 OFFCURVE",
"120 349 CURVE SMOOTH",
"164 558 OFFCURVE",
"340 690 OFFCURVE",
"527 690 CURVE SMOOTH",
"724 690 OFFCURVE",
"834 558 OFFCURVE",
"790 349 CURVE SMOOTH",
"745 139 OFFCURVE",
"566 9 OFFCURVE",
"382 9 CURVE SMOOTH"
);
}
);
width = 824;
}
);
leftKerningGroup = O;
note = Ohorn;
rightKerningGroup = O;
unicode = 01A0;
},
{
glyphname = Ohornacute;
lastChange = "2015-10-27 23:55:44 +0000";
layers = (
{
layerId = "C023BAC7-6FF9-47E4-9D72-1131A8F8A065";
name = "Light Italic";
paths = (
{
closed = 1;
nodes = (
"591 -15 OFFCURVE",
"769 131 OFFCURVE",
"816 349 CURVE SMOOTH",
"837 450 OFFCURVE",
"821 536 OFFCURVE",
"779 599 CURVE",
"839 610 OFFCURVE",
"893 657 OFFCURVE",
"904 710 CURVE SMOOTH",
"912 747 LINE",
"888 747 LINE",
"880 710 LINE SMOOTH",
"870 663 OFFCURVE",
"820 622 OFFCURVE",
"762 620 CURVE",
"711 680 OFFCURVE",
"631 714 OFFCURVE",
"532 714 CURVE SMOOTH",
"318 714 OFFCURVE",
"140 568 OFFCURVE",
"94 349 CURVE SMOOTH",
"47 131 OFFCURVE",
"175 -15 OFFCURVE",
"377 -15 CURVE SMOOTH"
);
},
{
closed = 1;
nodes = (
"198 9 OFFCURVE",
"75 139 OFFCURVE",
"120 349 CURVE SMOOTH",
"164 558 OFFCURVE",
"340 690 OFFCURVE",
"527 690 CURVE SMOOTH",
"724 690 OFFCURVE",
"834 558 OFFCURVE",
"790 349 CURVE SMOOTH",
"745 139 OFFCURVE",
"566 9 OFFCURVE",
"382 9 CURVE SMOOTH"
);
},
{
closed = 1;
nodes = (
"567 783 LINE",
"680 950 LINE",
"652 950 LINE",
"545 783 LINE"
);
}
);
width = 834;
}
);
leftKerningGroup = O;
note = Ohornacute;
rightKerningGroup = O;
unicode = 1EDA;
},
{
glyphname = Ohorndotbelow;
lastChange = "2015-10-27 23:55:45 +0000";
layers = (
{
layerId = "C023BAC7-6FF9-47E4-9D72-1131A8F8A065";
name = "Light Italic";
paths = (
{
closed = 1;
nodes = (
"591 -15 OFFCURVE",
"769 131 OFFCURVE",
"816 349 CURVE SMOOTH",
"837 450 OFFCURVE",
"821 536 OFFCURVE",
"779 599 CURVE",
"839 610 OFFCURVE",
"893 657 OFFCURVE",
"904 710 CURVE SMOOTH",
"912 747 LINE",
"888 747 LINE",
"880 710 LINE SMOOTH",
"870 663 OFFCURVE",
"820 622 OFFCURVE",
"762 620 CURVE",
"711 680 OFFCURVE",
"631 714 OFFCURVE",
"532 714 CURVE SMOOTH",
"318 714 OFFCURVE",
"140 568 OFFCURVE",
"94 349 CURVE SMOOTH",
"47 131 OFFCURVE",
"175 -15 OFFCURVE",
"377 -15 CURVE SMOOTH"
);
},
{
closed = 1;
nodes = (
"379 -121 OFFCURVE",
"394 -108 OFFCURVE",
"397 -93 CURVE SMOOTH",
"400 -78 OFFCURVE",
"390 -65 OFFCURVE",
"376 -65 CURVE SMOOTH",
"361 -65 OFFCURVE",
"345 -78 OFFCURVE",
"342 -93 CURVE SMOOTH",
"339 -108 OFFCURVE",
"349 -121 OFFCURVE",
"364 -121 CURVE SMOOTH"
);
},
{
closed = 1;
nodes = (
"198 9 OFFCURVE",
"75 139 OFFCURVE",
"120 349 CURVE SMOOTH",
"164 558 OFFCURVE",
"340 690 OFFCURVE",
"527 690 CURVE SMOOTH",
"724 690 OFFCURVE",
"834 558 OFFCURVE",
"790 349 CURVE SMOOTH",
"745 139 OFFCURVE",
"566 9 OFFCURVE",
"382 9 CURVE SMOOTH"
);
}
);
width = 834;
}
);
leftKerningGroup = O;
note = Ohorndotbelow;
rightKerningGroup = O;
unicode = 1EE2;
},
{
glyphname = Ohorngrave;
lastChange = "2015-10-27 23:55:45 +0000";
layers = (
{
layerId = "C023BAC7-6FF9-47E4-9D72-1131A8F8A065";
name = "Light Italic";
paths = (
{
closed = 1;
nodes = (
"591 -15 OFFCURVE",
"769 131 OFFCURVE",
"816 349 CURVE SMOOTH",
"837 450 OFFCURVE",
"821 536 OFFCURVE",
"779 599 CURVE",
"839 610 OFFCURVE",
"893 657 OFFCURVE",
"904 710 CURVE SMOOTH",
"912 747 LINE",
"888 747 LINE",
"880 710 LINE SMOOTH",
"870 663 OFFCURVE",
"820 622 OFFCURVE",
"762 620 CURVE",
"711 680 OFFCURVE",
"631 714 OFFCURVE",
"532 714 CURVE SMOOTH",
"318 714 OFFCURVE",
"140 568 OFFCURVE",
"94 349 CURVE SMOOTH",
"47 131 OFFCURVE",
"175 -15 OFFCURVE",
"377 -15 CURVE SMOOTH"
);
},
{
closed = 1;
nodes = (
"198 9 OFFCURVE",
"75 139 OFFCURVE",
"120 349 CURVE SMOOTH",
"164 558 OFFCURVE",
"340 690 OFFCURVE",
"527 690 CURVE SMOOTH",
"724 690 OFFCURVE",
"834 558 OFFCURVE",
"790 349 CURVE SMOOTH",
"745 139 OFFCURVE",
"566 9 OFFCURVE",
"382 9 CURVE SMOOTH"
);
},
{
closed = 1;
nodes = (
"575 783 LINE",
"540 950 LINE",
"512 950 LINE",
"553 783 LINE"
);
}
);
width = 834;
}
);
leftKerningGroup = O;
note = Ohorngrave;
rightKerningGroup = O;
unicode = 1EDC;
},
{
glyphname = Ohornhookabove;
lastChange = "2015-10-27 23:55:45 +0000";
layers = (
{
layerId = "C023BAC7-6FF9-47E4-9D72-1131A8F8A065";
name = "Light Italic";
paths = (
{
closed = 1;
nodes = (
"591 -15 OFFCURVE",
"769 131 OFFCURVE",
"816 349 CURVE SMOOTH",
"837 450 OFFCURVE",
"821 536 OFFCURVE",
"779 599 CURVE",
"839 610 OFFCURVE",
"893 657 OFFCURVE",
"904 710 CURVE SMOOTH",
"912 747 LINE",
"888 747 LINE",
"880 710 LINE SMOOTH",
"870 663 OFFCURVE",
"820 622 OFFCURVE",
"762 620 CURVE",
"711 680 OFFCURVE",
"631 714 OFFCURVE",
"532 714 CURVE SMOOTH",
"318 714 OFFCURVE",
"140 568 OFFCURVE",
"94 349 CURVE SMOOTH",
"47 131 OFFCURVE",
"175 -15 OFFCURVE",
"377 -15 CURVE SMOOTH"
);
},
{
closed = 1;
nodes = (
"198 9 OFFCURVE",
"75 139 OFFCURVE",
"120 349 CURVE SMOOTH",
"164 558 OFFCURVE",
"340 690 OFFCURVE",
"527 690 CURVE SMOOTH",
"724 690 OFFCURVE",
"834 558 OFFCURVE",
"790 349 CURVE SMOOTH",
"745 139 OFFCURVE",
"566 9 OFFCURVE",
"382 9 CURVE SMOOTH"
);
},
{
closed = 1;
nodes = (
"567 784 LINE",
"576 828 LINE",
"642 831 OFFCURVE",
"681 866 OFFCURVE",
"692 915 CURVE SMOOTH",
"702 965 OFFCURVE",
"676 1001 OFFCURVE",
"607 1001 CURVE SMOOTH",
"587 1001 OFFCURVE",
"562 997 OFFCURVE",
"550 993 CURVE",
"545 969 LINE",
"558 974 OFFCURVE",
"584 977 OFFCURVE",
"602 977 CURVE SMOOTH",
"650 977 OFFCURVE",
"675 958 OFFCURVE",
"665 914 CURVE SMOOTH",
"656 870 OFFCURVE",
"629 847 OFFCURVE",
"557 847 CURVE",
"544 784 LINE"
);
}
);
width = 834;
}
);
leftKerningGroup = O;
note = Ohornhookabove;
rightKerningGroup = O;
unicode = 1EDE;
},
{
glyphname = Ohorntilde;
lastChange = "2015-10-27 23:55:44 +0000";
layers = (
{
layerId = "C023BAC7-6FF9-47E4-9D72-1131A8F8A065";
name = "Light Italic";
paths = (
{
closed = 1;
nodes = (
"591 -15 OFFCURVE",
"769 131 OFFCURVE",
"816 349 CURVE SMOOTH",
"837 450 OFFCURVE",
"821 536 OFFCURVE",
"779 599 CURVE",
"839 610 OFFCURVE",
"893 657 OFFCURVE",
"904 710 CURVE SMOOTH",
"912 747 LINE",
"888 747 LINE",
"880 710 LINE SMOOTH",
"870 663 OFFCURVE",
"820 622 OFFCURVE",
"762 620 CURVE",
"711 680 OFFCURVE",
"631 714 OFFCURVE",
"532 714 CURVE SMOOTH",
"318 714 OFFCURVE",
"140 568 OFFCURVE",
"94 349 CURVE SMOOTH",
"47 131 OFFCURVE",
"175 -15 OFFCURVE",
"377 -15 CURVE SMOOTH"
);
},
{
closed = 1;
nodes = (
"198 9 OFFCURVE",
"75 139 OFFCURVE",
"120 349 CURVE SMOOTH",
"164 558 OFFCURVE",
"340 690 OFFCURVE",
"527 690 CURVE SMOOTH",
"724 690 OFFCURVE",
"834 558 OFFCURVE",
"790 349 CURVE SMOOTH",
"745 139 OFFCURVE",
"566 9 OFFCURVE",
"382 9 CURVE SMOOTH"
);
},
{
closed = 1;
nodes = (
"419 827 OFFCURVE",
"451 838 OFFCURVE",
"484 838 CURVE SMOOTH",
"548 838 OFFCURVE",
"574 788 OFFCURVE",
"647 788 CURVE SMOOTH",
"684 788 OFFCURVE",
"720 800 OFFCURVE",
"746 833 CURVE",
"753 866 LINE",
"719 823 OFFCURVE",
"685 812 OFFCURVE",
"652 812 CURVE SMOOTH",
"587 812 OFFCURVE",
"557 862 OFFCURVE",
"489 862 CURVE SMOOTH",
"452 862 OFFCURVE",
"416 850 OFFCURVE",
"389 817 CURVE",
"382 784 LINE"
);
}
);
width = 834;
}
);
leftKerningGroup = O;
note = Ohorntilde;
rightKerningGroup = O;
unicode = 1EE0;
},
{
glyphname = Ohungarumlaut;
lastChange = "2015-10-27 23:55:44 +0000";
layers = (
{
layerId = "C023BAC7-6FF9-47E4-9D72-1131A8F8A065";
name = "Light Italic";
paths = (
{
closed = 1;
nodes = (
"590 -15 OFFCURVE",
"769 131 OFFCURVE",
"816 349 CURVE SMOOTH",
"862 568 OFFCURVE",
"737 714 OFFCURVE",
"532 714 CURVE SMOOTH",
"321 714 OFFCURVE",
"140 568 OFFCURVE",
"94 349 CURVE SMOOTH",
"47 131 OFFCURVE",
"172 -15 OFFCURVE",
"377 -15 CURVE SMOOTH"
);
},
{
closed = 1;
nodes = (
"190 9 OFFCURVE",
"75 139 OFFCURVE",
"120 349 CURVE SMOOTH",
"164 558 OFFCURVE",
"340 690 OFFCURVE",
"527 690 CURVE SMOOTH",
"723 690 OFFCURVE",
"834 558 OFFCURVE",
"790 349 CURVE SMOOTH",
"745 139 OFFCURVE",
"566 9 OFFCURVE",
"382 9 CURVE SMOOTH"
);
},
{
closed = 1;
nodes = (
"450 780 LINE",
"563 947 LINE",
"535 947 LINE",
"429 780 LINE"
);
},
{
closed = 1;
nodes = (
"617 780 LINE",
"730 947 LINE",
"702 947 LINE",
"595 780 LINE"
);
}
);
width = 842;
}
);
leftKerningGroup = O;
note = Ohungarumlaut;
rightKerningGroup = O;
unicode = 0150;
},
{
glyphname = Omacron;
lastChange = "2015-10-27 23:55:44 +0000";
layers = (
{
layerId = "C023BAC7-6FF9-47E4-9D72-1131A8F8A065";
name = "Light Italic";
paths = (
{
closed = 1;
nodes = (
"590 -15 OFFCURVE",
"769 131 OFFCURVE",
"816 349 CURVE SMOOTH",
"862 568 OFFCURVE",
"737 714 OFFCURVE",
"532 714 CURVE SMOOTH",
"321 714 OFFCURVE",
"140 568 OFFCURVE",
"94 349 CURVE SMOOTH",
"47 131 OFFCURVE",
"172 -15 OFFCURVE",
"377 -15 CURVE SMOOTH"
);
},
{
closed = 1;
nodes = (
"190 9 OFFCURVE",
"75 139 OFFCURVE",
"120 349 CURVE SMOOTH",
"164 558 OFFCURVE",
"340 690 OFFCURVE",
"527 690 CURVE SMOOTH",
"723 690 OFFCURVE",
"834 558 OFFCURVE",
"790 349 CURVE SMOOTH",
"745 139 OFFCURVE",
"566 9 OFFCURVE",
"382 9 CURVE SMOOTH"
);
},
{
closed = 1;
nodes = (
"673 813 LINE",
"679 837 LINE",
"401 837 LINE",
"395 813 LINE"
);
}
);
width = 842;
}
);
leftKerningGroup = O;
note = Omacron;
rightKerningGroup = O;
unicode = 014C;
},
{
glyphname = Oslash;
lastChange = "2015-10-27 23:55:46 +0000";
layers = (
{
layerId = "C023BAC7-6FF9-47E4-9D72-1131A8F8A065";
name = "Light Italic";
paths = (
{
closed = 1;
nodes = (
"208 -86 LINE",
"262 2 LINE",
"297 -9 OFFCURVE",
"335 -15 OFFCURVE",
"377 -15 CURVE SMOOTH",
"593 -15 OFFCURVE",
"769 131 OFFCURVE",
"816 349 CURVE SMOOTH",
"849 508 OFFCURVE",
"793 629 OFFCURVE",
"681 683 CURVE",
"743 784 LINE",
"715 784 LINE",
"659 692 LINE",
"621 706 OFFCURVE",
"578 714 OFFCURVE",
"532 714 CURVE SMOOTH",
"327 714 OFFCURVE",
"142 577 OFFCURVE",
"94 349 CURVE SMOOTH",
"59 185 OFFCURVE",
"120 62 OFFCURVE",
"240 11 CURVE",
"180 -86 LINE"
);
},
{
closed = 1;
nodes = (
"146 81 OFFCURVE",
"87 193 OFFCURVE",
"120 349 CURVE SMOOTH",
"164 558 OFFCURVE",
"340 690 OFFCURVE",
"527 690 CURVE SMOOTH",
"570 690 OFFCURVE",
"610 683 OFFCURVE",
"645 669 CURVE",
"254 34 LINE"
);
},
{
closed = 1;
nodes = (
"344 9 OFFCURVE",
"308 14 OFFCURVE",
"276 25 CURVE",
"667 660 LINE",
"770 613 OFFCURVE",
"822 499 OFFCURVE",
"790 349 CURVE SMOOTH",
"745 139 OFFCURVE",
"566 9 OFFCURVE",
"382 9 CURVE SMOOTH"
);
}
);
width = 842;
}
);
leftKerningGroup = O;
note = Oslash;
rightKerningGroup = O;
unicode = 00D8;
},
{
glyphname = Oslashacute;
lastChange = "2015-10-27 23:55:46 +0000";
layers = (
{
layerId = "C023BAC7-6FF9-47E4-9D72-1131A8F8A065";
name = "Light Italic";
paths = (
{
closed = 1;
nodes = (
"208 -86 LINE",
"262 2 LINE",
"297 -9 OFFCURVE",
"335 -15 OFFCURVE",
"377 -15 CURVE SMOOTH",
"593 -15 OFFCURVE",
"769 131 OFFCURVE",
"816 349 CURVE SMOOTH",
"849 508 OFFCURVE",
"793 629 OFFCURVE",
"681 683 CURVE",
"743 784 LINE",
"715 784 LINE",
"659 692 LINE",
"621 706 OFFCURVE",
"578 714 OFFCURVE",
"532 714 CURVE SMOOTH",
"327 714 OFFCURVE",
"142 577 OFFCURVE",
"94 349 CURVE SMOOTH",
"59 185 OFFCURVE",
"120 62 OFFCURVE",
"240 11 CURVE",
"180 -86 LINE"
);
},
{
closed = 1;
nodes = (
"146 81 OFFCURVE",
"87 193 OFFCURVE",
"120 349 CURVE SMOOTH",
"164 558 OFFCURVE",
"340 690 OFFCURVE",
"527 690 CURVE SMOOTH",
"570 690 OFFCURVE",
"610 683 OFFCURVE",
"645 669 CURVE",
"254 34 LINE"
);
},
{
closed = 1;
nodes = (
"344 9 OFFCURVE",
"308 14 OFFCURVE",
"276 25 CURVE",
"667 660 LINE",
"770 613 OFFCURVE",
"822 499 OFFCURVE",
"790 349 CURVE SMOOTH",
"745 139 OFFCURVE",
"566 9 OFFCURVE",
"382 9 CURVE SMOOTH"
);
},
{
closed = 1;
nodes = (
"567 784 LINE",
"680 951 LINE",
"652 951 LINE",
"545 784 LINE"
);
}
);
width = 842;
}
);
leftKerningGroup = O;
note = Oslashacute;
rightKerningGroup = O;
unicode = 01FE;
},
{
glyphname = Otilde;
lastChange = "2015-10-27 23:55:44 +0000";
layers = (
{
layerId = "C023BAC7-6FF9-47E4-9D72-1131A8F8A065";
name = "Light Italic";
paths = (
{
closed = 1;
nodes = (
"590 -15 OFFCURVE",
"769 131 OFFCURVE",
"816 349 CURVE SMOOTH",
"862 568 OFFCURVE",
"737 714 OFFCURVE",
"532 714 CURVE SMOOTH",
"321 714 OFFCURVE",
"140 568 OFFCURVE",
"94 349 CURVE SMOOTH",
"47 131 OFFCURVE",
"172 -15 OFFCURVE",
"377 -15 CURVE SMOOTH"
);
},
{
closed = 1;
nodes = (
"190 9 OFFCURVE",
"75 139 OFFCURVE",
"120 349 CURVE SMOOTH",
"164 558 OFFCURVE",
"340 690 OFFCURVE",
"527 690 CURVE SMOOTH",
"723 690 OFFCURVE",
"834 558 OFFCURVE",
"790 349 CURVE SMOOTH",
"745 139 OFFCURVE",
"566 9 OFFCURVE",
"382 9 CURVE SMOOTH"
);
},
{
closed = 1;
nodes = (
"413 853 OFFCURVE",
"445 864 OFFCURVE",
"478 864 CURVE SMOOTH",
"542 864 OFFCURVE",
"568 814 OFFCURVE",
"641 814 CURVE SMOOTH",
"678 814 OFFCURVE",
"714 826 OFFCURVE",
"740 859 CURVE",
"747 892 LINE",
"713 849 OFFCURVE",
"679 838 OFFCURVE",
"646 838 CURVE SMOOTH",
"581 838 OFFCURVE",
"551 888 OFFCURVE",
"483 888 CURVE SMOOTH",
"446 888 OFFCURVE",
"410 876 OFFCURVE",
"383 843 CURVE",
"376 810 LINE"
);
}
);
width = 842;
}
);
leftKerningGroup = O;
note = Otilde;
rightKerningGroup = O;
unicode = 00D5;
},
{
glyphname = OE;
lastChange = "2015-10-27 23:55:45 +0000";
layers = (
{
layerId = "C023BAC7-6FF9-47E4-9D72-1131A8F8A065";
name = "Light Italic";
paths = (
{
closed = 1;
nodes = (
"785 0 LINE",
"790 24 LINE",
"451 24 LINE",
"517 338 LINE",
"760 338 LINE",
"765 362 LINE",
"522 362 LINE",
"589 675 LINE",
"928 675 LINE",
"933 699 LINE",
"529 699 LINE SMOOTH",
"315 699 OFFCURVE",
"141 573 OFFCURVE",
"94 349 CURVE SMOOTH",
"48 131 OFFCURVE",
"181 0 OFFCURVE",
"381 0 CURVE SMOOTH"
);
},
{
closed = 1;
nodes = (
"202 24 OFFCURVE",
"75 139 OFFCURVE",
"120 349 CURVE SMOOTH",
"164 558 OFFCURVE",
"337 675 OFFCURVE",
"524 675 CURVE SMOOTH",
"561 675 LINE",
"423 24 LINE",
"386 24 LINE SMOOTH"
);
}
);
width = 885;
}
);
leftKerningGroup = O;
note = OE;
rightKerningGroup = E;
unicode = 0152;
},
{
glyphname = P;
lastChange = "2015-10-27 23:55:46 +0000";
layers = (
{
layerId = "C023BAC7-6FF9-47E4-9D72-1131A8F8A065";
name = "Light Italic";
paths = (
{
closed = 1;
nodes = (
"68 0 LINE",
"138 333 LINE",
"349 333 LINE SMOOTH",
"491 333 OFFCURVE",
"571 385 OFFCURVE",
"599 516 CURVE SMOOTH",
"627 647 OFFCURVE",
"563 699 OFFCURVE",
"427 699 CURVE SMOOTH",
"188 699 LINE",
"40 0 LINE"
);
},
{
closed = 1;
nodes = (
"211 675 LINE",
"425 675 LINE SMOOTH",
"535 675 OFFCURVE",
"601 646 OFFCURVE",
"573 516 CURVE SMOOTH",
"546 386 OFFCURVE",
"455 357 OFFCURVE",
"357 357 CURVE SMOOTH",
"143 357 LINE"
);
}
);
width = 570;
}
);
note = P;
unicode = 0050;
},
{
glyphname = Thorn;
lastChange = "2015-10-27 23:55:44 +0000";
layers = (
{
layerId = "C023BAC7-6FF9-47E4-9D72-1131A8F8A065";
name = "Light Italic";
paths = (
{
closed = 1;
nodes = (
"68 0 LINE",
"103 167 LINE",
"314 167 LINE SMOOTH",
"457 167 OFFCURVE",
"536 219 OFFCURVE",
"564 350 CURVE SMOOTH",
"592 481 OFFCURVE",
"524 533 OFFCURVE",
"392 533 CURVE SMOOTH",
"181 533 LINE",
"216 699 LINE",
"188 699 LINE",
"40 0 LINE"
);
},
{
closed = 1;
nodes = (
"176 509 LINE",
"390 509 LINE SMOOTH",
"492 509 OFFCURVE",
"566 480 OFFCURVE",
"538 350 CURVE SMOOTH",
"510 220 OFFCURVE",
"424 191 OFFCURVE",
"322 191 CURVE SMOOTH",
"108 191 LINE"
);
}
);
width = 590;
}
);
note = Thorn;
unicode = 00DE;
},
{
glyphname = Q;
lastChange = "2015-10-27 23:55:45 +0000";
layers = (
{
layerId = "C023BAC7-6FF9-47E4-9D72-1131A8F8A065";
name = "Light Italic";
paths = (
{
closed = 1;
nodes = (
"747 0 LINE",
"752 24 LINE",
"514 24 LINE",
"662 62 OFFCURVE",
"780 182 OFFCURVE",
"816 349 CURVE SMOOTH",
"862 568 OFFCURVE",
"737 714 OFFCURVE",
"532 714 CURVE SMOOTH",
"322 714 OFFCURVE",
"140 568 OFFCURVE",
"94 349 CURVE SMOOTH",
"49 137 OFFCURVE",
"170 0 OFFCURVE",
"386 0 CURVE SMOOTH"
);
},
{
closed = 1;
nodes = (
"197 24 OFFCURVE",
"75 139 OFFCURVE",
"120 349 CURVE SMOOTH",
"164 558 OFFCURVE",
"340 690 OFFCURVE",
"527 690 CURVE SMOOTH",
"720 690 OFFCURVE",
"834 558 OFFCURVE",
"790 349 CURVE SMOOTH",
"745 139 OFFCURVE",
"563 24 OFFCURVE",
"386 24 CURVE SMOOTH"
);
}
);
width = 847;
}
);
leftKerningGroup = O;
note = Q;
rightKerningGroup = O;
unicode = 0051;
},
{
glyphname = R;
lastChange = "2015-10-27 23:55:46 +0000";
layers = (
{
layerId = "C023BAC7-6FF9-47E4-9D72-1131A8F8A065";
name = "Light Italic";
paths = (
{
closed = 1;
nodes = (
"68 0 LINE",
"140 340 LINE",
"339 340 LINE",
"462 0 LINE",
"491 0 LINE",
"368 340 LINE",
"506 341 OFFCURVE",
"579 421 OFFCURVE",
"600 518 CURVE SMOOTH",
"625 639 OFFCURVE",
"568 699 OFFCURVE",
"436 699 CURVE SMOOTH",
"188 699 LINE",
"40 0 LINE"
);
},
{
closed = 1;
nodes = (
"211 675 LINE",
"435 675 LINE SMOOTH",
"542 675 OFFCURVE",
"599 638 OFFCURVE",
"574 518 CURVE SMOOTH",
"552 417 OFFCURVE",
"475 364 OFFCURVE",
"368 364 CURVE SMOOTH",
"145 364 LINE"
);
}
);
width = 591;
}
);
note = R;
rightKerningGroup = R;
unicode = 0052;
},
{
glyphname = Racute;
lastChange = "2015-10-27 23:55:45 +0000";
layers = (
{
layerId = "C023BAC7-6FF9-47E4-9D72-1131A8F8A065";
name = "Light Italic";
paths = (
{
closed = 1;
nodes = (
"68 0 LINE",
"140 340 LINE",
"339 340 LINE",
"462 0 LINE",
"491 0 LINE",
"368 340 LINE",
"506 341 OFFCURVE",
"579 421 OFFCURVE",
"600 518 CURVE SMOOTH",
"625 639 OFFCURVE",
"568 699 OFFCURVE",
"436 699 CURVE SMOOTH",
"188 699 LINE",
"40 0 LINE"
);
},
{
closed = 1;
nodes = (
"211 675 LINE",
"435 675 LINE SMOOTH",
"542 675 OFFCURVE",
"599 638 OFFCURVE",
"574 518 CURVE SMOOTH",
"552 417 OFFCURVE",
"475 364 OFFCURVE",
"368 364 CURVE SMOOTH",
"145 364 LINE"
);
},
{
closed = 1;
nodes = (
"379 780 LINE",
"492 947 LINE",
"464 947 LINE",
"357 780 LINE"
);
}
);
width = 591;
}
);
note = Racute;
rightKerningGroup = R;
unicode = 0154;
},
{
glyphname = Rcaron;
lastChange = "2015-10-27 23:55:46 +0000";
layers = (
{
layerId = "C023BAC7-6FF9-47E4-9D72-1131A8F8A065";
name = "Light Italic";
paths = (
{
closed = 1;
nodes = (
"68 0 LINE",
"140 340 LINE",
"339 340 LINE",
"462 0 LINE",
"491 0 LINE",
"368 340 LINE",
"506 341 OFFCURVE",
"579 421 OFFCURVE",
"600 518 CURVE SMOOTH",
"625 639 OFFCURVE",
"568 699 OFFCURVE",
"436 699 CURVE SMOOTH",
"188 699 LINE",
"40 0 LINE"
);
},
{
closed = 1;
nodes = (
"211 675 LINE",
"435 675 LINE SMOOTH",
"542 675 OFFCURVE",
"599 638 OFFCURVE",
"574 518 CURVE SMOOTH",
"552 417 OFFCURVE",
"475 364 OFFCURVE",
"368 364 CURVE SMOOTH",
"145 364 LINE"
);
},
{
closed = 1;
nodes = (
"416 784 LINE",
"576 935 LINE",
"543 935 LINE",
"407 806 LINE",
"327 935 LINE",
"298 935 LINE",
"394 784 LINE"
);
}
);
width = 591;
}
);
note = Rcaron;
rightKerningGroup = R;
unicode = 0158;
},
{
glyphname = Rcommaaccent;
lastChange = "2015-10-27 23:55:44 +0000";
layers = (
{
layerId = "C023BAC7-6FF9-47E4-9D72-1131A8F8A065";
name = "Light Italic";
paths = (
{
closed = 1;
nodes = (
"68 0 LINE",
"140 340 LINE",
"339 340 LINE",
"462 0 LINE",
"491 0 LINE",
"368 340 LINE",
"506 341 OFFCURVE",
"579 421 OFFCURVE",
"600 518 CURVE SMOOTH",
"625 639 OFFCURVE",
"568 699 OFFCURVE",
"436 699 CURVE SMOOTH",
"188 699 LINE",
"40 0 LINE"
);
},
{
closed = 1;
nodes = (
"114 -259 LINE",
"240 -70 LINE",
"209 -70 LINE",
"89 -259 LINE"
);
},
{
closed = 1;
nodes = (
"211 675 LINE",
"435 675 LINE SMOOTH",
"542 675 OFFCURVE",
"599 638 OFFCURVE",
"574 518 CURVE SMOOTH",
"552 417 OFFCURVE",
"475 364 OFFCURVE",
"368 364 CURVE SMOOTH",
"145 364 LINE"
);
}
);
width = 591;
}
);
note = Rcommaaccent;
rightKerningGroup = R;
unicode = 0156;
},
{
glyphname = Rdotbelow;
lastChange = "2015-10-27 23:55:44 +0000";
layers = (
{
layerId = "C023BAC7-6FF9-47E4-9D72-1131A8F8A065";
name = "Light Italic";
paths = (
{
closed = 1;
nodes = (
"68 0 LINE",
"140 340 LINE",
"339 340 LINE",
"462 0 LINE",
"491 0 LINE",
"368 340 LINE",
"506 341 OFFCURVE",
"579 421 OFFCURVE",
"600 518 CURVE SMOOTH",
"625 639 OFFCURVE",
"568 699 OFFCURVE",
"436 699 CURVE SMOOTH",
"188 699 LINE",
"40 0 LINE"
);
},
{
closed = 1;
nodes = (
"238 -121 OFFCURVE",
"253 -108 OFFCURVE",
"256 -93 CURVE SMOOTH",
"259 -78 OFFCURVE",
"249 -65 OFFCURVE",
"235 -65 CURVE SMOOTH",
"220 -65 OFFCURVE",
"204 -78 OFFCURVE",
"201 -93 CURVE SMOOTH",
"198 -108 OFFCURVE",
"208 -121 OFFCURVE",
"223 -121 CURVE SMOOTH"
);
},
{
closed = 1;
nodes = (
"211 675 LINE",
"435 675 LINE SMOOTH",
"542 675 OFFCURVE",
"599 638 OFFCURVE",
"574 518 CURVE SMOOTH",
"552 417 OFFCURVE",
"475 364 OFFCURVE",
"368 364 CURVE SMOOTH",
"145 364 LINE"
);
}
);
width = 591;
}
);
note = Rdotbelow;
rightKerningGroup = R;
unicode = 1E5A;
},
{
glyphname = Rdotbelowmacron;
lastChange = "2015-10-27 23:55:46 +0000";
layers = (
{
layerId = "C023BAC7-6FF9-47E4-9D72-1131A8F8A065";
name = "Light Italic";
paths = (
{
closed = 1;
nodes = (
"68 0 LINE",
"140 340 LINE",
"339 340 LINE",
"462 0 LINE",
"491 0 LINE",
"368 340 LINE",
"506 341 OFFCURVE",
"579 421 OFFCURVE",
"600 518 CURVE SMOOTH",
"625 639 OFFCURVE",
"568 699 OFFCURVE",
"436 699 CURVE SMOOTH",
"188 699 LINE",
"40 0 LINE"
);
},
{
closed = 1;
nodes = (
"214 -121 OFFCURVE",
"229 -108 OFFCURVE",
"232 -93 CURVE SMOOTH",
"235 -78 OFFCURVE",
"225 -65 OFFCURVE",
"211 -65 CURVE SMOOTH",
"196 -65 OFFCURVE",
"180 -78 OFFCURVE",
"177 -93 CURVE SMOOTH",
"174 -108 OFFCURVE",
"184 -121 OFFCURVE",
"199 -121 CURVE SMOOTH"
);
},
{
closed = 1;
nodes = (
"211 675 LINE",
"435 675 LINE SMOOTH",
"542 675 OFFCURVE",
"599 638 OFFCURVE",
"574 518 CURVE SMOOTH",
"552 417 OFFCURVE",
"475 364 OFFCURVE",
"368 364 CURVE SMOOTH",
"145 364 LINE"
);
},
{
closed = 1;
nodes = (
"537 813 LINE",
"543 837 LINE",
"265 837 LINE",
"259 813 LINE"
);
}
);
width = 591;
}
);
note = Rdotbelowmacron;
rightKerningGroup = R;
unicode = 1E5C;
},
{
glyphname = Rlinebelow;
lastChange = "2015-10-27 23:55:46 +0000";
layers = (
{
layerId = "C023BAC7-6FF9-47E4-9D72-1131A8F8A065";
name = "Light Italic";
paths = (
{
closed = 1;
nodes = (
"68 0 LINE",
"140 340 LINE",
"339 340 LINE",
"462 0 LINE",
"491 0 LINE",
"368 340 LINE",
"506 341 OFFCURVE",
"579 421 OFFCURVE",
"600 518 CURVE SMOOTH",
"625 639 OFFCURVE",
"568 699 OFFCURVE",
"436 699 CURVE SMOOTH",
"188 699 LINE",
"40 0 LINE"
);
},
{
closed = 1;
nodes = (
"347 -110 LINE",
"352 -86 LINE",
"75 -86 LINE",
"70 -110 LINE"
);
},
{
closed = 1;
nodes = (
"211 675 LINE",
"435 675 LINE SMOOTH",
"542 675 OFFCURVE",
"599 638 OFFCURVE",
"574 518 CURVE SMOOTH",
"552 417 OFFCURVE",
"475 364 OFFCURVE",
"368 364 CURVE SMOOTH",
"145 364 LINE"
);
}
);
width = 591;
}
);
note = Rlinebelow;
rightKerningGroup = R;
unicode = 1E5E;
},
{
glyphname = S;
lastChange = "2015-10-27 23:55:45 +0000";
layers = (
{
layerId = "C023BAC7-6FF9-47E4-9D72-1131A8F8A065";
name = "Light Italic";
paths = (
{
closed = 1;
nodes = (
"367 -15 OFFCURVE",
"454 49 OFFCURVE",
"478 161 CURVE SMOOTH",
"505 287 OFFCURVE",
"428 319 OFFCURVE",
"315 365 CURVE SMOOTH",
"187 417 OFFCURVE",
"152 461 OFFCURVE",
"171 547 CURVE SMOOTH",
"188 629 OFFCURVE",
"267 690 OFFCURVE",
"386 690 CURVE SMOOTH",
"453 690 OFFCURVE",
"504 679 OFFCURVE",
"554 657 CURVE",
"559 682 LINE",
"510 704 OFFCURVE",
"459 714 OFFCURVE",
"391 714 CURVE SMOOTH",
"259 714 OFFCURVE",
"166 649 OFFCURVE",
"145 547 CURVE SMOOTH",
"124 448 OFFCURVE",
"178 395 OFFCURVE",
"291 348 CURVE SMOOTH",
"431 290 OFFCURVE",
"474 264 OFFCURVE",
"452 161 CURVE SMOOTH",
"431 63 OFFCURVE",
"354 9 OFFCURVE",
"212 9 CURVE SMOOTH",
"144 9 OFFCURVE",
"83 19 OFFCURVE",
"28 42 CURVE",
"23 17 LINE",
"64 -2 OFFCURVE",
"134 -15 OFFCURVE",
"207 -15 CURVE SMOOTH"
);
}
);
width = 544;
}
);
leftKerningGroup = S;
note = S;
rightKerningGroup = S;
unicode = 0053;
},
{
glyphname = Sacute;
lastChange = "2015-10-27 23:55:46 +0000";
layers = (
{
layerId = "C023BAC7-6FF9-47E4-9D72-1131A8F8A065";
name = "Light Italic";
paths = (
{
closed = 1;
nodes = (
"367 -15 OFFCURVE",
"454 49 OFFCURVE",
"478 161 CURVE SMOOTH",
"505 287 OFFCURVE",
"428 319 OFFCURVE",
"315 365 CURVE SMOOTH",
"187 417 OFFCURVE",
"152 461 OFFCURVE",
"171 547 CURVE SMOOTH",
"188 629 OFFCURVE",
"267 690 OFFCURVE",
"386 690 CURVE SMOOTH",
"453 690 OFFCURVE",
"504 679 OFFCURVE",
"554 657 CURVE",
"559 682 LINE",
"510 704 OFFCURVE",
"459 714 OFFCURVE",
"391 714 CURVE SMOOTH",
"259 714 OFFCURVE",
"166 649 OFFCURVE",
"145 547 CURVE SMOOTH",
"124 448 OFFCURVE",
"178 395 OFFCURVE",
"291 348 CURVE SMOOTH",
"431 290 OFFCURVE",
"474 264 OFFCURVE",
"452 161 CURVE SMOOTH",
"431 63 OFFCURVE",
"354 9 OFFCURVE",
"212 9 CURVE SMOOTH",
"144 9 OFFCURVE",
"83 19 OFFCURVE",
"28 42 CURVE",
"23 17 LINE",
"64 -2 OFFCURVE",
"134 -15 OFFCURVE",
"207 -15 CURVE SMOOTH"
);
},
{
closed = 1;
nodes = (
"414 784 LINE",
"527 951 LINE",
"499 951 LINE",
"392 784 LINE"
);
}
);
width = 544;
}
);
leftKerningGroup = S;
note = Sacute;
rightKerningGroup = S;
unicode = 015A;
},
{
glyphname = Scaron;
lastChange = "2015-10-27 23:55:45 +0000";
layers = (
{
layerId = "C023BAC7-6FF9-47E4-9D72-1131A8F8A065";
name = "Light Italic";
paths = (
{
closed = 1;
nodes = (
"367 -15 OFFCURVE",
"454 49 OFFCURVE",
"478 161 CURVE SMOOTH",
"505 287 OFFCURVE",
"428 319 OFFCURVE",
"315 365 CURVE SMOOTH",
"187 417 OFFCURVE",
"152 461 OFFCURVE",
"171 547 CURVE SMOOTH",
"188 629 OFFCURVE",
"267 690 OFFCURVE",
"386 690 CURVE SMOOTH",
"453 690 OFFCURVE",
"504 679 OFFCURVE",
"554 657 CURVE",
"559 682 LINE",
"510 704 OFFCURVE",
"459 714 OFFCURVE",
"391 714 CURVE SMOOTH",
"259 714 OFFCURVE",
"166 649 OFFCURVE",
"145 547 CURVE SMOOTH",
"124 448 OFFCURVE",
"178 395 OFFCURVE",
"291 348 CURVE SMOOTH",
"431 290 OFFCURVE",
"474 264 OFFCURVE",
"452 161 CURVE SMOOTH",
"431 63 OFFCURVE",
"354 9 OFFCURVE",
"212 9 CURVE SMOOTH",
"144 9 OFFCURVE",
"83 19 OFFCURVE",
"28 42 CURVE",
"23 17 LINE",
"64 -2 OFFCURVE",
"134 -15 OFFCURVE",
"207 -15 CURVE SMOOTH"
);
},
{
closed = 1;
nodes = (
"440 784 LINE",
"600 935 LINE",
"567 935 LINE",
"431 806 LINE",
"351 935 LINE",
"322 935 LINE",
"418 784 LINE"
);
}
);
width = 544;
}
);
leftKerningGroup = S;
note = Scaron;
rightKerningGroup = S;
unicode = 0160;
},
{
glyphname = Scedilla;
lastChange = "2015-10-27 23:55:45 +0000";
layers = (
{
layerId = "C023BAC7-6FF9-47E4-9D72-1131A8F8A065";
name = "Light Italic";
paths = (
{
closed = 1;
nodes = (
"236 -248 OFFCURVE",
"276 -212 OFFCURVE",
"287 -162 CURVE SMOOTH",
"297 -113 OFFCURVE",
"275 -77 OFFCURVE",
"210 -74 CURVE",
"246 -13 LINE",
"381 -3 OFFCURVE",
"456 58 OFFCURVE",
"478 161 CURVE SMOOTH",
"505 287 OFFCURVE",
"428 319 OFFCURVE",
"315 365 CURVE SMOOTH",
"187 417 OFFCURVE",
"152 461 OFFCURVE",
"171 547 CURVE SMOOTH",
"188 629 OFFCURVE",
"267 690 OFFCURVE",
"386 690 CURVE SMOOTH",
"453 690 OFFCURVE",
"504 679 OFFCURVE",
"554 657 CURVE",
"559 682 LINE",
"510 704 OFFCURVE",
"459 714 OFFCURVE",
"391 714 CURVE SMOOTH",
"259 714 OFFCURVE",
"166 649 OFFCURVE",
"145 547 CURVE SMOOTH",
"124 448 OFFCURVE",
"178 395 OFFCURVE",
"291 348 CURVE SMOOTH",
"431 290 OFFCURVE",
"474 264 OFFCURVE",
"452 161 CURVE SMOOTH",
"431 63 OFFCURVE",
"354 9 OFFCURVE",
"212 9 CURVE SMOOTH",
"144 9 OFFCURVE",
"83 19 OFFCURVE",
"28 42 CURVE",
"23 17 LINE",
"64 -2 OFFCURVE",
"134 -15 OFFCURVE",
"207 -15 CURVE SMOOTH",
"217 -15 LINE",
"171 -93 LINE",
"252 -93 OFFCURVE",
"271 -117 OFFCURVE",
"261 -161 CURVE SMOOTH",
"252 -205 OFFCURVE",
"220 -224 OFFCURVE",
"172 -224 CURVE SMOOTH",
"154 -224 OFFCURVE",
"130 -221 OFFCURVE",
"119 -216 CURVE",
"113 -240 LINE",
"124 -244 OFFCURVE",
"147 -248 OFFCURVE",
"167 -248 CURVE SMOOTH"
);
}
);
width = 544;
}
);
leftKerningGroup = S;
note = Scedilla;
rightKerningGroup = S;
unicode = 015E;
},
{
glyphname = Scircumflex;
lastChange = "2015-10-27 23:55:45 +0000";
layers = (
{
layerId = "C023BAC7-6FF9-47E4-9D72-1131A8F8A065";
name = "Light Italic";
paths = (
{
closed = 1;
nodes = (
"367 -15 OFFCURVE",
"454 49 OFFCURVE",
"478 161 CURVE SMOOTH",
"505 287 OFFCURVE",
"428 319 OFFCURVE",
"315 365 CURVE SMOOTH",
"187 417 OFFCURVE",
"152 461 OFFCURVE",
"171 547 CURVE SMOOTH",
"188 629 OFFCURVE",
"267 690 OFFCURVE",
"386 690 CURVE SMOOTH",
"453 690 OFFCURVE",
"504 679 OFFCURVE",
"554 657 CURVE",
"559 682 LINE",
"510 704 OFFCURVE",
"459 714 OFFCURVE",
"391 714 CURVE SMOOTH",
"259 714 OFFCURVE",
"166 649 OFFCURVE",
"145 547 CURVE SMOOTH",
"124 448 OFFCURVE",
"178 395 OFFCURVE",
"291 348 CURVE SMOOTH",
"431 290 OFFCURVE",
"474 264 OFFCURVE",
"452 161 CURVE SMOOTH",
"431 63 OFFCURVE",
"354 9 OFFCURVE",
"212 9 CURVE SMOOTH",
"144 9 OFFCURVE",
"83 19 OFFCURVE",
"28 42 CURVE",
"23 17 LINE",
"64 -2 OFFCURVE",
"134 -15 OFFCURVE",
"207 -15 CURVE SMOOTH"
);
},
{
closed = 1;
nodes = (
"299 784 LINE",
"434 913 LINE",
"515 784 LINE",
"544 784 LINE",
"448 935 LINE",
"426 935 LINE",
"267 784 LINE"
);
}
);
width = 544;
}
);
leftKerningGroup = S;
note = Scircumflex;
rightKerningGroup = S;
unicode = 015C;
},
{
glyphname = Scommaaccent;
lastChange = "2015-10-27 23:55:46 +0000";
layers = (
{
layerId = "C023BAC7-6FF9-47E4-9D72-1131A8F8A065";
name = "Light Italic";
paths = (
{
closed = 1;
nodes = (
"367 -15 OFFCURVE",
"454 49 OFFCURVE",
"478 161 CURVE SMOOTH",
"505 287 OFFCURVE",
"428 319 OFFCURVE",
"315 365 CURVE SMOOTH",
"187 417 OFFCURVE",
"152 461 OFFCURVE",
"171 547 CURVE SMOOTH",
"188 629 OFFCURVE",
"267 690 OFFCURVE",
"386 690 CURVE SMOOTH",
"453 690 OFFCURVE",
"504 679 OFFCURVE",
"554 657 CURVE",
"559 682 LINE",
"510 704 OFFCURVE",
"459 714 OFFCURVE",
"391 714 CURVE SMOOTH",
"259 714 OFFCURVE",
"166 649 OFFCURVE",
"145 547 CURVE SMOOTH",
"124 448 OFFCURVE",
"178 395 OFFCURVE",
"291 348 CURVE SMOOTH",
"431 290 OFFCURVE",
"474 264 OFFCURVE",
"452 161 CURVE SMOOTH",
"431 63 OFFCURVE",
"354 9 OFFCURVE",
"212 9 CURVE SMOOTH",
"144 9 OFFCURVE",
"83 19 OFFCURVE",
"28 42 CURVE",
"23 17 LINE",
"64 -2 OFFCURVE",
"134 -15 OFFCURVE",
"207 -15 CURVE SMOOTH"
);
},
{
closed = 1;
nodes = (
"128 -259 LINE",
"253 -70 LINE",
"222 -70 LINE",
"103 -259 LINE"
);
}
);
width = 544;
}
);
leftKerningGroup = S;
note = Scommaaccent;
rightKerningGroup = S;
unicode = 0218;
},
{
glyphname = Sdotaccent;
lastChange = "2015-10-27 23:55:45 +0000";
layers = (
{
layerId = "C023BAC7-6FF9-47E4-9D72-1131A8F8A065";
name = "Light Italic";
paths = (
{
closed = 1;
nodes = (
"367 -15 OFFCURVE",
"454 49 OFFCURVE",
"478 161 CURVE SMOOTH",
"505 287 OFFCURVE",
"428 319 OFFCURVE",
"315 365 CURVE SMOOTH",
"187 417 OFFCURVE",
"152 461 OFFCURVE",
"171 547 CURVE SMOOTH",
"188 629 OFFCURVE",
"267 690 OFFCURVE",
"386 690 CURVE SMOOTH",
"453 690 OFFCURVE",
"504 679 OFFCURVE",
"554 657 CURVE",
"559 682 LINE",
"510 704 OFFCURVE",
"459 714 OFFCURVE",
"391 714 CURVE SMOOTH",
"259 714 OFFCURVE",
"166 649 OFFCURVE",
"145 547 CURVE SMOOTH",
"124 448 OFFCURVE",
"178 395 OFFCURVE",
"291 348 CURVE SMOOTH",
"431 290 OFFCURVE",
"474 264 OFFCURVE",
"452 161 CURVE SMOOTH",
"431 63 OFFCURVE",
"354 9 OFFCURVE",
"212 9 CURVE SMOOTH",
"144 9 OFFCURVE",
"83 19 OFFCURVE",
"28 42 CURVE",
"23 17 LINE",
"64 -2 OFFCURVE",
"134 -15 OFFCURVE",
"207 -15 CURVE SMOOTH"
);
},
{
closed = 1;
nodes = (
"436 790 OFFCURVE",
"451 803 OFFCURVE",
"455 818 CURVE",
"458 833 OFFCURVE",
"447 846 OFFCURVE",
"432 846 CURVE SMOOTH",
"417 846 OFFCURVE",
"402 833 OFFCURVE",
"399 818 CURVE",
"395 803 OFFCURVE",
"406 790 OFFCURVE",
"421 790 CURVE SMOOTH"
);
}
);
width = 544;
}
);
leftKerningGroup = S;
note = Sdotaccent;
rightKerningGroup = S;
unicode = 1E60;
},
{
glyphname = Sdotbelow;
lastChange = "2015-10-27 23:55:45 +0000";
layers = (
{
layerId = "C023BAC7-6FF9-47E4-9D72-1131A8F8A065";
name = "Light Italic";
paths = (
{
closed = 1;
nodes = (
"367 -15 OFFCURVE",
"454 49 OFFCURVE",
"478 161 CURVE SMOOTH",
"505 287 OFFCURVE",
"428 319 OFFCURVE",
"315 365 CURVE SMOOTH",
"187 417 OFFCURVE",
"152 461 OFFCURVE",
"171 547 CURVE SMOOTH",
"188 629 OFFCURVE",
"267 690 OFFCURVE",
"386 690 CURVE SMOOTH",
"453 690 OFFCURVE",
"504 679 OFFCURVE",
"554 657 CURVE",
"559 682 LINE",
"510 704 OFFCURVE",
"459 714 OFFCURVE",
"391 714 CURVE SMOOTH",
"259 714 OFFCURVE",
"166 649 OFFCURVE",
"145 547 CURVE SMOOTH",
"124 448 OFFCURVE",
"178 395 OFFCURVE",
"291 348 CURVE SMOOTH",
"431 290 OFFCURVE",
"474 264 OFFCURVE",
"452 161 CURVE SMOOTH",
"431 63 OFFCURVE",
"354 9 OFFCURVE",
"212 9 CURVE SMOOTH",
"144 9 OFFCURVE",
"83 19 OFFCURVE",
"28 42 CURVE",
"23 17 LINE",
"64 -2 OFFCURVE",
"134 -15 OFFCURVE",
"207 -15 CURVE SMOOTH"
);
},
{
closed = 1;
nodes = (
"222 -121 OFFCURVE",
"237 -108 OFFCURVE",
"240 -93 CURVE SMOOTH",
"243 -78 OFFCURVE",
"233 -65 OFFCURVE",
"219 -65 CURVE SMOOTH",
"204 -65 OFFCURVE",
"188 -78 OFFCURVE",
"185 -93 CURVE SMOOTH",
"182 -108 OFFCURVE",
"192 -121 OFFCURVE",
"207 -121 CURVE SMOOTH"
);
}
);
width = 544;
}
);
leftKerningGroup = S;
note = Sdotbelow;
rightKerningGroup = S;
unicode = 1E62;
},
{
glyphname = Germandbls;
lastChange = "2015-10-27 23:55:46 +0000";
layers = (
{
layerId = "C023BAC7-6FF9-47E4-9D72-1131A8F8A065";
name = "Light Italic";
paths = (
{
closed = 1;
nodes = (
"428 -15 OFFCURVE",
"505 74 OFFCURVE",
"530 191 CURVE SMOOTH",
"557 319 OFFCURVE",
"481 387 OFFCURVE",
"337 387 CURVE",
"528 538 LINE",
"548 631 OFFCURVE",
"501 714 OFFCURVE",
"377 714 CURVE SMOOTH",
"270 714 OFFCURVE",
"176 666 OFFCURVE",
"141 502 CURVE SMOOTH",
"35 0 LINE",
"63 0 LINE",
"170 505 LINE SMOOTH",
"201 651 OFFCURVE",
"289 691 OFFCURVE",
"372 691 CURVE SMOOTH",
"471 691 OFFCURVE",
"523 637 OFFCURVE",
"504 547 CURVE",
"303 388 LINE",
"298 364 LINE",
"334 364 LINE SMOOTH",
"448 364 OFFCURVE",
"532 324 OFFCURVE",
"504 191 CURVE SMOOTH",
"479 72 OFFCURVE",
"396 8 OFFCURVE",
"282 8 CURVE SMOOTH",
"223 8 OFFCURVE",
"187 13 OFFCURVE",
"148 30 CURVE",
"143 6 LINE",
"176 -9 OFFCURVE",
"222 -15 OFFCURVE",
"277 -15 CURVE SMOOTH"
);
}
);
width = 590;
}
);
note = uni1E9E;
unicode = 1E9E;
},
{
glyphname = Schwa;
lastChange = "2015-10-27 23:55:45 +0000";
layers = (
{
layerId = "C023BAC7-6FF9-47E4-9D72-1131A8F8A065";
name = "Light Italic";
paths = (
{
closed = 1;
nodes = (
"595 -15 OFFCURVE",
"741 123 OFFCURVE",
"790 349 CURVE SMOOTH",
"840 580 OFFCURVE",
"730 714 OFFCURVE",
"485 714 CURVE SMOOTH",
"400 714 OFFCURVE",
"291 694 OFFCURVE",
"236 673 CURVE",
"230 649 LINE",
"297 674 OFFCURVE",
"395 691 OFFCURVE",
"486 691 CURVE SMOOTH",
"714 691 OFFCURVE",
"811 571 OFFCURVE",
"765 354 CURVE",
"95 354 LINE",
"89 328 LINE SMOOTH",
"48 134 OFFCURVE",
"133 -15 OFFCURVE",
"365 -15 CURVE SMOOTH"
);
},
{
closed = 1;
nodes = (
"139 8 OFFCURVE",
"78 152 OFFCURVE",
"116 331 CURVE",
"760 331 LINE",
"722 153 OFFCURVE",
"584 8 OFFCURVE",
"370 8 CURVE SMOOTH"
);
}
);
width = 816;
}
);
note = uni018F;
unicode = 018F;
},
{
glyphname = T;
lastChange = "2015-10-27 23:55:44 +0000";
layers = (
{
layerId = "C023BAC7-6FF9-47E4-9D72-1131A8F8A065";
name = "Light Italic";
paths = (
{
closed = 1;
nodes = (
"266 0 LINE",
"409 675 LINE",
"647 675 LINE",
"652 699 LINE",
"148 699 LINE",
"143 675 LINE",
"381 675 LINE",
"238 0 LINE"
);
}
);
width = 584;
}
);
leftKerningGroup = T;
note = T;
rightKerningGroup = T;
unicode = 0054;
},
{
glyphname = Tbar;
lastChange = "2015-10-27 23:55:44 +0000";
layers = (
{
layerId = "C023BAC7-6FF9-47E4-9D72-1131A8F8A065";
name = "Light Italic";
paths = (
{
closed = 1;
nodes = (
"266 0 LINE",
"336 331 LINE",
"477 331 LINE",
"482 355 LINE",
"341 355 LINE",
"409 675 LINE",
"647 675 LINE",
"652 699 LINE",
"148 699 LINE",
"143 675 LINE",
"381 675 LINE",
"313 355 LINE",
"170 355 LINE",
"165 331 LINE",
"308 331 LINE",
"238 0 LINE"
);
}
);
width = 584;
}
);
leftKerningGroup = T;
note = Tbar;
rightKerningGroup = T;
unicode = 0166;
},
{
glyphname = Tcaron;
lastChange = "2015-10-27 23:55:46 +0000";
layers = (
{
layerId = "C023BAC7-6FF9-47E4-9D72-1131A8F8A065";
name = "Light Italic";
paths = (
{
closed = 1;
nodes = (
"266 0 LINE",
"409 675 LINE",
"647 675 LINE",
"652 699 LINE",
"148 699 LINE",
"143 675 LINE",
"381 675 LINE",
"238 0 LINE"
);
},
{
closed = 1;
nodes = (
"429 784 LINE",
"589 935 LINE",
"556 935 LINE",
"420 806 LINE",
"340 935 LINE",
"311 935 LINE",
"407 784 LINE"
);
}
);
width = 584;
}
);
leftKerningGroup = T;
note = Tcaron;
rightKerningGroup = T;
unicode = 0164;
},
{
glyphname = Tcedilla;
lastChange = "2015-10-27 23:55:45 +0000";
layers = (
{
layerId = "C023BAC7-6FF9-47E4-9D72-1131A8F8A065";
name = "Light Italic";
paths = (
{
closed = 1;
nodes = (
"248 -248 OFFCURVE",
"288 -212 OFFCURVE",
"299 -162 CURVE SMOOTH",
"309 -113 OFFCURVE",
"287 -77 OFFCURVE",
"222 -74 CURVE",
"266 0 LINE",
"409 675 LINE",
"647 675 LINE",
"652 699 LINE",
"148 699 LINE",
"143 675 LINE",
"381 675 LINE",
"238 0 LINE",
"183 -93 LINE",
"264 -93 OFFCURVE",
"283 -117 OFFCURVE",
"273 -161 CURVE SMOOTH",
"264 -205 OFFCURVE",
"232 -224 OFFCURVE",
"184 -224 CURVE SMOOTH",
"166 -224 OFFCURVE",
"142 -221 OFFCURVE",
"131 -216 CURVE",
"125 -240 LINE",
"136 -244 OFFCURVE",
"159 -248 OFFCURVE",
"179 -248 CURVE SMOOTH"
);
}
);
width = 584;
}
);
leftKerningGroup = T;
note = Tcedilla;
rightKerningGroup = T;
unicode = 0162;
},
{
glyphname = Tcommaaccent;
lastChange = "2015-10-27 23:55:45 +0000";
layers = (
{
layerId = "C023BAC7-6FF9-47E4-9D72-1131A8F8A065";
name = "Light Italic";
paths = (
{
closed = 1;
nodes = (
"266 0 LINE",
"409 675 LINE",
"647 675 LINE",
"652 699 LINE",
"148 699 LINE",
"143 675 LINE",
"381 675 LINE",
"238 0 LINE"
);
},
{
closed = 1;
nodes = (
"128 -259 LINE",
"254 -70 LINE",
"223 -70 LINE",
"103 -259 LINE"
);
}
);
width = 584;
}
);
leftKerningGroup = T;
note = Tcommaaccent;
rightKerningGroup = T;
unicode = 021A;
},
{
glyphname = Tdotbelow;
lastChange = "2015-10-27 23:55:46 +0000";
layers = (
{
layerId = "C023BAC7-6FF9-47E4-9D72-1131A8F8A065";
name = "Light Italic";
paths = (
{
closed = 1;
nodes = (
"266 0 LINE",
"409 675 LINE",
"647 675 LINE",
"652 699 LINE",
"148 699 LINE",
"143 675 LINE",
"381 675 LINE",
"238 0 LINE"
);
},
{
closed = 1;
nodes = (
"242 -121 OFFCURVE",
"257 -108 OFFCURVE",
"260 -93 CURVE SMOOTH",
"263 -78 OFFCURVE",
"253 -65 OFFCURVE",
"239 -65 CURVE SMOOTH",
"224 -65 OFFCURVE",
"208 -78 OFFCURVE",
"205 -93 CURVE SMOOTH",
"202 -108 OFFCURVE",
"212 -121 OFFCURVE",
"227 -121 CURVE SMOOTH"
);
}
);
width = 584;
}
);
leftKerningGroup = T;
note = Tdotbelow;
rightKerningGroup = T;
unicode = 1E6C;
},
{
glyphname = Tlinebelow;
lastChange = "2015-10-27 23:55:46 +0000";
layers = (
{
layerId = "C023BAC7-6FF9-47E4-9D72-1131A8F8A065";
name = "Light Italic";
paths = (
{
closed = 1;
nodes = (
"266 0 LINE",
"409 675 LINE",
"647 675 LINE",
"652 699 LINE",
"148 699 LINE",
"143 675 LINE",
"381 675 LINE",
"238 0 LINE"
);
},
{
closed = 1;
nodes = (
"367 -110 LINE",
"372 -86 LINE",
"95 -86 LINE",
"90 -110 LINE"
);
}
);
width = 584;
}
);
leftKerningGroup = T;
note = Tlinebelow;
rightKerningGroup = T;
unicode = 1E6E;
},
{
glyphname = U;
lastChange = "2015-10-27 23:55:44 +0000";
layers = (
{
layerId = "C023BAC7-6FF9-47E4-9D72-1131A8F8A065";
name = "Light Italic";
paths = (
{
closed = 1;
nodes = (
"472 -15 OFFCURVE",
"571 79 OFFCURVE",
"603 229 CURVE SMOOTH",
"703 699 LINE",
"675 699 LINE",
"573 219 LINE SMOOTH",
"543 79 OFFCURVE",
"428 9 OFFCURVE",
"296 9 CURVE SMOOTH",
"157 9 OFFCURVE",
"77 69 OFFCURVE",
"109 219 CURVE SMOOTH",
"211 699 LINE",
"183 699 LINE",
"83 229 LINE SMOOTH",
"50 74 OFFCURVE",
"119 -15 OFFCURVE",
"291 -15 CURVE SMOOTH"
);
}
);
width = 670;
}
);
leftKerningGroup = U;
note = U;
rightKerningGroup = U;
unicode = 0055;
},
{
glyphname = Uacute;
lastChange = "2015-10-27 23:55:45 +0000";
layers = (
{
layerId = "C023BAC7-6FF9-47E4-9D72-1131A8F8A065";
name = "Light Italic";
paths = (
{
closed = 1;
nodes = (
"472 -15 OFFCURVE",
"571 79 OFFCURVE",
"603 229 CURVE SMOOTH",
"703 699 LINE",
"675 699 LINE",
"573 219 LINE SMOOTH",
"543 79 OFFCURVE",
"428 9 OFFCURVE",
"296 9 CURVE SMOOTH",
"157 9 OFFCURVE",
"77 69 OFFCURVE",
"109 219 CURVE SMOOTH",
"211 699 LINE",
"183 699 LINE",
"83 229 LINE SMOOTH",
"50 74 OFFCURVE",
"119 -15 OFFCURVE",
"291 -15 CURVE SMOOTH"
);
},
{
closed = 1;
nodes = (
"467 792 LINE",
"580 959 LINE",
"552 959 LINE",
"445 792 LINE"
);
}
);
width = 670;
}
);
leftKerningGroup = U;
note = Uacute;
rightKerningGroup = U;
unicode = 00DA;
},
{
glyphname = Ubreve;
lastChange = "2015-10-27 23:55:46 +0000";
layers = (
{
layerId = "C023BAC7-6FF9-47E4-9D72-1131A8F8A065";
name = "Light Italic";
paths = (
{
closed = 1;
nodes = (
"472 -15 OFFCURVE",
"571 79 OFFCURVE",
"603 229 CURVE SMOOTH",
"703 699 LINE",
"675 699 LINE",
"573 219 LINE SMOOTH",
"543 79 OFFCURVE",
"428 9 OFFCURVE",
"296 9 CURVE SMOOTH",
"157 9 OFFCURVE",
"77 69 OFFCURVE",
"109 219 CURVE SMOOTH",
"211 699 LINE",
"183 699 LINE",
"83 229 LINE SMOOTH",
"50 74 OFFCURVE",
"119 -15 OFFCURVE",
"291 -15 CURVE SMOOTH"
);
},
{
closed = 1;
nodes = (
"525 758 OFFCURVE",
"583 806 OFFCURVE",
"596 866 CURVE",
"570 866 LINE",
"560 818 OFFCURVE",
"517 781 OFFCURVE",
"458 781 CURVE SMOOTH",
"400 781 OFFCURVE",
"372 818 OFFCURVE",
"382 866 CURVE",
"360 866 LINE",
"347 806 OFFCURVE",
"385 758 OFFCURVE",
"455 758 CURVE SMOOTH"
);
}
);
width = 670;
}
);
leftKerningGroup = U;
note = Ubreve;
rightKerningGroup = U;
unicode = 016C;
},
{
glyphname = Ucaron;
lastChange = "2015-10-27 23:55:45 +0000";
layers = (
{
layerId = "C023BAC7-6FF9-47E4-9D72-1131A8F8A065";
name = "Light Italic";
paths = (
{
closed = 1;
nodes = (
"472 -15 OFFCURVE",
"571 79 OFFCURVE",
"603 229 CURVE SMOOTH",
"703 699 LINE",
"675 699 LINE",
"573 219 LINE SMOOTH",
"543 79 OFFCURVE",
"428 9 OFFCURVE",
"296 9 CURVE SMOOTH",
"157 9 OFFCURVE",
"77 69 OFFCURVE",
"109 219 CURVE SMOOTH",
"211 699 LINE",
"183 699 LINE",
"83 229 LINE SMOOTH",
"50 74 OFFCURVE",
"119 -15 OFFCURVE",
"291 -15 CURVE SMOOTH"
);
},
{
closed = 1;
nodes = (
"472 784 LINE",
"632 935 LINE",
"599 935 LINE",
"463 806 LINE",
"383 935 LINE",
"354 935 LINE",
"450 784 LINE"
);
}
);
width = 670;
}
);
leftKerningGroup = U;
note = Ucaron;
rightKerningGroup = U;
unicode = 01D3;
},
{
glyphname = Ucircumflex;
lastChange = "2015-10-27 23:55:44 +0000";
layers = (
{
layerId = "C023BAC7-6FF9-47E4-9D72-1131A8F8A065";
name = "Light Italic";
paths = (
{
closed = 1;
nodes = (
"472 -15 OFFCURVE",
"571 79 OFFCURVE",
"603 229 CURVE SMOOTH",
"703 699 LINE",
"675 699 LINE",
"573 219 LINE SMOOTH",
"543 79 OFFCURVE",
"428 9 OFFCURVE",
"296 9 CURVE SMOOTH",
"157 9 OFFCURVE",
"77 69 OFFCURVE",
"109 219 CURVE SMOOTH",
"211 699 LINE",
"183 699 LINE",
"83 229 LINE SMOOTH",
"50 74 OFFCURVE",
"119 -15 OFFCURVE",
"291 -15 CURVE SMOOTH"
);
},
{
closed = 1;
nodes = (
"358 798 LINE",
"493 927 LINE",
"574 798 LINE",
"603 798 LINE",
"507 949 LINE",
"485 949 LINE",
"326 798 LINE"
);
}
);
width = 670;
}
);
leftKerningGroup = U;
note = Ucircumflex;
rightKerningGroup = U;
unicode = 00DB;
},
{
glyphname = Udieresis;
lastChange = "2015-10-27 23:55:46 +0000";
layers = (
{
layerId = "C023BAC7-6FF9-47E4-9D72-1131A8F8A065";
name = "Light Italic";
paths = (
{
closed = 1;
nodes = (
"472 -15 OFFCURVE",
"571 79 OFFCURVE",
"603 229 CURVE SMOOTH",
"703 699 LINE",
"675 699 LINE",
"573 219 LINE SMOOTH",
"543 79 OFFCURVE",
"428 9 OFFCURVE",
"296 9 CURVE SMOOTH",
"157 9 OFFCURVE",
"77 69 OFFCURVE",
"109 219 CURVE SMOOTH",
"211 699 LINE",
"183 699 LINE",
"83 229 LINE SMOOTH",
"50 74 OFFCURVE",
"119 -15 OFFCURVE",
"291 -15 CURVE SMOOTH"
);
},
{
closed = 1;
nodes = (
"381 802 OFFCURVE",
"396 815 OFFCURVE",
"400 830 CURVE",
"403 845 OFFCURVE",
"392 858 OFFCURVE",
"377 858 CURVE SMOOTH",
"362 858 OFFCURVE",
"347 845 OFFCURVE",
"344 830 CURVE",
"340 815 OFFCURVE",
"351 802 OFFCURVE",
"366 802 CURVE SMOOTH"
);
},
{
closed = 1;
nodes = (
"579 802 OFFCURVE",
"594 815 OFFCURVE",
"598 830 CURVE",
"601 845 OFFCURVE",
"590 858 OFFCURVE",
"575 858 CURVE SMOOTH",
"560 858 OFFCURVE",
"545 845 OFFCURVE",
"542 830 CURVE",
"538 815 OFFCURVE",
"549 802 OFFCURVE",
"564 802 CURVE SMOOTH"
);
}
);
width = 670;
}
);
leftKerningGroup = U;
note = Udieresis;
rightKerningGroup = U;
unicode = 00DC;
},
{
glyphname = Udieresisacute;
lastChange = "2015-10-27 23:55:45 +0000";
layers = (
{
layerId = "C023BAC7-6FF9-47E4-9D72-1131A8F8A065";
name = "Light Italic";
paths = (
{
closed = 1;
nodes = (
"472 -15 OFFCURVE",
"571 79 OFFCURVE",
"603 229 CURVE SMOOTH",
"703 699 LINE",
"675 699 LINE",
"573 219 LINE SMOOTH",
"543 79 OFFCURVE",
"428 9 OFFCURVE",
"296 9 CURVE SMOOTH",
"157 9 OFFCURVE",
"77 69 OFFCURVE",
"109 219 CURVE SMOOTH",
"211 699 LINE",
"183 699 LINE",
"83 229 LINE SMOOTH",
"50 74 OFFCURVE",
"119 -15 OFFCURVE",
"291 -15 CURVE SMOOTH"
);
},
{
closed = 1;
nodes = (
"382 784 OFFCURVE",
"397 797 OFFCURVE",
"401 812 CURVE",
"404 827 OFFCURVE",
"393 840 OFFCURVE",
"378 840 CURVE SMOOTH",
"363 840 OFFCURVE",
"348 827 OFFCURVE",
"345 812 CURVE",
"341 797 OFFCURVE",
"352 784 OFFCURVE",
"367 784 CURVE SMOOTH"
);
},
{
closed = 1;
nodes = (
"579 784 OFFCURVE",
"594 797 OFFCURVE",
"598 812 CURVE",
"601 827 OFFCURVE",
"590 840 OFFCURVE",
"575 840 CURVE SMOOTH",
"560 840 OFFCURVE",
"545 827 OFFCURVE",
"542 812 CURVE",
"538 797 OFFCURVE",
"549 784 OFFCURVE",
"564 784 CURVE SMOOTH"
);
},
{
closed = 1;
nodes = (
"479 831 LINE",
"572 963 LINE",
"544 963 LINE",
"457 831 LINE"
);
}
);
width = 670;
}
);
leftKerningGroup = U;
note = Udieresisacute;
rightKerningGroup = U;
unicode = 01D7;
},
{
glyphname = Udieresiscaron;
lastChange = "2015-10-27 23:55:45 +0000";
layers = (
{
layerId = "C023BAC7-6FF9-47E4-9D72-1131A8F8A065";
name = "Light Italic";
paths = (
{
closed = 1;
nodes = (
"472 -15 OFFCURVE",
"571 79 OFFCURVE",
"603 229 CURVE SMOOTH",
"703 699 LINE",
"675 699 LINE",
"573 219 LINE SMOOTH",
"543 79 OFFCURVE",
"428 9 OFFCURVE",
"296 9 CURVE SMOOTH",
"157 9 OFFCURVE",
"77 69 OFFCURVE",
"109 219 CURVE SMOOTH",
"211 699 LINE",
"183 699 LINE",
"83 229 LINE SMOOTH",
"50 74 OFFCURVE",
"119 -15 OFFCURVE",
"291 -15 CURVE SMOOTH"
);
},
{
closed = 1;
nodes = (
"380 784 OFFCURVE",
"395 797 OFFCURVE",
"399 812 CURVE",
"402 827 OFFCURVE",
"391 840 OFFCURVE",
"376 840 CURVE SMOOTH",
"361 840 OFFCURVE",
"346 827 OFFCURVE",
"343 812 CURVE",
"339 797 OFFCURVE",
"350 784 OFFCURVE",
"365 784 CURVE SMOOTH"
);
},
{
closed = 1;
nodes = (
"577 784 OFFCURVE",
"592 797 OFFCURVE",
"596 812 CURVE",
"599 827 OFFCURVE",
"588 840 OFFCURVE",
"573 840 CURVE SMOOTH",
"558 840 OFFCURVE",
"543 827 OFFCURVE",
"540 812 CURVE",
"536 797 OFFCURVE",
"547 784 OFFCURVE",
"562 784 CURVE SMOOTH"
);
},
{
closed = 1;
nodes = (
"485 831 LINE",
"621 963 LINE",
"590 963 LINE",
"478 853 LINE",
"413 963 LINE",
"382 963 LINE",
"463 831 LINE"
);
}
);
width = 670;
}
);
leftKerningGroup = U;
note = Udieresiscaron;
rightKerningGroup = U;
unicode = 01D9;
},
{
glyphname = Udieresisgrave;
lastChange = "2015-10-27 23:55:46 +0000";
layers = (
{
layerId = "C023BAC7-6FF9-47E4-9D72-1131A8F8A065";
name = "Light Italic";
paths = (
{
closed = 1;
nodes = (
"472 -15 OFFCURVE",
"571 79 OFFCURVE",
"603 229 CURVE SMOOTH",
"703 699 LINE",
"675 699 LINE",
"573 219 LINE SMOOTH",
"543 79 OFFCURVE",
"428 9 OFFCURVE",
"296 9 CURVE SMOOTH",
"157 9 OFFCURVE",
"77 69 OFFCURVE",
"109 219 CURVE SMOOTH",
"211 699 LINE",
"183 699 LINE",
"83 229 LINE SMOOTH",
"50 74 OFFCURVE",
"119 -15 OFFCURVE",
"291 -15 CURVE SMOOTH"
);
},
{
closed = 1;
nodes = (
"377 784 OFFCURVE",
"392 797 OFFCURVE",
"396 812 CURVE",
"399 827 OFFCURVE",
"388 840 OFFCURVE",
"373 840 CURVE SMOOTH",
"358 840 OFFCURVE",
"343 827 OFFCURVE",
"340 812 CURVE",
"336 797 OFFCURVE",
"347 784 OFFCURVE",
"362 784 CURVE SMOOTH"
);
},
{
closed = 1;
nodes = (
"490 831 LINE",
"458 963 LINE",
"430 963 LINE",
"468 831 LINE"
);
},
{
closed = 1;
nodes = (
"574 784 OFFCURVE",
"589 797 OFFCURVE",
"593 812 CURVE",
"596 827 OFFCURVE",
"585 840 OFFCURVE",
"570 840 CURVE SMOOTH",
"555 840 OFFCURVE",
"540 827 OFFCURVE",
"537 812 CURVE",
"533 797 OFFCURVE",
"544 784 OFFCURVE",
"559 784 CURVE SMOOTH"
);
}
);
width = 670;
}
);
leftKerningGroup = U;
note = Udieresisgrave;
rightKerningGroup = U;
unicode = 01DB;
},
{
glyphname = Udieresismacron;
lastChange = "2015-10-27 23:55:45 +0000";
layers = (
{
layerId = "C023BAC7-6FF9-47E4-9D72-1131A8F8A065";
name = "Light Italic";
paths = (
{
closed = 1;
nodes = (
"472 -15 OFFCURVE",
"571 79 OFFCURVE",
"603 229 CURVE SMOOTH",
"703 699 LINE",
"675 699 LINE",
"573 219 LINE SMOOTH",
"543 79 OFFCURVE",
"428 9 OFFCURVE",
"296 9 CURVE SMOOTH",
"157 9 OFFCURVE",
"77 69 OFFCURVE",
"109 219 CURVE SMOOTH",
"211 699 LINE",
"183 699 LINE",
"83 229 LINE SMOOTH",
"50 74 OFFCURVE",
"119 -15 OFFCURVE",
"291 -15 CURVE SMOOTH"
);
},
{
closed = 1;
nodes = (
"372 758 OFFCURVE",
"387 771 OFFCURVE",
"391 786 CURVE",
"394 801 OFFCURVE",
"383 814 OFFCURVE",
"368 814 CURVE SMOOTH",
"353 814 OFFCURVE",
"338 801 OFFCURVE",
"335 786 CURVE",
"331 771 OFFCURVE",
"342 758 OFFCURVE",
"357 758 CURVE SMOOTH"
);
},
{
closed = 1;
nodes = (
"570 758 OFFCURVE",
"585 771 OFFCURVE",
"589 786 CURVE",
"592 801 OFFCURVE",
"581 814 OFFCURVE",
"566 814 CURVE SMOOTH",
"551 814 OFFCURVE",
"536 801 OFFCURVE",
"533 786 CURVE",
"529 771 OFFCURVE",
"540 758 OFFCURVE",
"555 758 CURVE SMOOTH"
);
},
{
closed = 1;
nodes = (
"626 909 LINE",
"632 933 LINE",
"354 933 LINE",
"348 909 LINE"
);
}
);
width = 670;
}
);
leftKerningGroup = U;
note = Udieresismacron;
rightKerningGroup = U;
unicode = 01D5;
},
{
glyphname = Udotbelow;
lastChange = "2015-10-27 23:55:44 +0000";
layers = (
{
layerId = "C023BAC7-6FF9-47E4-9D72-1131A8F8A065";
name = "Light Italic";
paths = (
{
closed = 1;
nodes = (
"472 -15 OFFCURVE",
"571 79 OFFCURVE",
"603 229 CURVE SMOOTH",
"703 699 LINE",
"675 699 LINE",
"573 219 LINE SMOOTH",
"543 79 OFFCURVE",
"428 9 OFFCURVE",
"296 9 CURVE SMOOTH",
"157 9 OFFCURVE",
"77 69 OFFCURVE",
"109 219 CURVE SMOOTH",
"211 699 LINE",
"183 699 LINE",
"83 229 LINE SMOOTH",
"50 74 OFFCURVE",
"119 -15 OFFCURVE",
"291 -15 CURVE SMOOTH"
);
},
{
closed = 1;
nodes = (
"285 -121 OFFCURVE",
"300 -108 OFFCURVE",
"303 -93 CURVE SMOOTH",
"306 -78 OFFCURVE",
"296 -65 OFFCURVE",
"282 -65 CURVE SMOOTH",
"267 -65 OFFCURVE",
"251 -78 OFFCURVE",
"248 -93 CURVE SMOOTH",
"245 -108 OFFCURVE",
"255 -121 OFFCURVE",
"270 -121 CURVE SMOOTH"
);
}
);
width = 670;
}
);
leftKerningGroup = U;
note = Udotbelow;
rightKerningGroup = U;
unicode = 1EE4;
},
{
glyphname = Ugrave;
lastChange = "2015-10-27 23:55:45 +0000";
layers = (
{
layerId = "C023BAC7-6FF9-47E4-9D72-1131A8F8A065";
name = "Light Italic";
paths = (
{
closed = 1;
nodes = (
"472 -15 OFFCURVE",
"571 79 OFFCURVE",
"603 229 CURVE SMOOTH",
"703 699 LINE",
"675 699 LINE",
"573 219 LINE SMOOTH",
"543 79 OFFCURVE",
"428 9 OFFCURVE",
"296 9 CURVE SMOOTH",
"157 9 OFFCURVE",
"77 69 OFFCURVE",
"109 219 CURVE SMOOTH",
"211 699 LINE",
"183 699 LINE",
"83 229 LINE SMOOTH",
"50 74 OFFCURVE",
"119 -15 OFFCURVE",
"291 -15 CURVE SMOOTH"
);
},
{
closed = 1;
nodes = (
"486 792 LINE",
"451 959 LINE",
"423 959 LINE",
"464 792 LINE"
);
}
);
width = 670;
}
);
leftKerningGroup = U;
note = Ugrave;
rightKerningGroup = U;
unicode = 00D9;
},
{
glyphname = Uhookabove;
lastChange = "2015-10-27 23:55:46 +0000";
layers = (
{
layerId = "C023BAC7-6FF9-47E4-9D72-1131A8F8A065";
name = "Light Italic";
paths = (
{
closed = 1;
nodes = (
"472 -15 OFFCURVE",
"571 79 OFFCURVE",
"603 229 CURVE SMOOTH",
"703 699 LINE",
"675 699 LINE",
"573 219 LINE SMOOTH",
"543 79 OFFCURVE",
"428 9 OFFCURVE",
"296 9 CURVE SMOOTH",
"157 9 OFFCURVE",
"77 69 OFFCURVE",
"109 219 CURVE SMOOTH",
"211 699 LINE",
"183 699 LINE",
"83 229 LINE SMOOTH",
"50 74 OFFCURVE",
"119 -15 OFFCURVE",
"291 -15 CURVE SMOOTH"
);
},
{
closed = 1;
nodes = (
"456 744 LINE",
"465 788 LINE",
"531 791 OFFCURVE",
"570 826 OFFCURVE",
"581 875 CURVE SMOOTH",
"591 925 OFFCURVE",
"565 961 OFFCURVE",
"496 961 CURVE SMOOTH",
"476 961 OFFCURVE",
"451 957 OFFCURVE",
"439 953 CURVE",
"434 929 LINE",
"447 934 OFFCURVE",
"473 937 OFFCURVE",
"491 937 CURVE SMOOTH",
"539 937 OFFCURVE",
"564 918 OFFCURVE",
"554 874 CURVE SMOOTH",
"545 830 OFFCURVE",
"518 807 OFFCURVE",
"446 807 CURVE",
"433 744 LINE"
);
}
);
width = 670;
}
);
leftKerningGroup = U;
note = Uhookabove;
rightKerningGroup = U;
unicode = 1EE6;
},
{
glyphname = Uhorn;
lastChange = "2015-10-27 23:55:46 +0000";
layers = (
{
layerId = "C023BAC7-6FF9-47E4-9D72-1131A8F8A065";
name = "Light Italic";
paths = (
{
closed = 1;
nodes = (
"468 -15 OFFCURVE",
"570 74 OFFCURVE",
"603 229 CURVE SMOOTH",
"681 597 LINE",
"751 597 OFFCURVE",
"821 650 OFFCURVE",
"833 710 CURVE SMOOTH",
"841 747 LINE",
"817 747 LINE",
"809 710 LINE SMOOTH",
"799 662 OFFCURVE",
"745 620 OFFCURVE",
"686 620 CURVE",
"703 699 LINE",
"675 699 LINE",
"573 219 LINE SMOOTH",
"541 69 OFFCURVE",
"428 9 OFFCURVE",
"296 9 CURVE SMOOTH",
"158 9 OFFCURVE",
"77 69 OFFCURVE",
"109 219 CURVE SMOOTH",
"211 699 LINE",
"183 699 LINE",
"83 229 LINE SMOOTH",
"50 74 OFFCURVE",
"124 -15 OFFCURVE",
"291 -15 CURVE SMOOTH"
);
}
);
width = 753;
}
);
leftKerningGroup = U;
note = Uhorn;
rightKerningGroup = U;
unicode = 01AF;
},
{
glyphname = Uhornacute;
lastChange = "2015-10-27 23:55:45 +0000";
layers = (
{
layerId = "C023BAC7-6FF9-47E4-9D72-1131A8F8A065";
name = "Light Italic";
paths = (
{
closed = 1;
nodes = (
"468 -15 OFFCURVE",
"570 74 OFFCURVE",
"603 229 CURVE SMOOTH",
"681 597 LINE",
"751 597 OFFCURVE",
"821 650 OFFCURVE",
"833 710 CURVE SMOOTH",
"841 747 LINE",
"817 747 LINE",
"809 710 LINE SMOOTH",
"799 662 OFFCURVE",
"745 620 OFFCURVE",
"686 620 CURVE",
"703 699 LINE",
"675 699 LINE",
"573 219 LINE SMOOTH",
"541 69 OFFCURVE",
"428 9 OFFCURVE",
"296 9 CURVE SMOOTH",
"158 9 OFFCURVE",
"77 69 OFFCURVE",
"109 219 CURVE SMOOTH",
"211 699 LINE",
"183 699 LINE",
"83 229 LINE SMOOTH",
"50 74 OFFCURVE",
"124 -15 OFFCURVE",
"291 -15 CURVE SMOOTH"
);
},
{
closed = 1;
nodes = (
"462 784 LINE",
"575 951 LINE",
"547 951 LINE",
"440 784 LINE"
);
}
);
width = 790;
}
);
leftKerningGroup = U;
note = Uhornacute;
rightKerningGroup = U;
unicode = 1EE8;
},
{
glyphname = Uhorndotbelow;
lastChange = "2015-10-27 23:55:45 +0000";
layers = (
{
layerId = "C023BAC7-6FF9-47E4-9D72-1131A8F8A065";
name = "Light Italic";
paths = (
{
closed = 1;
nodes = (
"468 -15 OFFCURVE",
"570 74 OFFCURVE",
"603 229 CURVE SMOOTH",
"681 597 LINE",
"751 597 OFFCURVE",
"821 650 OFFCURVE",
"833 710 CURVE SMOOTH",
"841 747 LINE",
"817 747 LINE",
"809 710 LINE SMOOTH",
"799 662 OFFCURVE",
"745 620 OFFCURVE",
"686 620 CURVE",
"703 699 LINE",
"675 699 LINE",
"573 219 LINE SMOOTH",
"541 69 OFFCURVE",
"428 9 OFFCURVE",
"296 9 CURVE SMOOTH",
"158 9 OFFCURVE",
"77 69 OFFCURVE",
"109 219 CURVE SMOOTH",
"211 699 LINE",
"183 699 LINE",
"83 229 LINE SMOOTH",
"50 74 OFFCURVE",
"124 -15 OFFCURVE",
"291 -15 CURVE SMOOTH"
);
},
{
closed = 1;
nodes = (
"289 -121 OFFCURVE",
"304 -108 OFFCURVE",
"307 -93 CURVE SMOOTH",
"310 -78 OFFCURVE",
"300 -65 OFFCURVE",
"286 -65 CURVE SMOOTH",
"271 -65 OFFCURVE",
"255 -78 OFFCURVE",
"252 -93 CURVE SMOOTH",
"249 -108 OFFCURVE",
"259 -121 OFFCURVE",
"274 -121 CURVE SMOOTH"
);
}
);
width = 763;
}
);
leftKerningGroup = U;
note = Uhorndotbelow;
rightKerningGroup = U;
unicode = 1EF0;
},
{
glyphname = Uhorngrave;
lastChange = "2015-10-27 23:55:45 +0000";
layers = (
{
layerId = "C023BAC7-6FF9-47E4-9D72-1131A8F8A065";
name = "Light Italic";
paths = (
{
closed = 1;
nodes = (
"468 -15 OFFCURVE",
"570 74 OFFCURVE",
"603 229 CURVE SMOOTH",
"681 597 LINE",
"751 597 OFFCURVE",
"821 650 OFFCURVE",
"833 710 CURVE SMOOTH",
"841 747 LINE",
"817 747 LINE",
"809 710 LINE SMOOTH",
"799 662 OFFCURVE",
"745 620 OFFCURVE",
"686 620 CURVE",
"703 699 LINE",
"675 699 LINE",
"573 219 LINE SMOOTH",
"541 69 OFFCURVE",
"428 9 OFFCURVE",
"296 9 CURVE SMOOTH",
"158 9 OFFCURVE",
"77 69 OFFCURVE",
"109 219 CURVE SMOOTH",
"211 699 LINE",
"183 699 LINE",
"83 229 LINE SMOOTH",
"50 74 OFFCURVE",
"124 -15 OFFCURVE",
"291 -15 CURVE SMOOTH"
);
},
{
closed = 1;
nodes = (
"500 784 LINE",
"465 951 LINE",
"437 951 LINE",
"478 784 LINE"
);
}
);
width = 763;
}
);
leftKerningGroup = U;
note = Uhorngrave;
rightKerningGroup = U;
unicode = 1EEA;
},
{
glyphname = Uhornhookabove;
lastChange = "2015-10-27 23:55:44 +0000";
layers = (
{
layerId = "C023BAC7-6FF9-47E4-9D72-1131A8F8A065";
name = "Light Italic";
paths = (
{
closed = 1;
nodes = (
"468 -15 OFFCURVE",
"570 74 OFFCURVE",
"603 229 CURVE SMOOTH",
"681 597 LINE",
"751 597 OFFCURVE",
"821 650 OFFCURVE",
"833 710 CURVE SMOOTH",
"841 747 LINE",
"817 747 LINE",
"809 710 LINE SMOOTH",
"799 662 OFFCURVE",
"745 620 OFFCURVE",
"686 620 CURVE",
"703 699 LINE",
"675 699 LINE",
"573 219 LINE SMOOTH",
"541 69 OFFCURVE",
"428 9 OFFCURVE",
"296 9 CURVE SMOOTH",
"158 9 OFFCURVE",
"77 69 OFFCURVE",
"109 219 CURVE SMOOTH",
"211 699 LINE",
"183 699 LINE",
"83 229 LINE SMOOTH",
"50 74 OFFCURVE",
"124 -15 OFFCURVE",
"291 -15 CURVE SMOOTH"
);
},
{
closed = 1;
nodes = (
"473 784 LINE",
"482 828 LINE",
"548 831 OFFCURVE",
"587 866 OFFCURVE",
"598 915 CURVE SMOOTH",
"608 965 OFFCURVE",
"582 1001 OFFCURVE",
"513 1001 CURVE SMOOTH",
"493 1001 OFFCURVE",
"468 997 OFFCURVE",
"456 993 CURVE",
"451 969 LINE",
"464 974 OFFCURVE",
"490 977 OFFCURVE",
"508 977 CURVE SMOOTH",
"556 977 OFFCURVE",
"581 958 OFFCURVE",
"571 914 CURVE SMOOTH",
"562 870 OFFCURVE",
"535 847 OFFCURVE",
"463 847 CURVE",
"450 784 LINE"
);
}
);
width = 763;
}
);
leftKerningGroup = U;
note = Uhornhookabove;
rightKerningGroup = U;
unicode = 1EEC;
},
{
glyphname = Uhorntilde;
lastChange = "2015-10-27 23:55:46 +0000";
layers = (
{
layerId = "C023BAC7-6FF9-47E4-9D72-1131A8F8A065";
name = "Light Italic";
paths = (
{
closed = 1;
nodes = (
"468 -15 OFFCURVE",
"570 74 OFFCURVE",
"603 229 CURVE SMOOTH",
"681 597 LINE",
"751 597 OFFCURVE",
"821 650 OFFCURVE",
"833 710 CURVE SMOOTH",
"841 747 LINE",
"817 747 LINE",
"809 710 LINE SMOOTH",
"799 662 OFFCURVE",
"745 620 OFFCURVE",
"686 620 CURVE",
"703 699 LINE",
"675 699 LINE",
"573 219 LINE SMOOTH",
"541 69 OFFCURVE",
"428 9 OFFCURVE",
"296 9 CURVE SMOOTH",
"158 9 OFFCURVE",
"77 69 OFFCURVE",
"109 219 CURVE SMOOTH",
"211 699 LINE",
"183 699 LINE",
"83 229 LINE SMOOTH",
"50 74 OFFCURVE",
"124 -15 OFFCURVE",
"291 -15 CURVE SMOOTH"
);
},
{
closed = 1;
nodes = (
"326 827 OFFCURVE",
"358 838 OFFCURVE",
"391 838 CURVE SMOOTH",
"455 838 OFFCURVE",
"481 788 OFFCURVE",
"554 788 CURVE SMOOTH",
"591 788 OFFCURVE",
"627 800 OFFCURVE",
"653 833 CURVE",
"660 866 LINE",
"626 823 OFFCURVE",
"592 812 OFFCURVE",
"559 812 CURVE SMOOTH",
"494 812 OFFCURVE",
"464 862 OFFCURVE",
"396 862 CURVE SMOOTH",
"359 862 OFFCURVE",
"323 850 OFFCURVE",
"296 817 CURVE",
"289 784 LINE"
);
}
);
width = 763;
}
);
leftKerningGroup = U;
note = Uhorntilde;
rightKerningGroup = U;
unicode = 1EEE;
},
{
glyphname = Uhungarumlaut;
lastChange = "2015-10-27 23:55:45 +0000";
layers = (
{
layerId = "C023BAC7-6FF9-47E4-9D72-1131A8F8A065";
name = "Light Italic";
paths = (
{
closed = 1;
nodes = (
"472 -15 OFFCURVE",
"571 79 OFFCURVE",
"603 229 CURVE SMOOTH",
"703 699 LINE",
"675 699 LINE",
"573 219 LINE SMOOTH",
"543 79 OFFCURVE",
"428 9 OFFCURVE",
"296 9 CURVE SMOOTH",
"157 9 OFFCURVE",
"77 69 OFFCURVE",
"109 219 CURVE SMOOTH",
"211 699 LINE",
"183 699 LINE",
"83 229 LINE SMOOTH",
"50 74 OFFCURVE",
"119 -15 OFFCURVE",
"291 -15 CURVE SMOOTH"
);
},
{
closed = 1;
nodes = (
"370 780 LINE",
"483 947 LINE",
"455 947 LINE",
"349 780 LINE"
);
},
{
closed = 1;
nodes = (
"537 780 LINE",
"650 947 LINE",
"622 947 LINE",
"515 780 LINE"
);
}
);
width = 670;
}
);
leftKerningGroup = U;
note = Uhungarumlaut;
rightKerningGroup = U;
unicode = 0170;
},
{
glyphname = Umacron;
lastChange = "2015-10-27 23:55:45 +0000";
layers = (
{
layerId = "C023BAC7-6FF9-47E4-9D72-1131A8F8A065";
name = "Light Italic";
paths = (
{
closed = 1;
nodes = (
"472 -15 OFFCURVE",
"571 79 OFFCURVE",
"603 229 CURVE SMOOTH",
"703 699 LINE",
"675 699 LINE",
"573 219 LINE SMOOTH",
"543 79 OFFCURVE",
"428 9 OFFCURVE",
"296 9 CURVE SMOOTH",
"157 9 OFFCURVE",
"77 69 OFFCURVE",
"109 219 CURVE SMOOTH",
"211 699 LINE",
"183 699 LINE",
"83 229 LINE SMOOTH",
"50 74 OFFCURVE",
"119 -15 OFFCURVE",
"291 -15 CURVE SMOOTH"
);
},
{
closed = 1;
nodes = (
"605 813 LINE",
"611 837 LINE",
"333 837 LINE",
"327 813 LINE"
);
}
);
width = 670;
}
);
leftKerningGroup = U;
note = Umacron;
rightKerningGroup = U;
unicode = 016A;
},
{
glyphname = Uogonek;
lastChange = "2015-10-27 23:55:45 +0000";
layers = (
{
layerId = "C023BAC7-6FF9-47E4-9D72-1131A8F8A065";
name = "Light Italic";
paths = (
{
closed = 1;
nodes = (
"307 -206 OFFCURVE",
"321 -203 OFFCURVE",
"333 -198 CURVE",
"339 -174 LINE",
"325 -179 OFFCURVE",
"309 -182 OFFCURVE",
"292 -182 CURVE SMOOTH",
"261 -182 OFFCURVE",
"240 -164 OFFCURVE",
"248 -125 CURVE SMOOTH",
"257 -82 OFFCURVE",
"289 -45 OFFCURVE",
"334 -13 CURVE",
"488 1 OFFCURVE",
"573 91 OFFCURVE",
"603 229 CURVE SMOOTH",
"703 699 LINE",
"675 699 LINE",
"573 219 LINE SMOOTH",
"543 79 OFFCURVE",
"428 9 OFFCURVE",
"296 9 CURVE SMOOTH",
"157 9 OFFCURVE",
"77 69 OFFCURVE",
"109 219 CURVE SMOOTH",
"211 699 LINE",
"183 699 LINE",
"83 229 LINE SMOOTH",
"50 74 OFFCURVE",
"119 -15 OFFCURVE",
"291 -15 CURVE SMOOTH",
"302 -15 LINE",
"264 -42 OFFCURVE",
"231 -81 OFFCURVE",
"222 -125 CURVE SMOOTH",
"210 -179 OFFCURVE",
"244 -206 OFFCURVE",
"287 -206 CURVE SMOOTH"
);
}
);
width = 670;
}
);
leftKerningGroup = U;
note = Uogonek;
rightKerningGroup = U;
unicode = 0172;
},
{
glyphname = Uring;
lastChange = "2015-10-27 23:55:45 +0000";
layers = (
{
layerId = "C023BAC7-6FF9-47E4-9D72-1131A8F8A065";
name = "Light Italic";
paths = (
{
closed = 1;
nodes = (
"472 -15 OFFCURVE",
"571 79 OFFCURVE",
"603 229 CURVE SMOOTH",
"703 699 LINE",
"675 699 LINE",
"573 219 LINE SMOOTH",
"543 79 OFFCURVE",
"428 9 OFFCURVE",
"296 9 CURVE SMOOTH",
"157 9 OFFCURVE",
"77 69 OFFCURVE",
"109 219 CURVE SMOOTH",
"211 699 LINE",
"183 699 LINE",
"83 229 LINE SMOOTH",
"50 74 OFFCURVE",
"119 -15 OFFCURVE",
"291 -15 CURVE SMOOTH"
);
},
{
closed = 1;
nodes = (
"505 760 OFFCURVE",
"555 801 OFFCURVE",
"566 851 CURVE SMOOTH",
"576 901 OFFCURVE",
"544 942 OFFCURVE",
"494 942 CURVE SMOOTH",
"444 942 OFFCURVE",
"394 901 OFFCURVE",
"384 851 CURVE SMOOTH",
"373 801 OFFCURVE",
"405 760 OFFCURVE",
"455 760 CURVE SMOOTH"
);
},
{
closed = 1;
nodes = (
"422 781 OFFCURVE",
"397 813 OFFCURVE",
"406 851 CURVE SMOOTH",
"414 889 OFFCURVE",
"450 921 OFFCURVE",
"489 921 CURVE SMOOTH",
"528 921 OFFCURVE",
"552 889 OFFCURVE",
"544 851 CURVE SMOOTH",
"535 813 OFFCURVE",
"499 781 OFFCURVE",
"460 781 CURVE SMOOTH"
);
}
);
width = 670;
}
);
leftKerningGroup = U;
note = Uring;
rightKerningGroup = U;
unicode = 016E;
},
{
glyphname = Utilde;
lastChange = "2015-10-27 23:55:46 +0000";
layers = (
{
layerId = "C023BAC7-6FF9-47E4-9D72-1131A8F8A065";
name = "Light Italic";
paths = (
{
closed = 1;
nodes = (
"472 -15 OFFCURVE",
"571 79 OFFCURVE",
"603 229 CURVE SMOOTH",
"703 699 LINE",
"675 699 LINE",
"573 219 LINE SMOOTH",
"543 79 OFFCURVE",
"428 9 OFFCURVE",
"296 9 CURVE SMOOTH",
"157 9 OFFCURVE",
"77 69 OFFCURVE",
"109 219 CURVE SMOOTH",
"211 699 LINE",
"183 699 LINE",
"83 229 LINE SMOOTH",
"50 74 OFFCURVE",
"119 -15 OFFCURVE",
"291 -15 CURVE SMOOTH"
);
},
{
closed = 1;
nodes = (
"357 827 OFFCURVE",
"389 838 OFFCURVE",
"422 838 CURVE SMOOTH",
"486 838 OFFCURVE",
"512 788 OFFCURVE",
"585 788 CURVE SMOOTH",
"622 788 OFFCURVE",
"658 800 OFFCURVE",
"684 833 CURVE",
"691 866 LINE",
"657 823 OFFCURVE",
"623 812 OFFCURVE",
"590 812 CURVE SMOOTH",
"525 812 OFFCURVE",
"495 862 OFFCURVE",
"427 862 CURVE SMOOTH",
"390 862 OFFCURVE",
"354 850 OFFCURVE",
"327 817 CURVE",
"320 784 LINE"
);
}
);
width = 670;
}
);
leftKerningGroup = U;
note = Utilde;
rightKerningGroup = U;
unicode = 0168;
},
{
glyphname = V;
lastChange = "2015-10-27 23:55:44 +0000";
layers = (
{
layerId = "C023BAC7-6FF9-47E4-9D72-1131A8F8A065";
name = "Light Italic";
paths = (
{
closed = 1;
nodes = (
"321 0 LINE",
"748 699 LINE",
"719 699 LINE",
"317 42 LINE",
"195 699 LINE",
"168 699 LINE",
"299 0 LINE"
);
}
);
width = 700;
}
);
note = V;
unicode = 0056;
},
{
glyphname = W;
lastChange = "2015-10-27 23:55:44 +0000";
layers = (
{
layerId = "C023BAC7-6FF9-47E4-9D72-1131A8F8A065";
name = "Light Italic";
paths = (
{
closed = 1;
nodes = (
"261 0 LINE",
"607 665 LINE",
"672 0 LINE",
"694 0 LINE",
"1061 699 LINE",
"1033 699 LINE",
"692 47 LINE",
"629 699 LINE",
"600 699 LINE",
"259 47 LINE",
"196 699 LINE",
"168 699 LINE",
"239 0 LINE"
);
}
);
width = 1013;
}
);
leftKerningGroup = W;
note = W;
rightKerningGroup = W;
unicode = 0057;
},
{
glyphname = Wacute;
lastChange = "2015-10-27 23:55:44 +0000";
layers = (
{
layerId = "C023BAC7-6FF9-47E4-9D72-1131A8F8A065";
name = "Light Italic";
paths = (
{
closed = 1;
nodes = (
"261 0 LINE",
"607 665 LINE",
"672 0 LINE",
"694 0 LINE",
"1061 699 LINE",
"1033 699 LINE",
"692 47 LINE",
"629 699 LINE",
"600 699 LINE",
"259 47 LINE",
"196 699 LINE",
"168 699 LINE",
"239 0 LINE"
);
},
{
closed = 1;
nodes = (
"640 783 LINE",
"753 950 LINE",
"725 950 LINE",
"618 783 LINE"
);
}
);
width = 1013;
}
);
leftKerningGroup = W;
note = Wacute;
rightKerningGroup = W;
unicode = 1E82;
},
{
glyphname = Wcircumflex;
lastChange = "2015-10-27 23:55:45 +0000";
layers = (
{
layerId = "C023BAC7-6FF9-47E4-9D72-1131A8F8A065";
name = "Light Italic";
paths = (
{
closed = 1;
nodes = (
"261 0 LINE",
"607 665 LINE",
"672 0 LINE",
"694 0 LINE",
"1061 699 LINE",
"1033 699 LINE",
"692 47 LINE",
"629 699 LINE",
"600 699 LINE",
"259 47 LINE",
"196 699 LINE",
"168 699 LINE",
"239 0 LINE"
);
},
{
closed = 1;
nodes = (
"526 784 LINE",
"661 913 LINE",
"742 784 LINE",
"771 784 LINE",
"675 935 LINE",
"653 935 LINE",
"494 784 LINE"
);
}
);
width = 1013;
}
);
leftKerningGroup = W;
note = Wcircumflex;
rightKerningGroup = W;
unicode = 0174;
},
{
glyphname = Wdieresis;
lastChange = "2015-10-27 23:55:46 +0000";
layers = (
{
layerId = "C023BAC7-6FF9-47E4-9D72-1131A8F8A065";
name = "Light Italic";
paths = (
{
closed = 1;
nodes = (
"261 0 LINE",
"607 665 LINE",
"672 0 LINE",
"694 0 LINE",
"1061 699 LINE",
"1033 699 LINE",
"692 47 LINE",
"629 699 LINE",
"600 699 LINE",
"259 47 LINE",
"196 699 LINE",
"168 699 LINE",
"239 0 LINE"
);
},
{
closed = 1;
nodes = (
"549 790 OFFCURVE",
"564 803 OFFCURVE",
"568 818 CURVE",
"571 833 OFFCURVE",
"560 846 OFFCURVE",
"545 846 CURVE SMOOTH",
"530 846 OFFCURVE",
"515 833 OFFCURVE",
"512 818 CURVE",
"508 803 OFFCURVE",
"519 790 OFFCURVE",
"534 790 CURVE SMOOTH"
);
},
{
closed = 1;
nodes = (
"747 790 OFFCURVE",
"762 803 OFFCURVE",
"766 818 CURVE",
"769 833 OFFCURVE",
"758 846 OFFCURVE",
"743 846 CURVE SMOOTH",
"728 846 OFFCURVE",
"713 833 OFFCURVE",
"710 818 CURVE",
"706 803 OFFCURVE",
"717 790 OFFCURVE",
"732 790 CURVE SMOOTH"
);
}
);
width = 1013;
}
);
leftKerningGroup = W;
note = Wdieresis;
rightKerningGroup = W;
unicode = 1E84;
},
{
glyphname = Wgrave;
lastChange = "2015-10-27 23:55:46 +0000";
layers = (
{
layerId = "C023BAC7-6FF9-47E4-9D72-1131A8F8A065";
name = "Light Italic";
paths = (
{
closed = 1;
nodes = (
"261 0 LINE",
"607 665 LINE",
"672 0 LINE",
"694 0 LINE",
"1061 699 LINE",
"1033 699 LINE",
"692 47 LINE",
"629 699 LINE",
"600 699 LINE",
"259 47 LINE",
"196 699 LINE",
"168 699 LINE",
"239 0 LINE"
);
},
{
closed = 1;
nodes = (
"640 783 LINE",
"605 950 LINE",
"577 950 LINE",
"618 783 LINE"
);
}
);
width = 1013;
}
);
leftKerningGroup = W;
note = Wgrave;
rightKerningGroup = W;
unicode = 1E80;
},
{
glyphname = X;
lastChange = "2015-10-27 23:55:46 +0000";
layers = (
{
layerId = "C023BAC7-6FF9-47E4-9D72-1131A8F8A065";
name = "Light Italic";
paths = (
{
closed = 1;
nodes = (
"51 0 LINE",
"380 341 LINE",
"563 0 LINE",
"592 0 LINE",
"397 361 LINE",
"722 699 LINE",
"691 699 LINE",
"387 382 LINE",
"217 699 LINE",
"188 699 LINE",
"368 361 LINE",
"20 0 LINE"
);
}
);
width = 692;
}
);
note = X;
unicode = 0058;
},
{
glyphname = Y;
lastChange = "2015-10-27 23:55:44 +0000";
layers = (
{
layerId = "C023BAC7-6FF9-47E4-9D72-1131A8F8A065";
name = "Light Italic";
paths = (
{
closed = 1;
nodes = (
"303 0 LINE",
"359 265 LINE",
"706 699 LINE",
"676 699 LINE",
"348 289 LINE",
"194 699 LINE",
"168 699 LINE",
"331 265 LINE",
"275 0 LINE"
);
}
);
width = 658;
}
);
leftKerningGroup = Y;
note = Y;
rightKerningGroup = Y;
unicode = 0059;
},
{
glyphname = Yacute;
lastChange = "2015-10-27 23:55:45 +0000";
layers = (
{
layerId = "C023BAC7-6FF9-47E4-9D72-1131A8F8A065";
name = "Light Italic";
paths = (
{
closed = 1;
nodes = (
"303 0 LINE",
"359 265 LINE",
"706 699 LINE",
"676 699 LINE",
"348 289 LINE",
"194 699 LINE",
"168 699 LINE",
"331 265 LINE",
"275 0 LINE"
);
},
{
closed = 1;
nodes = (
"460 792 LINE",
"573 959 LINE",
"545 959 LINE",
"438 792 LINE"
);
}
);
width = 658;
}
);
leftKerningGroup = Y;
note = Yacute;
rightKerningGroup = Y;
unicode = 00DD;
},
{
glyphname = Ycircumflex;
lastChange = "2015-10-27 23:55:46 +0000";
layers = (
{
layerId = "C023BAC7-6FF9-47E4-9D72-1131A8F8A065";
name = "Light Italic";
paths = (
{
closed = 1;
nodes = (
"303 0 LINE",
"359 265 LINE",
"706 699 LINE",
"676 699 LINE",
"348 289 LINE",
"194 699 LINE",
"168 699 LINE",
"331 265 LINE",
"275 0 LINE"
);
},
{
closed = 1;
nodes = (
"349 784 LINE",
"484 913 LINE",
"565 784 LINE",
"594 784 LINE",
"498 935 LINE",
"476 935 LINE",
"317 784 LINE"
);
}
);
width = 658;
}
);
leftKerningGroup = Y;
note = Ycircumflex;
rightKerningGroup = Y;
unicode = 0176;
},
{
glyphname = Ydieresis;
lastChange = "2015-10-27 23:55:45 +0000";
layers = (
{
layerId = "C023BAC7-6FF9-47E4-9D72-1131A8F8A065";
name = "Light Italic";
paths = (
{
closed = 1;
nodes = (
"303 0 LINE",
"359 265 LINE",
"706 699 LINE",
"676 699 LINE",
"348 289 LINE",
"194 699 LINE",
"168 699 LINE",
"331 265 LINE",
"275 0 LINE"
);
},
{
closed = 1;
nodes = (
"375 802 OFFCURVE",
"390 815 OFFCURVE",
"394 830 CURVE",
"397 845 OFFCURVE",
"386 858 OFFCURVE",
"371 858 CURVE SMOOTH",
"356 858 OFFCURVE",
"341 845 OFFCURVE",
"338 830 CURVE",
"334 815 OFFCURVE",
"345 802 OFFCURVE",
"360 802 CURVE SMOOTH"
);
},
{
closed = 1;
nodes = (
"573 802 OFFCURVE",
"588 815 OFFCURVE",
"592 830 CURVE",
"595 845 OFFCURVE",
"584 858 OFFCURVE",
"569 858 CURVE SMOOTH",
"554 858 OFFCURVE",
"539 845 OFFCURVE",
"536 830 CURVE",
"532 815 OFFCURVE",
"543 802 OFFCURVE",
"558 802 CURVE SMOOTH"
);
}
);
width = 658;
}
);
leftKerningGroup = Y;
note = Ydieresis;
rightKerningGroup = Y;
unicode = 0178;
},
{
glyphname = Ydotaccent;
lastChange = "2015-10-27 23:55:44 +0000";
layers = (
{
layerId = "C023BAC7-6FF9-47E4-9D72-1131A8F8A065";
name = "Light Italic";
paths = (
{
closed = 1;
nodes = (
"303 0 LINE",
"359 265 LINE",
"706 699 LINE",
"676 699 LINE",
"348 289 LINE",
"194 699 LINE",
"168 699 LINE",
"331 265 LINE",
"275 0 LINE"
);
},
{
closed = 1;
nodes = (
"471 790 OFFCURVE",
"486 803 OFFCURVE",
"490 818 CURVE",
"493 833 OFFCURVE",
"482 846 OFFCURVE",
"467 846 CURVE SMOOTH",
"452 846 OFFCURVE",
"437 833 OFFCURVE",
"434 818 CURVE",
"430 803 OFFCURVE",
"441 790 OFFCURVE",
"456 790 CURVE SMOOTH"
);
}
);
width = 658;
}
);
leftKerningGroup = Y;
note = Ydotaccent;
rightKerningGroup = Y;
unicode = 1E8E;
},
{
glyphname = Ydotbelow;
lastChange = "2015-10-27 23:55:46 +0000";
layers = (
{
layerId = "C023BAC7-6FF9-47E4-9D72-1131A8F8A065";
name = "Light Italic";
paths = (
{
closed = 1;
nodes = (
"303 0 LINE",
"359 265 LINE",
"706 699 LINE",
"676 699 LINE",
"348 289 LINE",
"194 699 LINE",
"168 699 LINE",
"331 265 LINE",
"275 0 LINE"
);
},
{
closed = 1;
nodes = (
"279 -121 OFFCURVE",
"294 -108 OFFCURVE",
"297 -93 CURVE SMOOTH",
"300 -78 OFFCURVE",
"290 -65 OFFCURVE",
"276 -65 CURVE SMOOTH",
"261 -65 OFFCURVE",
"245 -78 OFFCURVE",
"242 -93 CURVE SMOOTH",
"239 -108 OFFCURVE",
"249 -121 OFFCURVE",
"264 -121 CURVE SMOOTH"
);
}
);
width = 658;
}
);
leftKerningGroup = Y;
note = Ydotbelow;
rightKerningGroup = Y;
unicode = 1EF4;
},
{
glyphname = Ygrave;
lastChange = "2015-10-27 23:55:44 +0000";
layers = (
{
layerId = "C023BAC7-6FF9-47E4-9D72-1131A8F8A065";
name = "Light Italic";
paths = (
{
closed = 1;
nodes = (
"303 0 LINE",
"359 265 LINE",
"706 699 LINE",
"676 699 LINE",
"348 289 LINE",
"194 699 LINE",
"168 699 LINE",
"331 265 LINE",
"275 0 LINE"
);
},
{
closed = 1;
nodes = (
"475 784 LINE",
"440 951 LINE",
"412 951 LINE",
"453 784 LINE"
);
}
);
width = 658;
}
);
leftKerningGroup = Y;
note = Ygrave;
rightKerningGroup = Y;
unicode = 1EF2;
},
{
glyphname = Yhookabove;
lastChange = "2015-10-27 23:55:46 +0000";
layers = (
{
layerId = "C023BAC7-6FF9-47E4-9D72-1131A8F8A065";
name = "Light Italic";
paths = (
{
closed = 1;
nodes = (
"303 0 LINE",
"359 265 LINE",
"706 699 LINE",
"676 699 LINE",
"348 289 LINE",
"194 699 LINE",
"168 699 LINE",
"331 265 LINE",
"275 0 LINE"
);
},
{
closed = 1;
nodes = (
"455 784 LINE",
"464 828 LINE",
"530 831 OFFCURVE",
"569 866 OFFCURVE",
"580 915 CURVE SMOOTH",
"590 965 OFFCURVE",
"564 1001 OFFCURVE",
"495 1001 CURVE SMOOTH",
"475 1001 OFFCURVE",
"450 997 OFFCURVE",
"438 993 CURVE",
"433 969 LINE",
"446 974 OFFCURVE",
"472 977 OFFCURVE",
"490 977 CURVE SMOOTH",
"538 977 OFFCURVE",
"563 958 OFFCURVE",
"553 914 CURVE SMOOTH",
"544 870 OFFCURVE",
"517 847 OFFCURVE",
"445 847 CURVE",
"432 784 LINE"
);
}
);
width = 658;
}
);
leftKerningGroup = Y;
note = Yhookabove;
rightKerningGroup = Y;
unicode = 1EF6;
},
{
glyphname = Ytilde;
lastChange = "2015-10-27 23:55:46 +0000";
layers = (
{
layerId = "C023BAC7-6FF9-47E4-9D72-1131A8F8A065";
name = "Light Italic";
paths = (
{
closed = 1;
nodes = (
"303 0 LINE",
"359 265 LINE",
"706 699 LINE",
"676 699 LINE",
"348 289 LINE",
"194 699 LINE",
"168 699 LINE",
"331 265 LINE",
"275 0 LINE"
);
},
{
closed = 1;
nodes = (
"315 827 OFFCURVE",
"347 838 OFFCURVE",
"380 838 CURVE SMOOTH",
"444 838 OFFCURVE",
"470 788 OFFCURVE",
"543 788 CURVE SMOOTH",
"580 788 OFFCURVE",
"616 800 OFFCURVE",
"642 833 CURVE",
"649 866 LINE",
"615 823 OFFCURVE",
"581 812 OFFCURVE",
"548 812 CURVE SMOOTH",
"483 812 OFFCURVE",
"453 862 OFFCURVE",
"385 862 CURVE SMOOTH",
"348 862 OFFCURVE",
"312 850 OFFCURVE",
"285 817 CURVE",
"278 784 LINE"
);
}
);
width = 658;
}
);
leftKerningGroup = Y;
note = Ytilde;
rightKerningGroup = Y;
unicode = 1EF8;
},
{
glyphname = Z;
lastChange = "2015-10-27 23:55:46 +0000";
layers = (
{
layerId = "C023BAC7-6FF9-47E4-9D72-1131A8F8A065";
name = "Light Italic";
paths = (
{
closed = 1;
nodes = (
"515 0 LINE",
"520 24 LINE",
"57 24 LINE",
"647 673 LINE",
"652 699 LINE",
"180 699 LINE",
"175 675 LINE",
"615 675 LINE",
"25 26 LINE",
"20 0 LINE"
);
}
);
width = 615;
}
);
leftKerningGroup = Z;
note = Z;
rightKerningGroup = Z;
unicode = 005A;
},
{
glyphname = Zacute;
lastChange = "2015-10-27 23:55:45 +0000";
layers = (
{
layerId = "C023BAC7-6FF9-47E4-9D72-1131A8F8A065";
name = "Light Italic";
paths = (
{
closed = 1;
nodes = (
"515 0 LINE",
"520 24 LINE",
"57 24 LINE",
"647 673 LINE",
"652 699 LINE",
"180 699 LINE",
"175 675 LINE",
"615 675 LINE",
"25 26 LINE",
"20 0 LINE"
);
},
{
closed = 1;
nodes = (
"418 784 LINE",
"531 951 LINE",
"503 951 LINE",
"396 784 LINE"
);
}
);
width = 615;
}
);
leftKerningGroup = Z;
note = Zacute;
rightKerningGroup = Z;
unicode = 0179;
},
{
glyphname = Zcaron;
lastChange = "2015-10-27 23:55:46 +0000";
layers = (
{
layerId = "C023BAC7-6FF9-47E4-9D72-1131A8F8A065";
name = "Light Italic";
paths = (
{
closed = 1;
nodes = (
"515 0 LINE",
"520 24 LINE",
"57 24 LINE",
"647 673 LINE",
"652 699 LINE",
"180 699 LINE",
"175 675 LINE",
"615 675 LINE",
"25 26 LINE",
"20 0 LINE"
);
},
{
closed = 1;
nodes = (
"452 784 LINE",
"612 935 LINE",
"579 935 LINE",
"443 806 LINE",
"363 935 LINE",
"334 935 LINE",
"430 784 LINE"
);
}
);
width = 615;
}
);
leftKerningGroup = Z;
note = Zcaron;
rightKerningGroup = Z;
unicode = 017D;
},
{
glyphname = Zdotaccent;
lastChange = "2015-10-27 23:55:45 +0000";
layers = (
{
layerId = "C023BAC7-6FF9-47E4-9D72-1131A8F8A065";
name = "Light Italic";
paths = (
{
closed = 1;
nodes = (
"515 0 LINE",
"520 24 LINE",
"57 24 LINE",
"647 673 LINE",
"652 699 LINE",
"180 699 LINE",
"175 675 LINE",
"615 675 LINE",
"25 26 LINE",
"20 0 LINE"
);
},
{
closed = 1;
nodes = (
"442 790 OFFCURVE",
"457 803 OFFCURVE",
"461 818 CURVE",
"464 833 OFFCURVE",
"453 846 OFFCURVE",
"438 846 CURVE SMOOTH",
"423 846 OFFCURVE",
"408 833 OFFCURVE",
"405 818 CURVE",
"401 803 OFFCURVE",
"412 790 OFFCURVE",
"427 790 CURVE SMOOTH"
);
}
);
width = 615;
}
);
leftKerningGroup = Z;
note = Zdotaccent;
rightKerningGroup = Z;
unicode = 017B;
},
{
glyphname = Zdotbelow;
lastChange = "2015-10-27 23:55:46 +0000";
layers = (
{
layerId = "C023BAC7-6FF9-47E4-9D72-1131A8F8A065";
name = "Light Italic";
paths = (
{
closed = 1;
nodes = (
"515 0 LINE",
"520 24 LINE",
"57 24 LINE",
"647 673 LINE",
"652 699 LINE",
"180 699 LINE",
"175 675 LINE",
"615 675 LINE",
"25 26 LINE",
"20 0 LINE"
);
},
{
closed = 1;
nodes = (
"266 -121 OFFCURVE",
"281 -108 OFFCURVE",
"284 -93 CURVE SMOOTH",
"287 -78 OFFCURVE",
"277 -65 OFFCURVE",
"263 -65 CURVE SMOOTH",
"248 -65 OFFCURVE",
"232 -78 OFFCURVE",
"229 -93 CURVE SMOOTH",
"226 -108 OFFCURVE",
"236 -121 OFFCURVE",
"251 -121 CURVE SMOOTH"
);
}
);
width = 615;
}
);
leftKerningGroup = Z;
note = Zdotbelow;
rightKerningGroup = Z;
unicode = 1E92;
},
{
glyphname = a;
lastChange = "2015-10-27 23:55:44 +0000";
layers = (
{
layerId = "C023BAC7-6FF9-47E4-9D72-1131A8F8A065";
name = "Light Italic";
paths = (
{
closed = 1;
nodes = (
"369 -15 OFFCURVE",
"461 27 OFFCURVE",
"523 113 CURVE",
"499 0 LINE",
"526 0 LINE",
"628 480 LINE",
"601 480 LINE",
"576 365 LINE",
"550 450 OFFCURVE",
"468 495 OFFCURVE",
"374 495 CURVE SMOOTH",
"235 495 OFFCURVE",
"102 399 OFFCURVE",
"69 239 CURVE SMOOTH",
"37 82 OFFCURVE",
"128 -15 OFFCURVE",
"265 -15 CURVE SMOOTH"
);
},
{
closed = 1;
nodes = (
"140 9 OFFCURVE",
"65 98 OFFCURVE",
"95 239 CURVE SMOOTH",
"125 381 OFFCURVE",
"247 471 OFFCURVE",
"369 471 CURVE SMOOTH",
"484 471 OFFCURVE",
"552 413 OFFCURVE",
"564 310 CURVE",
"534 168 LINE",
"482 66 OFFCURVE",
"380 9 OFFCURVE",
"270 9 CURVE SMOOTH"
);
}
);
width = 623;
}
);
leftKerningGroup = a;
note = a;
rightKerningGroup = a;
unicode = 0061;
},
{
glyphname = aacute;
lastChange = "2015-10-27 23:55:45 +0000";
layers = (
{
layerId = "C023BAC7-6FF9-47E4-9D72-1131A8F8A065";
name = "Light Italic";
paths = (
{
closed = 1;
nodes = (
"369 -15 OFFCURVE",
"461 27 OFFCURVE",
"523 113 CURVE",
"499 0 LINE",
"526 0 LINE",
"628 480 LINE",
"601 480 LINE",
"576 365 LINE",
"550 450 OFFCURVE",
"468 495 OFFCURVE",
"374 495 CURVE SMOOTH",
"235 495 OFFCURVE",
"102 399 OFFCURVE",
"69 239 CURVE SMOOTH",
"37 82 OFFCURVE",
"128 -15 OFFCURVE",
"265 -15 CURVE SMOOTH"
);
},
{
closed = 1;
nodes = (
"140 9 OFFCURVE",
"65 98 OFFCURVE",
"95 239 CURVE SMOOTH",
"125 381 OFFCURVE",
"247 471 OFFCURVE",
"369 471 CURVE SMOOTH",
"484 471 OFFCURVE",
"552 413 OFFCURVE",
"564 310 CURVE",
"534 168 LINE",
"482 66 OFFCURVE",
"380 9 OFFCURVE",
"270 9 CURVE SMOOTH"
);
},
{
closed = 1;
nodes = (
"482 562 LINE",
"595 729 LINE",
"567 729 LINE",
"460 562 LINE"
);
}
);
width = 623;
}
);
leftKerningGroup = a;
note = aacute;
rightKerningGroup = a;
unicode = 00E1;
},
{
glyphname = abreve;
lastChange = "2015-10-27 23:55:45 +0000";
layers = (
{
layerId = "C023BAC7-6FF9-47E4-9D72-1131A8F8A065";
name = "Light Italic";
paths = (
{
closed = 1;
nodes = (
"369 -15 OFFCURVE",
"461 27 OFFCURVE",
"523 113 CURVE",
"499 0 LINE",
"526 0 LINE",
"628 480 LINE",
"601 480 LINE",
"576 365 LINE",
"550 450 OFFCURVE",
"468 495 OFFCURVE",
"374 495 CURVE SMOOTH",
"235 495 OFFCURVE",
"102 399 OFFCURVE",
"69 239 CURVE SMOOTH",
"37 82 OFFCURVE",
"128 -15 OFFCURVE",
"265 -15 CURVE SMOOTH"
);
},
{
closed = 1;
nodes = (
"140 9 OFFCURVE",
"65 98 OFFCURVE",
"95 239 CURVE SMOOTH",
"125 381 OFFCURVE",
"247 471 OFFCURVE",
"369 471 CURVE SMOOTH",
"484 471 OFFCURVE",
"552 413 OFFCURVE",
"564 310 CURVE",
"534 168 LINE",
"482 66 OFFCURVE",
"380 9 OFFCURVE",
"270 9 CURVE SMOOTH"
);
},
{
closed = 1;
nodes = (
"527 580 OFFCURVE",
"585 628 OFFCURVE",
"598 688 CURVE",
"572 688 LINE",
"562 640 OFFCURVE",
"519 603 OFFCURVE",
"460 603 CURVE SMOOTH",
"402 603 OFFCURVE",
"374 640 OFFCURVE",
"384 688 CURVE",
"362 688 LINE",
"349 628 OFFCURVE",
"387 580 OFFCURVE",
"457 580 CURVE SMOOTH"
);
}
);
width = 623;
}
);
leftKerningGroup = a;
note = abreve;
rightKerningGroup = a;
unicode = 0103;
},
{
glyphname = abreveacute;
lastChange = "2015-10-27 23:55:44 +0000";
layers = (
{
layerId = "C023BAC7-6FF9-47E4-9D72-1131A8F8A065";
name = "Light Italic";
paths = (
{
closed = 1;
nodes = (
"369 -15 OFFCURVE",
"461 27 OFFCURVE",
"523 113 CURVE",
"499 0 LINE",
"526 0 LINE",
"628 480 LINE",
"601 480 LINE",
"576 365 LINE",
"550 450 OFFCURVE",
"468 495 OFFCURVE",
"374 495 CURVE SMOOTH",
"235 495 OFFCURVE",
"102 399 OFFCURVE",
"69 239 CURVE SMOOTH",
"37 82 OFFCURVE",
"128 -15 OFFCURVE",
"265 -15 CURVE SMOOTH"
);
},
{
closed = 1;
nodes = (
"140 9 OFFCURVE",
"65 98 OFFCURVE",
"95 239 CURVE SMOOTH",
"125 381 OFFCURVE",
"247 471 OFFCURVE",
"369 471 CURVE SMOOTH",
"484 471 OFFCURVE",
"552 413 OFFCURVE",
"564 310 CURVE",
"534 168 LINE",
"482 66 OFFCURVE",
"380 9 OFFCURVE",
"270 9 CURVE SMOOTH"
);
},
{
closed = 1;
nodes = (
"508 565 OFFCURVE",
"566 613 OFFCURVE",
"579 673 CURVE",
"555 673 LINE",
"545 625 OFFCURVE",
"502 588 OFFCURVE",
"443 588 CURVE SMOOTH",
"385 588 OFFCURVE",
"357 625 OFFCURVE",
"367 673 CURVE",
"343 673 LINE",
"330 613 OFFCURVE",
"368 565 OFFCURVE",
"438 565 CURVE SMOOTH"
);
},
{
closed = 1;
nodes = (
"449 639 LINE",
"534 759 LINE",
"506 759 LINE",
"427 639 LINE"
);
}
);
width = 623;
}
);
leftKerningGroup = a;
note = abreveacute;
rightKerningGroup = a;
unicode = 1EAF;
},
{
glyphname = abrevedotbelow;
lastChange = "2015-10-27 23:55:44 +0000";
layers = (
{
layerId = "C023BAC7-6FF9-47E4-9D72-1131A8F8A065";
name = "Light Italic";
paths = (
{
closed = 1;
nodes = (
"369 -15 OFFCURVE",
"461 27 OFFCURVE",
"523 113 CURVE",
"499 0 LINE",
"526 0 LINE",
"628 480 LINE",
"601 480 LINE",
"576 365 LINE",
"550 450 OFFCURVE",
"468 495 OFFCURVE",
"374 495 CURVE SMOOTH",
"235 495 OFFCURVE",
"102 399 OFFCURVE",
"69 239 CURVE SMOOTH",
"37 82 OFFCURVE",
"128 -15 OFFCURVE",
"265 -15 CURVE SMOOTH"
);
},
{
closed = 1;
nodes = (
"304 -121 OFFCURVE",
"319 -108 OFFCURVE",
"322 -93 CURVE SMOOTH",
"325 -78 OFFCURVE",
"315 -65 OFFCURVE",
"301 -65 CURVE SMOOTH",
"286 -65 OFFCURVE",
"270 -78 OFFCURVE",
"267 -93 CURVE SMOOTH",
"264 -108 OFFCURVE",
"274 -121 OFFCURVE",
"289 -121 CURVE SMOOTH"
);
},
{
closed = 1;
nodes = (
"140 9 OFFCURVE",
"65 98 OFFCURVE",
"95 239 CURVE SMOOTH",
"125 381 OFFCURVE",
"247 471 OFFCURVE",
"369 471 CURVE SMOOTH",
"484 471 OFFCURVE",
"552 413 OFFCURVE",
"564 310 CURVE",
"534 168 LINE",
"482 66 OFFCURVE",
"380 9 OFFCURVE",
"270 9 CURVE SMOOTH"
);
},
{
closed = 1;
nodes = (
"502 560 OFFCURVE",
"560 608 OFFCURVE",
"573 668 CURVE",
"547 668 LINE",
"537 620 OFFCURVE",
"494 583 OFFCURVE",
"435 583 CURVE SMOOTH",
"377 583 OFFCURVE",
"349 620 OFFCURVE",
"359 668 CURVE",
"337 668 LINE",
"324 608 OFFCURVE",
"362 560 OFFCURVE",
"432 560 CURVE SMOOTH"
);
}
);
width = 623;
}
);
leftKerningGroup = a;
note = abrevedotbelow;
rightKerningGroup = a;
unicode = 1EB7;
},
{
glyphname = abrevegrave;
lastChange = "2015-10-27 23:55:45 +0000";
layers = (
{
layerId = "C023BAC7-6FF9-47E4-9D72-1131A8F8A065";
name = "Light Italic";
paths = (
{
closed = 1;
nodes = (
"369 -15 OFFCURVE",
"461 27 OFFCURVE",
"523 113 CURVE",
"499 0 LINE",
"526 0 LINE",
"628 480 LINE",
"601 480 LINE",
"576 365 LINE",
"550 450 OFFCURVE",
"468 495 OFFCURVE",
"374 495 CURVE SMOOTH",
"235 495 OFFCURVE",
"102 399 OFFCURVE",
"69 239 CURVE SMOOTH",
"37 82 OFFCURVE",
"128 -15 OFFCURVE",
"265 -15 CURVE SMOOTH"
);
},
{
closed = 1;
nodes = (
"140 9 OFFCURVE",
"65 98 OFFCURVE",
"95 239 CURVE SMOOTH",
"125 381 OFFCURVE",
"247 471 OFFCURVE",
"369 471 CURVE SMOOTH",
"484 471 OFFCURVE",
"552 413 OFFCURVE",
"564 310 CURVE",
"534 168 LINE",
"482 66 OFFCURVE",
"380 9 OFFCURVE",
"270 9 CURVE SMOOTH"
);
},
{
closed = 1;
nodes = (
"507 565 OFFCURVE",
"565 613 OFFCURVE",
"578 673 CURVE",
"554 673 LINE",
"544 625 OFFCURVE",
"500 588 OFFCURVE",
"442 588 CURVE SMOOTH",
"383 588 OFFCURVE",
"356 625 OFFCURVE",
"366 673 CURVE",
"342 673 LINE",
"329 613 OFFCURVE",
"367 565 OFFCURVE",
"437 565 CURVE SMOOTH"
);
},
{
closed = 1;
nodes = (
"480 639 LINE",
"451 759 LINE",
"423 759 LINE",
"458 639 LINE"
);
}
);
width = 623;
}
);
leftKerningGroup = a;
note = abrevegrave;
rightKerningGroup = a;
unicode = 1EB1;
},
{
glyphname = abrevehookabove;
lastChange = "2015-10-27 23:55:45 +0000";
layers = (
{
layerId = "C023BAC7-6FF9-47E4-9D72-1131A8F8A065";
name = "Light Italic";
paths = (
{
closed = 1;
nodes = (
"369 -15 OFFCURVE",
"461 27 OFFCURVE",
"523 113 CURVE",
"499 0 LINE",
"526 0 LINE",
"628 480 LINE",
"601 480 LINE",
"576 365 LINE",
"550 450 OFFCURVE",
"468 495 OFFCURVE",
"374 495 CURVE SMOOTH",
"235 495 OFFCURVE",
"102 399 OFFCURVE",
"69 239 CURVE SMOOTH",
"37 82 OFFCURVE",
"128 -15 OFFCURVE",
"265 -15 CURVE SMOOTH"
);
},
{
closed = 1;
nodes = (
"140 9 OFFCURVE",
"65 98 OFFCURVE",
"95 239 CURVE SMOOTH",
"125 381 OFFCURVE",
"247 471 OFFCURVE",
"369 471 CURVE SMOOTH",
"484 471 OFFCURVE",
"552 413 OFFCURVE",
"564 310 CURVE",
"534 168 LINE",
"482 66 OFFCURVE",
"380 9 OFFCURVE",
"270 9 CURVE SMOOTH"
);
},
{
closed = 1;
nodes = (
"510 565 OFFCURVE",
"568 613 OFFCURVE",
"581 673 CURVE",
"557 673 LINE",
"547 625 OFFCURVE",
"504 588 OFFCURVE",
"445 588 CURVE SMOOTH",
"387 588 OFFCURVE",
"359 625 OFFCURVE",
"369 673 CURVE",
"345 673 LINE",
"332 613 OFFCURVE",
"370 565 OFFCURVE",
"440 565 CURVE SMOOTH"
);
},
{
closed = 1;
nodes = (
"456 624 LINE",
"462 656 LINE",
"507 658 OFFCURVE",
"538 681 OFFCURVE",
"545 716 CURVE SMOOTH",
"553 753 OFFCURVE",
"537 778 OFFCURVE",
"488 778 CURVE SMOOTH",
"470 778 OFFCURVE",
"450 774 OFFCURVE",
"438 770 CURVE",
"433 747 LINE",
"445 752 OFFCURVE",
"467 756 OFFCURVE",
"484 756 CURVE SMOOTH",
"514 756 OFFCURVE",
"528 746 OFFCURVE",
"521 716 CURVE",
"515 685 OFFCURVE",
"493 674 OFFCURVE",
"445 674 CURVE",
"435 624 LINE"
);
}
);
width = 623;
}
);
leftKerningGroup = a;
note = abrevehookabove;
rightKerningGroup = a;
unicode = 1EB3;
},
{
glyphname = abrevetilde;
lastChange = "2015-10-27 23:55:45 +0000";
layers = (
{
layerId = "C023BAC7-6FF9-47E4-9D72-1131A8F8A065";
name = "Light Italic";
paths = (
{
closed = 1;
nodes = (
"369 -15 OFFCURVE",
"461 27 OFFCURVE",
"523 113 CURVE",
"499 0 LINE",
"526 0 LINE",
"628 480 LINE",
"601 480 LINE",
"576 365 LINE",
"550 450 OFFCURVE",
"468 495 OFFCURVE",
"374 495 CURVE SMOOTH",
"235 495 OFFCURVE",
"102 399 OFFCURVE",
"69 239 CURVE SMOOTH",
"37 82 OFFCURVE",
"128 -15 OFFCURVE",
"265 -15 CURVE SMOOTH"
);
},
{
closed = 1;
nodes = (
"140 9 OFFCURVE",
"65 98 OFFCURVE",
"95 239 CURVE SMOOTH",
"125 381 OFFCURVE",
"247 471 OFFCURVE",
"369 471 CURVE SMOOTH",
"484 471 OFFCURVE",
"552 413 OFFCURVE",
"564 310 CURVE",
"534 168 LINE",
"482 66 OFFCURVE",
"380 9 OFFCURVE",
"270 9 CURVE SMOOTH"
);
},
{
closed = 1;
nodes = (
"515 565 OFFCURVE",
"573 613 OFFCURVE",
"586 673 CURVE",
"562 673 LINE",
"552 625 OFFCURVE",
"509 588 OFFCURVE",
"450 588 CURVE SMOOTH",
"392 588 OFFCURVE",
"364 625 OFFCURVE",
"374 673 CURVE",
"350 673 LINE",
"337 613 OFFCURVE",
"375 565 OFFCURVE",
"445 565 CURVE SMOOTH"
);
},
{
closed = 1;
nodes = (
"579 701 OFFCURVE",
"601 712 OFFCURVE",
"621 738 CURVE",
"627 768 LINE",
"601 733 OFFCURVE",
"580 723 OFFCURVE",
"550 723 CURVE SMOOTH",
"508 723 OFFCURVE",
"462 769 OFFCURVE",
"417 769 CURVE SMOOTH",
"383 769 OFFCURVE",
"360 758 OFFCURVE",
"341 732 CURVE",
"334 702 LINE",
"363 737 OFFCURVE",
"383 747 OFFCURVE",
"413 747 CURVE SMOOTH",
"454 747 OFFCURVE",
"496 701 OFFCURVE",
"545 701 CURVE SMOOTH"
);
}
);
width = 623;
}
);
leftKerningGroup = a;
note = abrevetilde;
rightKerningGroup = a;
unicode = 1EB5;
},
{
glyphname = acaron;
lastChange = "2015-10-27 23:55:45 +0000";
layers = (
{
layerId = "C023BAC7-6FF9-47E4-9D72-1131A8F8A065";
name = "Light Italic";
paths = (
{
closed = 1;
nodes = (
"369 -15 OFFCURVE",
"461 27 OFFCURVE",
"523 113 CURVE",
"499 0 LINE",
"526 0 LINE",
"628 480 LINE",
"601 480 LINE",
"576 365 LINE",
"550 450 OFFCURVE",
"468 495 OFFCURVE",
"374 495 CURVE SMOOTH",
"235 495 OFFCURVE",
"102 399 OFFCURVE",
"69 239 CURVE SMOOTH",
"37 82 OFFCURVE",
"128 -15 OFFCURVE",
"265 -15 CURVE SMOOTH"
);
},
{
closed = 1;
nodes = (
"140 9 OFFCURVE",
"65 98 OFFCURVE",
"95 239 CURVE SMOOTH",
"125 381 OFFCURVE",
"247 471 OFFCURVE",
"369 471 CURVE SMOOTH",
"484 471 OFFCURVE",
"552 413 OFFCURVE",
"564 310 CURVE",
"534 168 LINE",
"482 66 OFFCURVE",
"380 9 OFFCURVE",
"270 9 CURVE SMOOTH"
);
},
{
closed = 1;
nodes = (
"458 562 LINE",
"618 713 LINE",
"585 713 LINE",
"449 584 LINE",
"369 713 LINE",
"340 713 LINE",
"436 562 LINE"
);
}
);
width = 623;
}
);
leftKerningGroup = a;
note = acaron;
rightKerningGroup = a;
unicode = 01CE;
},
{
glyphname = acircumflex;
lastChange = "2015-10-27 23:55:45 +0000";
layers = (
{
layerId = "C023BAC7-6FF9-47E4-9D72-1131A8F8A065";
name = "Light Italic";
paths = (
{
closed = 1;
nodes = (
"369 -15 OFFCURVE",
"461 27 OFFCURVE",
"523 113 CURVE",
"499 0 LINE",
"526 0 LINE",
"628 480 LINE",
"601 480 LINE",
"576 365 LINE",
"550 450 OFFCURVE",
"468 495 OFFCURVE",
"374 495 CURVE SMOOTH",
"235 495 OFFCURVE",
"102 399 OFFCURVE",
"69 239 CURVE SMOOTH",
"37 82 OFFCURVE",
"128 -15 OFFCURVE",
"265 -15 CURVE SMOOTH"
);
},
{
closed = 1;
nodes = (
"140 9 OFFCURVE",
"65 98 OFFCURVE",
"95 239 CURVE SMOOTH",
"125 381 OFFCURVE",
"247 471 OFFCURVE",
"369 471 CURVE SMOOTH",
"484 471 OFFCURVE",
"552 413 OFFCURVE",
"564 310 CURVE",
"534 168 LINE",
"482 66 OFFCURVE",
"380 9 OFFCURVE",
"270 9 CURVE SMOOTH"
);
},
{
closed = 1;
nodes = (
"368 562 LINE",
"503 691 LINE",
"584 562 LINE",
"613 562 LINE",
"517 713 LINE",
"495 713 LINE",
"336 562 LINE"
);
}
);
width = 623;
}
);
leftKerningGroup = a;
note = acircumflex;
rightKerningGroup = a;
unicode = 00E2;
},
{
glyphname = acircumflexacute;
lastChange = "2015-10-27 23:55:45 +0000";
layers = (
{
layerId = "C023BAC7-6FF9-47E4-9D72-1131A8F8A065";
name = "Light Italic";
paths = (
{
closed = 1;
nodes = (
"369 -15 OFFCURVE",
"461 27 OFFCURVE",
"523 113 CURVE",
"499 0 LINE",
"526 0 LINE",
"628 480 LINE",
"601 480 LINE",
"576 365 LINE",
"550 450 OFFCURVE",
"468 495 OFFCURVE",
"374 495 CURVE SMOOTH",
"235 495 OFFCURVE",
"102 399 OFFCURVE",
"69 239 CURVE SMOOTH",
"37 82 OFFCURVE",
"128 -15 OFFCURVE",
"265 -15 CURVE SMOOTH"
);
},
{
closed = 1;
nodes = (
"140 9 OFFCURVE",
"65 98 OFFCURVE",
"95 239 CURVE SMOOTH",
"125 381 OFFCURVE",
"247 471 OFFCURVE",
"369 471 CURVE SMOOTH",
"484 471 OFFCURVE",
"552 413 OFFCURVE",
"564 310 CURVE",
"534 168 LINE",
"482 66 OFFCURVE",
"380 9 OFFCURVE",
"270 9 CURVE SMOOTH"
);
},
{
closed = 1;
nodes = (
"324 558 LINE",
"453 660 LINE",
"540 558 LINE",
"571 558 LINE",
"468 679 LINE",
"446 679 LINE",
"293 558 LINE"
);
},
{
closed = 1;
nodes = (
"553 641 LINE",
"646 749 LINE",
"618 749 LINE",
"531 641 LINE"
);
}
);
width = 623;
}
);
leftKerningGroup = a;
note = acircumflexacute;
rightKerningGroup = a;
unicode = 1EA5;
},
{
glyphname = acircumflexdotbelow;
lastChange = "2015-10-27 23:55:44 +0000";
layers = (
{
layerId = "C023BAC7-6FF9-47E4-9D72-1131A8F8A065";
name = "Light Italic";
paths = (
{
closed = 1;
nodes = (
"369 -15 OFFCURVE",
"461 27 OFFCURVE",
"523 113 CURVE",
"499 0 LINE",
"526 0 LINE",
"628 480 LINE",
"601 480 LINE",
"576 365 LINE",
"550 450 OFFCURVE",
"468 495 OFFCURVE",
"374 495 CURVE SMOOTH",
"235 495 OFFCURVE",
"102 399 OFFCURVE",
"69 239 CURVE SMOOTH",
"37 82 OFFCURVE",
"128 -15 OFFCURVE",
"265 -15 CURVE SMOOTH"
);
},
{
closed = 1;
nodes = (
"305 -121 OFFCURVE",
"320 -108 OFFCURVE",
"323 -93 CURVE SMOOTH",
"326 -78 OFFCURVE",
"316 -65 OFFCURVE",
"302 -65 CURVE SMOOTH",
"287 -65 OFFCURVE",
"271 -78 OFFCURVE",
"268 -93 CURVE SMOOTH",
"265 -108 OFFCURVE",
"275 -121 OFFCURVE",
"290 -121 CURVE SMOOTH"
);
},
{
closed = 1;
nodes = (
"140 9 OFFCURVE",
"65 98 OFFCURVE",
"95 239 CURVE SMOOTH",
"125 381 OFFCURVE",
"247 471 OFFCURVE",
"369 471 CURVE SMOOTH",
"484 471 OFFCURVE",
"552 413 OFFCURVE",
"564 310 CURVE",
"534 168 LINE",
"482 66 OFFCURVE",
"380 9 OFFCURVE",
"270 9 CURVE SMOOTH"
);
},
{
closed = 1;
nodes = (
"328 568 LINE",
"463 697 LINE",
"544 568 LINE",
"573 568 LINE",
"477 719 LINE",
"455 719 LINE",
"296 568 LINE"
);
}
);
width = 623;
}
);
leftKerningGroup = a;
note = acircumflexdotbelow;
rightKerningGroup = a;
unicode = 1EAD;
},
{
glyphname = acircumflexgrave;
lastChange = "2015-10-27 23:55:45 +0000";
layers = (
{
layerId = "C023BAC7-6FF9-47E4-9D72-1131A8F8A065";
name = "Light Italic";
paths = (
{
closed = 1;
nodes = (
"369 -15 OFFCURVE",
"461 27 OFFCURVE",
"523 113 CURVE",
"499 0 LINE",
"526 0 LINE",
"628 480 LINE",
"601 480 LINE",
"576 365 LINE",
"550 450 OFFCURVE",
"468 495 OFFCURVE",
"374 495 CURVE SMOOTH",
"235 495 OFFCURVE",
"102 399 OFFCURVE",
"69 239 CURVE SMOOTH",
"37 82 OFFCURVE",
"128 -15 OFFCURVE",
"265 -15 CURVE SMOOTH"
);
},
{
closed = 1;
nodes = (
"140 9 OFFCURVE",
"65 98 OFFCURVE",
"95 239 CURVE SMOOTH",
"125 381 OFFCURVE",
"247 471 OFFCURVE",
"369 471 CURVE SMOOTH",
"484 471 OFFCURVE",
"552 413 OFFCURVE",
"564 310 CURVE",
"534 168 LINE",
"482 66 OFFCURVE",
"380 9 OFFCURVE",
"270 9 CURVE SMOOTH"
);
},
{
closed = 1;
nodes = (
"374 641 LINE",
"332 749 LINE",
"304 749 LINE",
"352 641 LINE"
);
},
{
closed = 1;
nodes = (
"331 558 LINE",
"460 660 LINE",
"547 558 LINE",
"577 558 LINE",
"475 679 LINE",
"453 679 LINE",
"300 558 LINE"
);
}
);
width = 623;
}
);
leftKerningGroup = a;
note = acircumflexgrave;
rightKerningGroup = a;
unicode = 1EA7;
},
{
glyphname = acircumflexhookabove;
lastChange = "2015-10-27 23:55:44 +0000";
layers = (
{
layerId = "C023BAC7-6FF9-47E4-9D72-1131A8F8A065";
name = "Light Italic";
paths = (
{
closed = 1;
nodes = (
"369 -15 OFFCURVE",
"461 27 OFFCURVE",
"523 113 CURVE",
"499 0 LINE",
"526 0 LINE",
"628 480 LINE",
"601 480 LINE",
"576 365 LINE",
"550 450 OFFCURVE",
"468 495 OFFCURVE",
"374 495 CURVE SMOOTH",
"235 495 OFFCURVE",
"102 399 OFFCURVE",
"69 239 CURVE SMOOTH",
"37 82 OFFCURVE",
"128 -15 OFFCURVE",
"265 -15 CURVE SMOOTH"
);
},
{
closed = 1;
nodes = (
"140 9 OFFCURVE",
"65 98 OFFCURVE",
"95 239 CURVE SMOOTH",
"125 381 OFFCURVE",
"247 471 OFFCURVE",
"369 471 CURVE SMOOTH",
"484 471 OFFCURVE",
"552 413 OFFCURVE",
"564 310 CURVE",
"534 168 LINE",
"482 66 OFFCURVE",
"380 9 OFFCURVE",
"270 9 CURVE SMOOTH"
);
},
{
closed = 1;
nodes = (
"329 558 LINE",
"458 660 LINE",
"545 558 LINE",
"575 558 LINE",
"473 679 LINE",
"451 679 LINE",
"298 558 LINE"
);
},
{
closed = 1;
nodes = (
"557 631 LINE",
"563 658 LINE",
"606 660 OFFCURVE",
"637 683 OFFCURVE",
"645 718 CURVE",
"652 755 OFFCURVE",
"637 780 OFFCURVE",
"588 780 CURVE SMOOTH",
"570 780 OFFCURVE",
"550 776 OFFCURVE",
"538 772 CURVE",
"533 749 LINE",
"545 754 OFFCURVE",
"566 758 OFFCURVE",
"583 758 CURVE SMOOTH",
"613 758 OFFCURVE",
"627 748 OFFCURVE",
"621 718 CURVE SMOOTH",
"614 687 OFFCURVE",
"593 676 OFFCURVE",
"546 676 CURVE",
"536 631 LINE"
);
}
);
width = 623;
}
);
leftKerningGroup = a;
note = acircumflexhookabove;
rightKerningGroup = a;
unicode = 1EA9;
},
{
glyphname = acircumflextilde;
lastChange = "2015-10-27 23:55:45 +0000";
layers = (
{
layerId = "C023BAC7-6FF9-47E4-9D72-1131A8F8A065";
name = "Light Italic";
paths = (
{
closed = 1;
nodes = (
"369 -15 OFFCURVE",
"461 27 OFFCURVE",
"523 113 CURVE",
"499 0 LINE",
"526 0 LINE",
"628 480 LINE",
"601 480 LINE",
"576 365 LINE",
"550 450 OFFCURVE",
"468 495 OFFCURVE",
"374 495 CURVE SMOOTH",
"235 495 OFFCURVE",
"102 399 OFFCURVE",
"69 239 CURVE SMOOTH",
"37 82 OFFCURVE",
"128 -15 OFFCURVE",
"265 -15 CURVE SMOOTH"
);
},
{
closed = 1;
nodes = (
"140 9 OFFCURVE",
"65 98 OFFCURVE",
"95 239 CURVE SMOOTH",
"125 381 OFFCURVE",
"247 471 OFFCURVE",
"369 471 CURVE SMOOTH",
"484 471 OFFCURVE",
"552 413 OFFCURVE",
"564 310 CURVE",
"534 168 LINE",
"482 66 OFFCURVE",
"380 9 OFFCURVE",
"270 9 CURVE SMOOTH"
);
},
{
closed = 1;
nodes = (
"327 558 LINE",
"456 660 LINE",
"543 558 LINE",
"573 558 LINE",
"471 679 LINE",
"449 679 LINE",
"296 558 LINE"
);
},
{
closed = 1;
nodes = (
"567 692 OFFCURVE",
"590 703 OFFCURVE",
"610 729 CURVE",
"616 759 LINE",
"590 724 OFFCURVE",
"568 714 OFFCURVE",
"539 714 CURVE SMOOTH",
"497 714 OFFCURVE",
"452 760 OFFCURVE",
"407 760 CURVE SMOOTH",
"373 760 OFFCURVE",
"349 749 OFFCURVE",
"330 723 CURVE",
"323 693 LINE",
"352 728 OFFCURVE",
"372 738 OFFCURVE",
"402 738 CURVE SMOOTH",
"443 738 OFFCURVE",
"485 692 OFFCURVE",
"534 692 CURVE SMOOTH"
);
}
);
width = 623;
}
);
leftKerningGroup = a;
note = acircumflextilde;
rightKerningGroup = a;
unicode = 1EAB;
},
{
glyphname = adieresis;
lastChange = "2015-10-27 23:55:45 +0000";
layers = (
{
layerId = "C023BAC7-6FF9-47E4-9D72-1131A8F8A065";
name = "Light Italic";
paths = (
{
closed = 1;
nodes = (
"369 -15 OFFCURVE",
"461 27 OFFCURVE",
"523 113 CURVE",
"499 0 LINE",
"526 0 LINE",
"628 480 LINE",
"601 480 LINE",
"576 365 LINE",
"550 450 OFFCURVE",
"468 495 OFFCURVE",
"374 495 CURVE SMOOTH",
"235 495 OFFCURVE",
"102 399 OFFCURVE",
"69 239 CURVE SMOOTH",
"37 82 OFFCURVE",
"128 -15 OFFCURVE",
"265 -15 CURVE SMOOTH"
);
},
{
closed = 1;
nodes = (
"140 9 OFFCURVE",
"65 98 OFFCURVE",
"95 239 CURVE SMOOTH",
"125 381 OFFCURVE",
"247 471 OFFCURVE",
"369 471 CURVE SMOOTH",
"484 471 OFFCURVE",
"552 413 OFFCURVE",
"564 310 CURVE",
"534 168 LINE",
"482 66 OFFCURVE",
"380 9 OFFCURVE",
"270 9 CURVE SMOOTH"
);
},
{
closed = 1;
nodes = (
"362 572 OFFCURVE",
"377 585 OFFCURVE",
"381 600 CURVE",
"384 615 OFFCURVE",
"373 628 OFFCURVE",
"358 628 CURVE SMOOTH",
"343 628 OFFCURVE",
"328 615 OFFCURVE",
"325 600 CURVE",
"321 585 OFFCURVE",
"332 572 OFFCURVE",
"347 572 CURVE SMOOTH"
);
},
{
closed = 1;
nodes = (
"560 572 OFFCURVE",
"575 585 OFFCURVE",
"579 600 CURVE",
"582 615 OFFCURVE",
"571 628 OFFCURVE",
"556 628 CURVE SMOOTH",
"541 628 OFFCURVE",
"526 615 OFFCURVE",
"523 600 CURVE",
"519 585 OFFCURVE",
"530 572 OFFCURVE",
"545 572 CURVE SMOOTH"
);
}
);
width = 623;
}
);
leftKerningGroup = a;
note = adieresis;
rightKerningGroup = a;
unicode = 00E4;
},
{
glyphname = adotbelow;
lastChange = "2015-10-27 23:55:46 +0000";
layers = (
{
layerId = "C023BAC7-6FF9-47E4-9D72-1131A8F8A065";
name = "Light Italic";
paths = (
{
closed = 1;
nodes = (
"369 -15 OFFCURVE",
"461 27 OFFCURVE",
"523 113 CURVE",
"499 0 LINE",
"526 0 LINE",
"628 480 LINE",
"601 480 LINE",
"576 365 LINE",
"550 450 OFFCURVE",
"468 495 OFFCURVE",
"374 495 CURVE SMOOTH",
"235 495 OFFCURVE",
"102 399 OFFCURVE",
"69 239 CURVE SMOOTH",
"37 82 OFFCURVE",
"128 -15 OFFCURVE",
"265 -15 CURVE SMOOTH"
);
},
{
closed = 1;
nodes = (
"293 -121 OFFCURVE",
"308 -108 OFFCURVE",
"311 -93 CURVE SMOOTH",
"314 -78 OFFCURVE",
"304 -65 OFFCURVE",
"290 -65 CURVE SMOOTH",
"275 -65 OFFCURVE",
"259 -78 OFFCURVE",
"256 -93 CURVE SMOOTH",
"253 -108 OFFCURVE",
"263 -121 OFFCURVE",
"278 -121 CURVE SMOOTH"
);
},
{
closed = 1;
nodes = (
"140 9 OFFCURVE",
"65 98 OFFCURVE",
"95 239 CURVE SMOOTH",
"125 381 OFFCURVE",
"247 471 OFFCURVE",
"369 471 CURVE SMOOTH",
"484 471 OFFCURVE",
"552 413 OFFCURVE",
"564 310 CURVE",
"534 168 LINE",
"482 66 OFFCURVE",
"380 9 OFFCURVE",
"270 9 CURVE SMOOTH"
);
}
);
width = 623;
}
);
leftKerningGroup = a;
note = adotbelow;
rightKerningGroup = a;
unicode = 1EA1;
},
{
glyphname = agrave;
lastChange = "2015-10-27 23:55:45 +0000";
layers = (
{
layerId = "C023BAC7-6FF9-47E4-9D72-1131A8F8A065";
name = "Light Italic";
paths = (
{
closed = 1;
nodes = (
"369 -15 OFFCURVE",
"461 27 OFFCURVE",
"523 113 CURVE",
"499 0 LINE",
"526 0 LINE",
"628 480 LINE",
"601 480 LINE",
"576 365 LINE",
"550 450 OFFCURVE",
"468 495 OFFCURVE",
"374 495 CURVE SMOOTH",
"235 495 OFFCURVE",
"102 399 OFFCURVE",
"69 239 CURVE SMOOTH",
"37 82 OFFCURVE",
"128 -15 OFFCURVE",
"265 -15 CURVE SMOOTH"
);
},
{
closed = 1;
nodes = (
"140 9 OFFCURVE",
"65 98 OFFCURVE",
"95 239 CURVE SMOOTH",
"125 381 OFFCURVE",
"247 471 OFFCURVE",
"369 471 CURVE SMOOTH",
"484 471 OFFCURVE",
"552 413 OFFCURVE",
"564 310 CURVE",
"534 168 LINE",
"482 66 OFFCURVE",
"380 9 OFFCURVE",
"270 9 CURVE SMOOTH"
);
},
{
closed = 1;
nodes = (
"514 562 LINE",
"479 729 LINE",
"451 729 LINE",
"492 562 LINE"
);
}
);
width = 623;
}
);
leftKerningGroup = a;
note = agrave;
rightKerningGroup = a;
unicode = 00E0;
},
{
glyphname = ahookabove;
lastChange = "2015-10-27 23:55:46 +0000";
layers = (
{
layerId = "C023BAC7-6FF9-47E4-9D72-1131A8F8A065";
name = "Light Italic";
paths = (
{
closed = 1;
nodes = (
"369 -15 OFFCURVE",
"461 27 OFFCURVE",
"523 113 CURVE",
"499 0 LINE",
"526 0 LINE",
"628 480 LINE",
"601 480 LINE",
"576 365 LINE",
"550 450 OFFCURVE",
"468 495 OFFCURVE",
"374 495 CURVE SMOOTH",
"235 495 OFFCURVE",
"102 399 OFFCURVE",
"69 239 CURVE SMOOTH",
"37 82 OFFCURVE",
"128 -15 OFFCURVE",
"265 -15 CURVE SMOOTH"
);
},
{
closed = 1;
nodes = (
"140 9 OFFCURVE",
"65 98 OFFCURVE",
"95 239 CURVE SMOOTH",
"125 381 OFFCURVE",
"247 471 OFFCURVE",
"369 471 CURVE SMOOTH",
"484 471 OFFCURVE",
"552 413 OFFCURVE",
"564 310 CURVE",
"534 168 LINE",
"482 66 OFFCURVE",
"380 9 OFFCURVE",
"270 9 CURVE SMOOTH"
);
},
{
closed = 1;
nodes = (
"455 562 LINE",
"464 606 LINE",
"530 609 OFFCURVE",
"569 644 OFFCURVE",
"580 693 CURVE SMOOTH",
"590 743 OFFCURVE",
"564 779 OFFCURVE",
"495 779 CURVE SMOOTH",
"475 779 OFFCURVE",
"450 775 OFFCURVE",
"438 771 CURVE",
"433 747 LINE",
"446 752 OFFCURVE",
"472 755 OFFCURVE",
"490 755 CURVE SMOOTH",
"538 755 OFFCURVE",
"563 736 OFFCURVE",
"553 692 CURVE SMOOTH",
"544 648 OFFCURVE",
"517 625 OFFCURVE",
"445 625 CURVE",
"432 562 LINE"
);
}
);
width = 623;
}
);
leftKerningGroup = a;
note = ahookabove;
rightKerningGroup = a;
unicode = 1EA3;
},
{
glyphname = "alpha-latin";
lastChange = "2015-10-27 23:55:45 +0000";
layers = (
{
layerId = "C023BAC7-6FF9-47E4-9D72-1131A8F8A065";
name = "Light Italic";
paths = (
{
closed = 1;
nodes = (
"369 -15 OFFCURVE",
"461 27 OFFCURVE",
"523 113 CURVE",
"499 0 LINE",
"526 0 LINE",
"628 480 LINE",
"601 480 LINE",
"576 365 LINE",
"550 450 OFFCURVE",
"468 495 OFFCURVE",
"374 495 CURVE SMOOTH",
"235 495 OFFCURVE",
"102 399 OFFCURVE",
"69 239 CURVE SMOOTH",
"37 82 OFFCURVE",
"128 -15 OFFCURVE",
"265 -15 CURVE SMOOTH"
);
},
{
closed = 1;
nodes = (
"140 9 OFFCURVE",
"65 98 OFFCURVE",
"95 239 CURVE SMOOTH",
"125 381 OFFCURVE",
"247 471 OFFCURVE",
"369 471 CURVE SMOOTH",
"484 471 OFFCURVE",
"552 413 OFFCURVE",
"564 310 CURVE",
"534 168 LINE",
"482 66 OFFCURVE",
"380 9 OFFCURVE",
"270 9 CURVE SMOOTH"
);
}
);
width = 623;
}
);
leftKerningGroup = a;
note = ascript;
rightKerningGroup = a;
unicode = 0251;
},
{
glyphname = amacron;
lastChange = "2015-10-27 23:55:44 +0000";
layers = (
{
layerId = "C023BAC7-6FF9-47E4-9D72-1131A8F8A065";
name = "Light Italic";
paths = (
{
closed = 1;
nodes = (
"369 -15 OFFCURVE",
"461 27 OFFCURVE",
"523 113 CURVE",
"499 0 LINE",
"526 0 LINE",
"628 480 LINE",
"601 480 LINE",
"576 365 LINE",
"550 450 OFFCURVE",
"468 495 OFFCURVE",
"374 495 CURVE SMOOTH",
"235 495 OFFCURVE",
"102 399 OFFCURVE",
"69 239 CURVE SMOOTH",
"37 82 OFFCURVE",
"128 -15 OFFCURVE",
"265 -15 CURVE SMOOTH"
);
},
{
closed = 1;
nodes = (
"140 9 OFFCURVE",
"65 98 OFFCURVE",
"95 239 CURVE SMOOTH",
"125 381 OFFCURVE",
"247 471 OFFCURVE",
"369 471 CURVE SMOOTH",
"484 471 OFFCURVE",
"552 413 OFFCURVE",
"564 310 CURVE",
"534 168 LINE",
"482 66 OFFCURVE",
"380 9 OFFCURVE",
"270 9 CURVE SMOOTH"
);
},
{
closed = 1;
nodes = (
"588 595 LINE",
"594 619 LINE",
"316 619 LINE",
"310 595 LINE"
);
}
);
width = 623;
}
);
leftKerningGroup = a;
note = amacron;
rightKerningGroup = a;
unicode = 0101;
},
{
glyphname = aogonek;
lastChange = "2015-10-27 23:55:45 +0000";
layers = (
{
layerId = "C023BAC7-6FF9-47E4-9D72-1131A8F8A065";
name = "Light Italic";
paths = (
{
closed = 1;
nodes = (
"480 -206 OFFCURVE",
"494 -203 OFFCURVE",
"506 -198 CURVE",
"512 -174 LINE",
"498 -179 OFFCURVE",
"482 -182 OFFCURVE",
"465 -182 CURVE SMOOTH",
"434 -182 OFFCURVE",
"413 -164 OFFCURVE",
"421 -125 CURVE SMOOTH",
"431 -76 OFFCURVE",
"472 -36 OFFCURVE",
"526 0 CURVE",
"628 480 LINE",
"601 480 LINE",
"576 365 LINE",
"550 450 OFFCURVE",
"468 495 OFFCURVE",
"374 495 CURVE SMOOTH",
"235 495 OFFCURVE",
"102 399 OFFCURVE",
"69 239 CURVE SMOOTH",
"37 82 OFFCURVE",
"128 -15 OFFCURVE",
"265 -15 CURVE SMOOTH",
"369 -15 OFFCURVE",
"461 27 OFFCURVE",
"523 113 CURVE",
"499 0 LINE",
"452 -27 OFFCURVE",
"406 -73 OFFCURVE",
"395 -125 CURVE SMOOTH",
"383 -179 OFFCURVE",
"417 -206 OFFCURVE",
"460 -206 CURVE SMOOTH"
);
},
{
closed = 1;
nodes = (
"140 9 OFFCURVE",
"65 98 OFFCURVE",
"95 239 CURVE SMOOTH",
"125 381 OFFCURVE",
"247 471 OFFCURVE",
"369 471 CURVE SMOOTH",
"484 471 OFFCURVE",
"552 413 OFFCURVE",
"564 310 CURVE",
"534 168 LINE",
"482 66 OFFCURVE",
"380 9 OFFCURVE",
"270 9 CURVE SMOOTH"
);
}
);
width = 645;
}
);
leftKerningGroup = a;
note = aogonek;
rightKerningGroup = a;
unicode = 0105;
},
